<?xml version="1.0" encoding="UTF-8" standalone="no"?>
<!DOCTYPE svg PUBLIC "-//W3C//DTD SVG 1.1//EN" "http://www.w3.org/Graphics/SVG/1.1/DTD/svg11.dtd">
<svg width="100%" height="100%" viewBox="0 0 800 600" version="1.1" xmlns="http://www.w3.org/2000/svg" xmlns:xlink="http://www.w3.org/1999/xlink" xml:space="preserve" xmlns:serif="http://www.serif.com/" style="fill-rule:evenodd;clip-rule:evenodd;stroke-linejoin:round;stroke-miterlimit:2;">
    <g transform="matrix(0.408357,0,0,0.408357,-387.884,5.98305)">
        <g transform="matrix(4.16667,0,0,4.16667,2451.64,407.623)">
            <path d="M0,70.96C-7.238,70.96 -13.382,65.056 -15.554,56.476C-11.488,60.837 -6.49,63.276 -1.431,63.276C1.625,63.276 4.583,62.399 7.364,60.669C7.799,60.399 7.955,59.843 7.722,59.388C0.627,45.423 -1.617,18.384 11.012,7.792C20.322,-0.019 36.189,0.042 49.349,0.105C52.058,0.119 54.649,0.129 57.046,0.073C59.722,0.01 62.623,-0.222 65.691,-0.467C69.675,-0.785 73.793,-1.114 77.88,-1.114C88.77,-1.114 95.938,1.442 100.435,6.929C107.839,15.96 107.823,44.11 103.614,55.329C99.5,66.282 79.859,67.589 65.518,68.546C61.369,68.823 57.451,69.081 54.422,69.54C53.696,69.649 52.904,69.774 52.056,69.907C46.56,70.771 38.259,72.071 30.454,72.071L30.452,72.071C21.56,72.071 15.206,70.38 11.563,67.046C11.378,66.874 11.139,66.788 10.899,66.788C10.686,66.788 10.473,66.856 10.293,66.997C6.933,69.628 3.47,70.96 0,70.96M30.452,74.042L30.454,74.042C38.411,74.042 46.806,72.724 52.36,71.853C53.205,71.722 53.993,71.597 54.717,71.489C57.665,71.044 61.542,70.784 65.648,70.511C80.524,69.521 100.898,68.163 105.457,56.021C109.919,44.132 109.878,15.34 101.961,5.679C95.517,-2.175 85.132,-3.082 77.88,-3.082C73.714,-3.082 69.555,-2.752 65.536,-2.43C62.495,-2.187 59.622,-1.958 57.001,-1.896C54.621,-1.839 52.046,-1.851 49.359,-1.865C35.865,-1.935 19.591,-1.976 9.745,6.282C-3.367,17.279 -1.494,44.694 5.558,59.448C3.321,60.681 0.973,61.306 -1.431,61.306C-6.912,61.308 -12.364,58.032 -16.392,52.317C-16.651,51.952 -17.125,51.806 -17.546,51.964C-17.967,52.122 -18.224,52.546 -18.176,52.993C-16.905,64.544 -9.262,72.931 0,72.931C3.694,72.931 7.344,71.622 10.86,69.04C14.969,72.403 21.391,74.042 30.452,74.042" style="fill:rgb(1,76,144);fill-rule:nonzero;"/>
        </g>
        <g transform="matrix(4.16667,0,0,4.16667,2529.83,553.837)">
            <path d="M0,1.98C8.196,5.183 15.923,9.054 12.656,17.972C11.561,20.976 8.731,22.855 5.089,22.994C1.105,23.168 -2.658,21.13 -4.043,18.087C-4.268,17.593 -4.854,17.375 -5.347,17.599C-5.841,17.826 -6.061,18.408 -5.836,18.902C-4.164,22.576 0.004,24.972 4.643,24.972C4.816,24.972 4.99,24.968 5.164,24.962C9.634,24.789 13.126,22.429 14.507,18.65C18.709,7.175 7.006,2.603 0.718,0.146C-1.889,-0.872 -3.662,-2.477 -4.553,-4.625C-5.672,-7.329 -5.357,-10.938 -3.667,-14.791C-2.316,-17.875 1.265,-20.287 5.045,-20.658C6.82,-20.832 10.13,-20.658 12.32,-17.52C14.098,-14.967 13.257,-12.809 12.597,-11.749C11.529,-10.038 9.467,-8.821 7.986,-9.049C7.225,-9.166 6.743,-9.655 6.516,-10.541C6.379,-11.069 5.842,-11.385 5.314,-11.25C4.789,-11.114 4.471,-10.577 4.606,-10.051C5.032,-8.413 6.154,-7.338 7.688,-7.102C9.937,-6.762 12.772,-8.305 14.268,-10.708C15.828,-13.211 15.707,-16.104 13.934,-18.648C11.917,-21.541 8.607,-22.992 4.85,-22.619C0.397,-22.181 -3.848,-19.288 -5.472,-15.583C-7.406,-11.17 -7.717,-7.122 -6.371,-3.872C-5.269,-1.208 -3.124,0.761 0,1.98" style="fill:rgb(1,76,144);fill-rule:nonzero;"/>
        </g>
        <g transform="matrix(4.16667,0,0,4.16667,2628.38,634.403)">
            <path d="M0,-39.66C0.51,-40.107 0.913,-40.113 1.165,-40.081C1.974,-39.976 4.014,-38.525 5.49,-27.305L5.565,-26.743C5.579,-26.651 5.589,-26.557 5.601,-26.465C3.565,-26.162 -0.093,-25.813 -3.834,-26.389C-3.103,-32.764 -1.844,-38.038 0,-39.66M-5.595,-10.905C-5.051,-10.905 -4.611,-11.344 -4.611,-11.889C-4.611,-15.991 -4.425,-20.369 -4.04,-24.428C-2.506,-24.198 -0.988,-24.112 0.417,-24.112C2.606,-24.112 4.528,-24.319 5.839,-24.51C6.529,-18.133 6.436,-11.575 6.343,-5.207C6.31,-2.959 6.276,-0.719 6.276,1.515C6.276,2.056 6.717,2.502 7.262,2.502C7.805,2.502 8.247,2.056 8.247,1.515C8.247,-0.707 8.28,-2.94 8.312,-5.18C8.418,-12.366 8.526,-19.797 7.515,-27.014L7.441,-27.561C6.59,-34.049 5.134,-41.556 1.417,-42.034C0.45,-42.162 -0.492,-41.849 -1.3,-41.139C-6.327,-36.719 -6.581,-15.998 -6.581,-11.889C-6.581,-11.344 -6.139,-10.905 -5.595,-10.905" style="fill:rgb(1,76,144);fill-rule:nonzero;"/>
        </g>
        <g transform="matrix(4.16667,0,0,4.16667,2696.38,454.121)">
            <path d="M0,45.738C1.492,45.781 2.986,45.771 4.486,45.758C7.75,45.732 11.128,45.709 14.302,46.295C14.363,46.306 14.423,46.308 14.482,46.308C14.949,46.308 15.364,45.978 15.45,45.504C15.549,44.967 15.195,44.455 14.659,44.355C11.301,43.738 7.831,43.765 4.47,43.789C3.267,43.797 2.063,43.804 0.862,43.785C-1.158,31.916 -1.093,19.097 -1.032,6.695C-1.02,4.584 -1.01,2.487 -1.01,0.414C-1.01,-0.131 -1.451,-0.57 -1.996,-0.57C-2.539,-0.57 -2.98,-0.131 -2.98,0.414C-2.98,2.483 -2.99,4.576 -3.002,6.685C-3.065,19.453 -3.129,32.656 -0.939,44.925C-0.858,45.384 -0.464,45.724 0,45.738" style="fill:rgb(1,76,144);fill-rule:nonzero;"/>
        </g>
        <g transform="matrix(4.16667,0,0,4.16667,2753.48,468.576)">
            <path d="M0,34.562C1.062,35.056 1.989,35.244 2.787,35.244C4.053,35.244 5,34.769 5.65,34.253C12.827,28.595 8.317,0.471 8.261,0.194C8.154,-0.34 7.633,-0.682 7.1,-0.575C6.567,-0.471 6.222,0.05 6.33,0.583C7.27,5.248 9.77,28.496 4.432,32.708C3.496,33.443 2.317,33.464 0.828,32.775C-2.406,31.277 -4.583,24.431 -5.539,18.529C-6.238,14.167 -6.565,9.441 -6.565,3.646C-6.565,3.104 -7.004,2.661 -7.548,2.661C-8.092,2.661 -8.533,3.104 -8.533,3.646C-8.533,9.546 -8.202,14.374 -7.481,18.843C-6.837,22.826 -4.816,32.332 0,34.562" style="fill:rgb(1,76,144);fill-rule:nonzero;"/>
        </g>
        <g transform="matrix(4.16667,0,0,4.16667,2791.22,609.105)">
            <path d="M0,-37.605C0.485,-37.578 0.978,-37.567 1.474,-37.567C3.041,-37.567 4.648,-37.688 6.244,-37.877C7.66,-25.095 9.059,-8.032 8.857,2.679C8.847,3.224 9.28,3.673 9.824,3.683L9.843,3.683C10.378,3.683 10.817,3.253 10.826,2.714C11.078,-10.601 9.003,-30.862 8.197,-38.139C10.365,-38.463 12.469,-38.877 14.367,-39.254C14.9,-39.359 15.248,-39.877 15.143,-40.411C15.037,-40.944 14.519,-41.288 13.986,-41.187C11.848,-40.764 9.445,-40.29 7.005,-39.959L6.999,-39.959C4.67,-39.643 2.306,-39.456 0.104,-39.573C-0.457,-39.61 -0.904,-39.183 -0.934,-38.641C-0.961,-38.096 -0.543,-37.634 0,-37.605" style="fill:rgb(1,76,144);fill-rule:nonzero;"/>
        </g>
        <g transform="matrix(4.16667,0,0,4.16667,2899.44,862.518)">
            <path d="M0,37.717C-3.188,38.233 -6.678,38.295 -9.101,38.295C-10.855,38.295 -12.597,38.258 -14.266,38.221C-16.748,38.17 -19.068,38.119 -21.044,38.196C-23.395,38.291 -25.791,38.336 -28.363,38.336C-34.625,38.336 -40.841,38.061 -46.855,37.795C-49.192,37.692 -51.53,37.596 -53.869,37.498C-64.633,37.055 -75.753,36.596 -86.682,35.479C-86.522,34.774 -86.356,34.057 -86.188,33.33C-85.532,30.508 -84.854,27.588 -84.457,24.752C-84.394,24.307 -84.643,23.873 -85.06,23.703C-90.16,21.623 -94.457,16.904 -97.016,12.42C-93.246,13.977 -88.184,14.863 -83.679,14.651C-83.244,14.633 -82.874,14.328 -82.768,13.908C-81.975,10.774 -81.386,7.477 -80.816,4.287C-80.528,2.67 -80.242,1.059 -79.93,-0.519C-69.968,0.246 -59.831,0.385 -50.02,0.518C-33.467,0.738 -16.36,0.971 0.242,4.244C-0.665,15.674 -0.747,26.924 0,37.717M2.275,3.533C2.316,3.037 1.981,2.588 1.491,2.487C-15.557,-0.99 -33.063,-1.226 -49.992,-1.453C-60.059,-1.59 -70.467,-1.728 -80.645,-2.551C-81.139,-2.588 -81.589,-2.256 -81.688,-1.769C-82.071,0.102 -82.412,2.016 -82.755,3.94C-83.275,6.852 -83.813,9.85 -84.499,12.705C-89.737,12.807 -95.375,11.463 -98.704,9.363C-99.067,9.131 -99.542,9.166 -99.87,9.447C-100.197,9.727 -100.306,10.188 -100.134,10.584C-97.862,15.875 -92.815,22.342 -86.516,25.219C-86.912,27.74 -87.518,30.352 -88.105,32.883C-88.362,33.99 -88.617,35.08 -88.844,36.135C-88.905,36.408 -88.844,36.694 -88.68,36.92C-88.518,37.149 -88.265,37.293 -87.988,37.324C-76.645,38.531 -65.106,39.008 -53.948,39.467C-51.612,39.563 -49.277,39.662 -46.942,39.762C-40.908,40.031 -34.668,40.305 -28.363,40.305C-25.763,40.305 -23.345,40.26 -20.967,40.166C-19.028,40.088 -16.743,40.139 -14.311,40.192C-12.628,40.225 -10.871,40.266 -9.101,40.266C-6.376,40.266 -2.341,40.186 1.229,39.498C1.722,39.405 2.063,38.957 2.026,38.459C1.2,27.225 1.285,15.477 2.275,3.533" style="fill:rgb(1,76,144);fill-rule:nonzero;"/>
        </g>
        <g transform="matrix(4.16667,0,0,4.16667,2603.99,884.879)">
            <path d="M0,26.651C-0.469,26.817 -1.204,26.946 -1.792,26.958C-3.611,27.014 -4.938,26.442 -5.837,25.245C-8.355,21.899 -6.996,14.573 -5.925,11.167C-4.398,6.307 -2.617,2.985 -0.627,1.294C0.032,0.733 1.955,-0.201 3.415,0.176C4.181,0.378 4.725,0.928 5.07,1.86C5.26,2.372 5.829,2.628 6.337,2.442C6.847,2.253 7.106,1.684 6.918,1.176C6.197,-0.765 4.885,-1.476 3.911,-1.728C1.78,-2.279 -0.771,-1.171 -1.903,-0.206C-4.212,1.756 -6.142,5.284 -7.805,10.575C-8.152,11.684 -11.099,21.534 -7.413,26.428C-6.164,28.09 -4.34,28.93 -1.991,28.93C-1.909,28.93 -1.828,28.93 -1.744,28.928C-0.945,28.911 0.001,28.743 0.666,28.503C1.177,28.321 1.444,27.756 1.259,27.245C1.077,26.731 0.512,26.465 0,26.651" style="fill:rgb(1,76,144);fill-rule:nonzero;"/>
        </g>
        <g transform="matrix(4.16667,0,0,4.16667,2785.22,995.801)">
            <path d="M0,-18.357C1.072,-18.103 1.705,-17.234 1.883,-15.779C1.948,-15.24 2.444,-14.857 2.979,-14.923C3.52,-14.988 3.902,-15.478 3.837,-16.017C3.461,-19.109 1.558,-20.013 0.457,-20.275C-2.047,-20.865 -5.396,-19.384 -7.015,-16.962C-8.2,-15.187 -8.21,-13.242 -7.042,-11.63C-5.974,-10.144 -4.19,-9.832 -2.618,-9.554C-1.435,-9.345 -0.315,-9.148 0.364,-8.519C2.058,-6.951 1.988,-3.8 0.864,-1.953C-0.1,-0.369 -2.618,0.715 -4.871,0.516C-6.104,0.405 -7.729,-0.136 -8.482,-2.084C-8.681,-2.591 -9.252,-2.839 -9.757,-2.646C-10.265,-2.453 -10.519,-1.88 -10.32,-1.375C-9.461,0.852 -7.538,2.254 -5.045,2.479C-4.809,2.497 -4.573,2.508 -4.337,2.508C-1.56,2.508 1.307,1.104 2.547,-0.929C4.092,-3.468 4.207,-7.648 1.703,-9.966C0.598,-10.986 -0.929,-11.255 -2.279,-11.494C-3.655,-11.736 -4.842,-11.945 -5.445,-12.783C-6.132,-13.734 -6.109,-14.771 -5.378,-15.869C-4.22,-17.601 -1.707,-18.765 0,-18.357" style="fill:rgb(1,76,144);fill-rule:nonzero;"/>
        </g>
        <g transform="matrix(4.16667,0,0,4.16667,2872.44,916.801)">
            <path d="M0,17.228C-2.613,18.283 -4.936,18.273 -6.717,17.203C-8.616,16.064 -9.844,13.712 -10.174,10.582C-10.473,7.734 -8.481,1.832 -5.557,0.21C-4.301,-0.489 -3.016,-0.299 -1.636,0.779C-1.209,1.115 -0.589,1.039 -0.255,0.609C0.082,0.181 0.007,-0.438 -0.422,-0.772C-2.968,-2.76 -5.14,-2.274 -6.513,-1.514C-10.303,0.589 -12.5,7.292 -12.133,10.787C-11.737,14.548 -10.173,17.429 -7.73,18.892C-6.519,19.621 -5.145,19.988 -3.653,19.988C-2.279,19.988 -0.802,19.675 0.737,19.054C1.24,18.847 1.484,18.275 1.28,17.771C1.079,17.267 0.506,17.025 0,17.228" style="fill:rgb(1,76,144);fill-rule:nonzero;"/>
        </g>
        <g transform="matrix(4.16667,0,0,4.16667,2672.28,983.88)">
            <path d="M0,-18.111C-4.717,-18.336 -11.895,-18.683 -12.352,-18.728C-12.885,-18.785 -13.377,-18.398 -13.438,-17.859C-13.498,-17.318 -13.108,-16.832 -12.569,-16.771C-12.148,-16.724 -5.953,-16.423 -2.332,-16.248L-16.28,-2.429C-16.551,-2.164 -16.644,-1.763 -16.517,-1.406C-16.393,-1.047 -16.073,-0.793 -15.695,-0.752L-2.739,0.668C-2.704,0.674 -2.666,0.674 -2.63,0.674C-2.134,0.674 -1.708,0.305 -1.654,-0.203C-1.593,-0.742 -1.984,-1.228 -2.525,-1.287L-13.429,-2.484L0.646,-16.427C0.924,-16.701 1.014,-17.115 0.874,-17.48C0.733,-17.843 0.392,-18.093 0,-18.111" style="fill:rgb(1,76,144);fill-rule:nonzero;"/>
        </g>
        <g transform="matrix(4.16667,0,0,4.16667,2724.39,962.865)">
            <path d="M0,-6.591L-6.852,-6.282L-5.365,-16.306L4.717,-16.583C5.26,-16.597 5.69,-17.05 5.674,-17.595C5.66,-18.138 5.178,-18.607 4.663,-18.552L-6.245,-18.249C-6.723,-18.236 -7.122,-17.882 -7.194,-17.409L-11.233,9.843C-11.272,10.106 -11.201,10.378 -11.039,10.587C-10.875,10.802 -10.632,10.936 -10.365,10.966L-0.834,12.009C-0.798,12.014 -0.763,12.016 -0.726,12.016C-0.229,12.016 0.196,11.641 0.253,11.136C0.31,10.597 -0.079,10.11 -0.622,10.054L-9.134,9.12L-7.146,-4.296L0.089,-4.624C0.633,-4.646 1.054,-5.107 1.029,-5.65C1.004,-6.195 0.564,-6.642 0,-6.591" style="fill:rgb(1,76,144);fill-rule:nonzero;"/>
        </g>
        <g transform="matrix(4.16667,0,0,4.16667,2804.37,903.096)">
            <path d="M0,-4.799L-5.845,-1.586C-6.323,-1.324 -6.496,-0.725 -6.234,-0.248C-6.057,0.078 -5.717,0.262 -5.372,0.262C-5.209,0.262 -5.048,0.222 -4.897,0.14L0.948,-3.072C1.425,-3.332 1.598,-3.932 1.337,-4.41C1.073,-4.885 0.477,-5.061 0,-4.799" style="fill:rgb(1,76,144);fill-rule:nonzero;"/>
        </g>
        <g transform="matrix(4.16667,0,0,4.16667,2851.89,879.25)">
            <path d="M0,5.299C0.197,5.299 0.398,5.238 0.57,5.115L5.044,1.918C5.487,1.602 5.588,0.986 5.274,0.543C4.957,0.1 4.342,0 3.899,0.315L-0.573,3.512C-1.017,3.828 -1.119,4.444 -0.803,4.885C-0.61,5.154 -0.309,5.299 0,5.299" style="fill:rgb(1,76,144);fill-rule:nonzero;"/>
        </g>
        <g transform="matrix(4.16667,0,0,4.16667,1455.32,775.89)">
            <path d="M0,10.455C-0.49,10.437 -0.919,10.766 -1.015,11.242C-1.986,16.076 -4.853,24.555 -13.166,27.064C-16.699,28.129 -20.817,28.646 -25.751,28.646C-30.56,28.646 -35.61,28.162 -40.491,27.693C-45.042,27.26 -49.748,26.81 -54.114,26.775C-54.767,26.771 -55.484,26.769 -56.261,26.769C-67.274,26.769 -88.779,27.236 -96.741,27.476C-97.878,27.514 -98.961,27.533 -99.995,27.533C-113.148,27.533 -117.956,24.818 -118.733,9.566C-118.767,8.9 -118.838,8.055 -118.919,7.076C-119.443,0.803 -120.419,-10.873 -115.042,-14.93C-113.427,-16.149 -105.462,-18.191 -70.258,-18.191C-55.964,-18.191 -42.132,-17.852 -36.225,-17.705C-34.019,-17.652 -31.649,-17.715 -29.211,-17.783C-18.044,-18.09 -5.526,-18.473 -1.877,-6.893C-1.326,-5.143 -0.911,-3.234 -0.643,-1.219C-0.597,-0.873 -0.372,-0.578 -0.05,-0.441C2.501,0.639 5.457,1.185 8.736,1.185C16.548,1.185 25.389,-1.971 31.563,-5.641C26.8,1.607 16.274,11.269 0,10.455M35.042,-9.52C34.688,-9.803 34.188,-9.805 33.83,-9.529C28.307,-5.291 17.634,-0.783 8.736,-0.783C5.943,-0.783 3.42,-1.209 1.231,-2.049C0.946,-3.967 0.535,-5.793 0.002,-7.483C-3.433,-18.387 -13.853,-19.856 -23.593,-19.856C-25.493,-19.856 -27.399,-19.805 -29.266,-19.752C-31.667,-19.686 -34.002,-19.621 -36.177,-19.676C-42.09,-19.82 -55.94,-20.16 -70.258,-20.16C-111.377,-20.16 -115.029,-17.408 -116.228,-16.504C-122.472,-11.791 -121.437,0.588 -120.882,7.24C-120.803,8.193 -120.734,9.017 -120.701,9.666C-119.841,26.535 -113.339,29.502 -99.995,29.502C-98.942,29.502 -97.838,29.482 -96.683,29.445C-86.649,29.143 -63.322,28.672 -54.13,28.744C-49.849,28.779 -45.395,29.205 -40.68,29.656C-35.751,30.127 -30.655,30.615 -25.751,30.615C-20.622,30.615 -16.318,30.07 -12.598,28.951C-5.918,26.935 -1.203,21.094 0.742,12.455C20.425,13.041 31.979,-0.988 35.325,-8.342C35.513,-8.754 35.397,-9.238 35.042,-9.52" style="fill:rgb(1,76,144);fill-rule:nonzero;"/>
        </g>
        <g transform="matrix(4.16667,0,0,4.16667,1139.66,775.848)">
            <path d="M0,13.305C-4.987,10.16 -4.419,4.018 -2.417,-0.281C-2.188,-0.773 -2.402,-1.359 -2.895,-1.59C-3.391,-1.82 -3.974,-1.603 -4.205,-1.113C-6.728,4.311 -6.731,11.385 -1.052,14.973C-0.889,15.076 -0.708,15.125 -0.526,15.125C-0.2,15.125 0.119,14.961 0.306,14.666C0.597,14.205 0.459,13.598 0,13.305" style="fill:rgb(1,76,144);fill-rule:nonzero;"/>
        </g>
        <g transform="matrix(4.16667,0,0,4.16667,1360.58,769.418)">
            <path d="M0,-4.486L-0.86,-4.461C-1.404,-4.443 -1.833,-3.986 -1.814,-3.445C-1.797,-2.9 -1.349,-2.472 -0.799,-2.49L0.068,-2.519C4.307,-2.664 7.66,-2.781 10.761,0.035C10.95,0.205 11.187,0.289 11.423,0.289C11.69,0.289 11.958,0.182 12.151,-0.033C12.517,-0.435 12.486,-1.058 12.084,-1.422C8.392,-4.775 4.319,-4.632 0,-4.486" style="fill:rgb(1,76,144);fill-rule:nonzero;"/>
        </g>
        <g transform="matrix(4.16667,0,0,4.16667,1389.77,846.358)">
            <path d="M0,-16.301C-2.805,-17.637 -6.565,-17.811 -9.147,-16.725C-9.648,-16.514 -9.885,-15.934 -9.674,-15.434C-9.462,-14.932 -8.887,-14.696 -8.383,-14.906C-6.608,-15.655 -3.453,-15.762 -0.847,-14.522C0.381,-13.938 1.974,-12.799 2.583,-10.711C3.124,-8.856 2.788,-7.01 1.584,-5.229C-0.304,-2.434 -3.772,-0.682 -6.078,-0.457C-6.619,-0.403 -7.014,0.082 -6.961,0.621C-6.911,1.131 -6.481,1.51 -5.982,1.51C-5.949,1.51 -5.917,1.508 -5.883,1.506C-3.063,1.224 0.967,-0.797 3.216,-4.127C4.742,-6.385 5.177,-8.852 4.475,-11.262C3.832,-13.471 2.285,-15.213 0,-16.301" style="fill:rgb(1,76,144);fill-rule:nonzero;"/>
        </g>
        <g transform="matrix(4.16667,0,0,4.16667,1046.79,772.509)">
            <path d="M0,9.7C-0.453,12.075 -1.847,13.774 -3.823,14.354C-5.484,14.841 -7.293,14.44 -8.326,13.354C-9.268,12.362 -9.455,10.958 -8.871,9.292C-8.45,8.093 -7.128,7.3 -6.094,6.843C-4.23,6.02 -1.874,5.645 0.163,5.645L0.257,5.645C0.329,6.962 0.264,8.304 0,9.7M10.237,-2.587C7.688,-3.036 4.123,-3.257 0.523,-3.161C0.036,-5.048 -0.431,-6.988 -0.645,-8.966C-0.704,-9.505 -1.18,-9.902 -1.73,-9.839C-2.271,-9.78 -2.663,-9.292 -2.604,-8.751C-2.391,-6.788 -1.953,-4.904 -1.488,-3.073C-4.116,-2.913 -6.666,-2.573 -8.744,-2.015C-9.27,-1.874 -9.581,-1.333 -9.44,-0.808C-9.321,-0.368 -8.925,-0.079 -8.49,-0.079C-8.405,-0.079 -8.32,-0.089 -8.233,-0.113C-6.168,-0.667 -3.611,-0.995 -0.986,-1.138C-0.569,0.479 -0.179,2.065 0.056,3.673C-2.303,3.688 -4.892,4.161 -6.888,5.04C-8.883,5.921 -10.211,7.165 -10.73,8.639C-11.564,11.014 -11.216,13.171 -9.753,14.712C-8.203,16.345 -5.656,16.946 -3.268,16.243C-0.557,15.446 1.339,13.196 1.935,10.067C2.214,8.595 2.292,7.175 2.233,5.792C2.821,5.886 3.336,6.018 3.742,6.192C5.808,7.071 7.835,10.522 8.172,13.725C8.288,14.839 8.281,16.848 6.906,17.811C6.461,18.124 6.354,18.739 6.666,19.184C6.858,19.458 7.163,19.602 7.473,19.602C7.668,19.602 7.866,19.546 8.038,19.425C9.667,18.28 10.411,16.182 10.13,13.52C9.766,10.048 7.565,5.68 4.514,4.38C3.829,4.089 2.986,3.889 2.055,3.778C1.831,2.069 1.443,0.415 1.028,-1.212C4.322,-1.275 7.554,-1.06 9.896,-0.648C10.425,-0.556 10.943,-0.911 11.038,-1.45C11.131,-1.984 10.773,-2.495 10.237,-2.587" style="fill:rgb(1,76,144);fill-rule:nonzero;"/>
        </g>
        <g transform="matrix(4.16667,0,0,4.16667,1090.28,749.377)">
            <path d="M0,-4.137C-1.302,-2.631 -2.884,-1.719 -4.575,-1.5C-5.114,-1.43 -5.496,-0.938 -5.425,-0.397C-5.362,0.099 -4.937,0.459 -4.451,0.459C-4.408,0.459 -4.365,0.459 -4.323,0.453C-2.143,0.172 -0.133,-0.973 1.491,-2.852C1.846,-3.26 1.801,-3.883 1.389,-4.241C0.978,-4.596 0.355,-4.549 0,-4.137" style="fill:rgb(1,76,144);fill-rule:nonzero;"/>
        </g>
        <g transform="matrix(4.16667,0,0,4.16667,1180.4,758.988)">
            <path d="M0,18.533C-0.504,19.056 -1.407,19.65 -3.413,18.785C-5.034,18.086 -5.216,16.717 -5.18,15.965C-5.111,14.504 -4.174,13.16 -2.953,12.769C-2.331,12.57 -1.684,12.474 -1.039,12.474C-0.105,12.474 0.832,12.674 1.7,13.039C1.521,15.437 1.011,17.482 0,18.533M9.25,5.129C7.333,4.633 5.291,4.324 3.206,4.129C2.792,1.351 2.205,-0.949 1.724,-1.957C1.488,-2.449 0.9,-2.658 0.41,-2.422C-0.08,-2.188 -0.288,-1.6 -0.054,-1.11C0.38,-0.203 0.855,1.691 1.213,3.974C-1.775,3.791 -4.799,3.793 -7.626,3.797L-8.635,3.799C-9.177,3.799 -9.619,4.24 -9.619,4.785C-9.617,5.328 -9.177,5.767 -8.633,5.767L-7.622,5.767C-4.708,5.762 -1.577,5.758 1.482,5.965C1.667,7.586 1.779,9.303 1.775,10.947C0.073,10.383 -1.792,10.328 -3.555,10.892C-5.56,11.537 -7.038,13.584 -7.148,15.869C-7.25,17.986 -6.145,19.752 -4.193,20.596C-3.205,21.021 -2.351,21.191 -1.613,21.191C-0.196,21.191 0.784,20.56 1.42,19.898C2.608,18.666 3.256,16.58 3.542,14.16C4.309,14.797 4.945,15.597 5.375,16.523C5.43,16.652 5.54,17.092 5.757,18.439C5.891,19.265 6.273,19.638 6.907,19.564C7.435,19.498 7.809,18.953 7.759,18.428C7.752,18.353 7.737,18.289 7.718,18.224L7.702,18.125C7.5,16.887 7.348,16.088 7.161,15.691C6.402,14.06 5.177,12.742 3.708,11.842C3.768,9.961 3.662,7.992 3.462,6.135C5.3,6.324 7.088,6.607 8.759,7.035C8.842,7.056 8.924,7.066 9.005,7.066C9.445,7.066 9.844,6.773 9.96,6.328C10.094,5.801 9.776,5.263 9.25,5.129" style="fill:rgb(1,76,144);fill-rule:nonzero;"/>
        </g>
        <g transform="matrix(4.16667,0,0,4.16667,1278.81,757.35)">
            <path d="M0,16.969C-1.374,18.557 -2.855,19.09 -4.288,18.52C-5.802,17.914 -6.928,16.153 -6.851,14.506C-6.782,13.073 -5.836,12.049 -4.117,11.547C-3.304,11.305 -2.458,11.192 -1.613,11.192C-0.354,11.192 0.904,11.449 2.051,11.938C1.872,13.785 1.258,15.51 0,16.969M10.136,3.922C7.932,2.836 5.394,2.86 2.936,2.881L2.582,2.883C1.84,0.703 0.951,-1.328 0.208,-3.015C-0.009,-3.511 -0.59,-3.742 -1.089,-3.521C-1.586,-3.302 -1.813,-2.72 -1.595,-2.222C-0.176,1.006 1.834,5.584 2.083,9.846C-0.07,9.104 -2.469,9.008 -4.674,9.655C-7.199,10.397 -8.71,12.129 -8.818,14.412C-8.935,16.885 -7.301,19.438 -5.018,20.35C-4.412,20.592 -3.794,20.711 -3.178,20.711C-1.538,20.711 0.096,19.867 1.49,18.256C2.849,16.684 3.594,14.899 3.909,13.022C4.052,13.129 4.192,13.246 4.327,13.365C6.076,14.903 6.847,16.949 6.5,19.129C6.415,19.668 6.78,20.172 7.318,20.258C7.858,20.344 8.359,19.977 8.446,19.44C8.895,16.61 7.869,13.858 5.628,11.887C5.154,11.469 4.638,11.096 4.092,10.774C4.098,8.809 3.731,6.795 3.189,4.85C5.344,4.834 7.545,4.842 9.267,5.688C9.407,5.756 9.555,5.789 9.701,5.789C10.065,5.789 10.414,5.586 10.586,5.239C10.825,4.748 10.625,4.158 10.136,3.922" style="fill:rgb(1,76,144);fill-rule:nonzero;"/>
        </g>
        <g transform="matrix(4.16667,0,0,4.16667,1133.5,429.428)">
            <path d="M0,-21.669C3.49,-36.093 13.072,-48.805 26.291,-56.541C33.532,-60.785 41.596,-63.029 49.607,-63.029C64.746,-63.029 78.968,-55.074 87.652,-41.755C95.085,-30.349 97.88,-14.83 94.777,-2.218C92.384,7.497 86.66,15.127 78.223,19.852C77.792,20.092 77.607,20.616 77.789,21.075C79.469,25.289 83.612,34.899 88.621,40.891C79.471,39.055 71.91,34.487 67.125,27.844C66.935,27.581 66.634,27.436 66.326,27.436C66.167,27.436 66.008,27.471 65.86,27.553C58.841,31.323 50.713,33.319 42.353,33.319C26.81,33.319 13.214,26.532 5.98,15.166C-0.977,4.229 -3.1,-8.852 0,-21.669M42.353,35.288C50.74,35.288 58.909,33.352 66.038,29.686C71.662,37.059 80.559,41.887 91.194,43.317C91.238,43.325 91.282,43.327 91.326,43.327C91.701,43.327 92.05,43.11 92.214,42.762C92.398,42.377 92.311,41.914 91.999,41.623C86.684,36.649 81.994,26.18 79.938,21.135C88.451,16.114 94.235,8.219 96.689,-1.745C99.919,-14.864 97.021,-30.99 89.303,-42.831C80.252,-56.71 65.413,-64.996 49.607,-64.996C41.246,-64.996 32.839,-62.661 25.294,-58.24C11.617,-50.235 1.701,-37.074 -1.914,-22.132C-5.142,-8.791 -2.928,4.832 4.318,16.225C11.916,28.161 26.134,35.288 42.353,35.288" style="fill:rgb(1,76,144);fill-rule:nonzero;"/>
        </g>
        <g transform="matrix(4.16667,0,0,4.16667,1230.62,441.901)">
            <path d="M0,-35.059C1.693,-36.838 4.052,-37.78 6.826,-37.78C11.778,-37.78 18.321,-34.551 20.986,-27.465C21.119,-27.107 21.447,-26.861 21.826,-26.829C22.215,-26.8 22.571,-26.991 22.76,-27.321C26.813,-34.355 34.746,-41.634 41.01,-41.634C44.525,-41.634 47.302,-39.367 49.261,-34.899C54.141,-23.753 42.461,-9.702 33.077,1.591C31.75,3.186 30.465,4.734 29.272,6.215C26.796,4.461 24.031,2.73 21.119,0.908C10.191,-5.931 -2.192,-13.682 -2.786,-25.506C-2.996,-29.618 -2.032,-32.92 0,-35.059M20.074,2.578C23.259,4.572 26.268,6.455 28.876,8.356C29.052,8.484 29.256,8.545 29.457,8.545C29.747,8.545 30.035,8.417 30.228,8.171C31.573,6.481 33.053,4.701 34.592,2.849C44.323,-8.86 56.434,-23.43 51.065,-35.69C48.197,-42.231 44.015,-43.604 41.01,-43.604C34.299,-43.604 26.55,-36.828 22.051,-29.929C19.09,-35.793 13.073,-39.75 6.826,-39.75C3.548,-39.75 0.615,-38.566 -1.427,-36.416C-3.842,-33.878 -4.992,-30.069 -4.754,-25.407C-4.108,-12.556 8.739,-4.516 20.074,2.578" style="fill:rgb(1,76,144);fill-rule:nonzero;"/>
        </g>
        <g transform="matrix(4.16667,0,0,4.16667,2319.98,315.791)">
            <path d="M0,-69.675C6.383,-75.356 16.092,-77.624 26.642,-75.895C37.815,-74.064 47.578,-67.985 52.119,-60.03C57.298,-50.964 54.568,-39.62 49.564,-32.4C46.354,-27.766 41.418,-25.821 36.644,-23.936C32.383,-22.255 27.976,-20.516 24.887,-16.886C23.863,-15.685 23.324,-14.413 22.929,-13.486C22.894,-13.401 22.861,-13.322 22.829,-13.247L15.646,-15.071C17.442,-17.785 22.482,-23.273 26.625,-27.785C29.838,-31.283 32.612,-34.302 33.88,-35.982C37.651,-40.993 38.167,-45.52 35.332,-48.735C33.176,-51.167 29.993,-51.502 26.365,-49.679C26.339,-49.667 25.629,-49.298 24.605,-48.689C23.588,-51.827 21.92,-54.845 19.789,-56.271C17.848,-57.572 15.704,-57.406 13.747,-55.808C9.225,-52.109 8.553,-43.592 8.473,-36.586C8.415,-31.912 8.553,-28.294 8.687,-24.793C8.789,-22.122 8.886,-19.582 8.883,-16.787L2.193,-18.487C2.225,-18.884 2.256,-19.264 2.284,-19.619C2.654,-24.153 2.792,-25.85 -0.113,-29.928C-0.626,-30.645 -1.132,-31.332 -1.625,-32C-4.043,-35.276 -6.13,-38.107 -7.13,-42.426C-9.91,-54.412 -7.71,-62.816 0,-69.675M19.37,2.744L15.816,1.894C15.811,1.894 15.809,1.892 15.804,1.892C15.796,1.888 15.788,1.888 15.78,1.887L-2.562,-2.491L-1.979,-4.942L20.595,-1.597L19.37,2.744ZM5.844,7.821C2.948,7.278 1.386,4.791 1.186,0.428L14.286,3.554C12.96,7.041 9.937,8.591 5.844,7.821M21.134,-3.507L-1.52,-6.864L-0.639,-10.566L22.185,-7.229L21.134,-3.507ZM23.388,-45.59C23.798,-43.616 23.885,-41.816 23.56,-40.735C23.137,-39.342 21.334,-38.723 19.979,-39.039C18.994,-39.272 18.578,-39.884 18.743,-40.857C18.958,-42.131 21.106,-44.009 23.388,-45.59M10.656,-24.87C10.522,-28.344 10.385,-31.938 10.443,-36.562C10.487,-40.427 10.604,-50.692 14.993,-54.285C16.292,-55.344 17.464,-55.456 18.693,-54.634C20.498,-53.425 21.986,-50.529 22.873,-47.604C20.298,-45.907 17.179,-43.428 16.8,-41.185C16.461,-39.186 17.533,-37.592 19.529,-37.123C21.782,-36.594 24.696,-37.691 25.445,-40.164C25.898,-41.663 25.764,-44.137 25.149,-46.739C25.911,-47.207 26.636,-47.612 27.248,-47.918C29.198,-48.898 31.927,-49.608 33.857,-47.428C36.756,-44.143 34.131,-39.588 32.308,-37.169C31.097,-35.567 28.221,-32.434 25.175,-29.117C20.289,-23.796 15.249,-18.308 13.643,-15.578L10.851,-16.289C10.866,-19.318 10.765,-22.022 10.656,-24.87M0.844,-16.797L0.879,-16.787C0.882,-16.786 0.886,-16.786 0.887,-16.784L23.278,-11.098L22.726,-9.14L-0.181,-12.49L0.844,-16.797ZM-3.21,-30.831C-2.723,-30.171 -2.224,-29.492 -1.717,-28.783C0.771,-25.292 0.676,-24.125 0.321,-19.78C0.299,-19.52 0.278,-19.249 0.254,-18.967C0.03,-18.999 -0.197,-18.957 -0.392,-18.84C-0.619,-18.703 -0.781,-18.481 -0.841,-18.225L-4.704,-1.989C-4.832,-1.461 -4.505,-0.929 -3.975,-0.803L-0.802,-0.046C-0.65,7.089 2.672,9.231 5.481,9.759C6.305,9.911 7.098,9.99 7.855,9.99C11.854,9.988 14.859,7.863 16.214,4.014L19.832,4.879C19.909,4.896 19.986,4.906 20.063,4.906C20.494,4.906 20.887,4.621 21.009,4.188L25.45,-11.538C25.522,-11.793 25.487,-12.067 25.354,-12.298C25.225,-12.522 25.011,-12.685 24.76,-12.755C25.121,-13.603 25.571,-14.651 26.388,-15.609C29.157,-18.864 33.146,-20.437 37.367,-22.103C42.414,-24.094 47.633,-26.155 51.183,-31.277C56.54,-39.006 59.436,-51.194 53.831,-61.007C49.001,-69.466 38.705,-75.916 26.961,-77.841C15.824,-79.665 5.52,-77.225 -1.309,-71.146C-9.513,-63.849 -11.972,-54.582 -9.049,-41.98C-7.957,-37.264 -5.756,-34.282 -3.21,-30.831" style="fill:rgb(1,76,144);fill-rule:nonzero;"/>
        </g>
        <g transform="matrix(4.16667,0,0,4.16667,1667.18,117.095)">
            <path d="M0,46.323C1.001,46.323 2.015,46.24 3.026,46.119C9.169,45.378 15.395,38.441 21.985,31.095C29.13,23.135 36.515,14.906 43.646,14.906L43.774,14.906C46.922,14.95 49.834,16.601 52.679,19.954C53.032,20.369 53.653,20.42 54.068,20.068C54.14,20.006 54.197,19.933 54.248,19.856C54.264,19.847 54.282,19.838 54.296,19.826C54.325,19.803 54.351,19.779 54.378,19.755C54.398,19.735 54.418,19.718 54.438,19.698C54.457,19.676 54.473,19.651 54.49,19.627C54.513,19.598 54.534,19.572 54.551,19.542C54.564,19.522 54.572,19.501 54.583,19.479C54.601,19.442 54.621,19.403 54.636,19.363C54.637,19.36 54.639,19.354 54.641,19.352C55.453,16.927 57.941,14.802 61.648,13.365C67.394,11.138 74.63,11.076 78.484,13.22C84.347,16.476 88.738,22.088 92.984,27.513C95.437,30.646 97.971,33.885 100.736,36.583C104.889,40.631 112.731,44.618 119.725,44.618C120.23,44.618 120.732,44.598 121.228,44.553C125.345,44.194 128.583,42.413 130.854,39.26C131.171,38.818 131.071,38.202 130.629,37.885C130.19,37.569 129.573,37.667 129.255,38.11C127.334,40.776 124.577,42.283 121.057,42.592C114.303,43.17 106.253,39.209 102.111,35.171C99.439,32.568 97.058,29.523 94.535,26.299C90.167,20.718 85.652,14.948 79.442,11.499C75.055,9.059 67.273,9.072 60.935,11.529C58.707,12.392 56.855,13.505 55.448,14.796C57.383,9.345 62.57,3.359 65.867,2.026C66.372,1.823 66.616,1.247 66.412,0.744C66.207,0.239 65.637,-0.002 65.13,0.199C60.667,2.003 53.754,10.41 52.824,17.211C52.821,17.21 52.819,17.209 52.817,17.206C52.821,17.103 52.814,16.999 52.784,16.896C51.615,12.789 48.854,10.175 46.184,7.645C44.917,6.446 43.606,5.205 42.502,3.828C42.162,3.405 41.542,3.336 41.117,3.677C40.693,4.017 40.626,4.636 40.966,5.061C42.155,6.544 43.515,7.83 44.829,9.076C46.714,10.861 48.521,12.576 49.759,14.758C47.849,13.576 45.857,12.966 43.802,12.936C43.75,12.935 43.698,12.935 43.646,12.935C35.636,12.935 27.952,21.497 20.52,29.781C14.183,36.842 8.198,43.511 2.789,44.162C-1.952,44.732 -5.367,44.219 -7.739,39.892C-8,39.414 -8.6,39.24 -9.075,39.5C-9.553,39.762 -9.727,40.361 -9.466,40.837C-7.063,45.223 -3.627,46.325 0,46.323" style="fill:rgb(1,76,144);fill-rule:nonzero;"/>
        </g>
        <g transform="matrix(4.16667,0,0,4.16667,1773.91,573.322)">
            <path d="M0,-71.666C0.457,-71.962 0.585,-72.573 0.288,-73.029C-0.008,-73.485 -0.62,-73.614 -1.073,-73.315C-9.936,-67.548 -19.212,-58.076 -25.282,-48.595C-30.425,-40.565 -30.77,-27.387 -26.121,-16.544C-21.812,-6.495 -14.121,0.065 -4.463,1.931C-4.4,1.942 -4.337,1.948 -4.275,1.948C-3.812,1.948 -3.4,1.622 -3.31,1.149C-3.207,0.614 -3.556,0.101 -4.09,-0.005C-13.086,-1.743 -20.267,-7.892 -24.31,-17.319C-28.717,-27.597 -28.436,-40.02 -23.623,-47.531C-17.694,-56.793 -8.643,-66.041 0,-71.666" style="fill:rgb(1,76,144);fill-rule:nonzero;"/>
        </g>
        <g transform="matrix(4.16667,0,0,4.16667,2146.05,464.108)">
            <path d="M0,-36.27C-0.515,-36.442 -1.073,-36.164 -1.246,-35.648C-1.418,-35.131 -1.141,-34.574 -0.623,-34.402C6.644,-31.977 12.379,-29.032 16.743,-22.53C20.537,-16.868 21.714,-6.425 17.549,-1.446C17.201,-1.028 17.255,-0.406 17.672,-0.06C17.857,0.096 18.083,0.172 18.303,0.172C18.586,0.172 18.865,0.051 19.061,-0.182C23.836,-5.891 22.641,-17.267 18.379,-23.627C13.703,-30.594 7.649,-33.719 0,-36.27" style="fill:rgb(1,76,144);fill-rule:nonzero;"/>
        </g>
        <g transform="matrix(4.16667,0,0,4.16667,1915.24,464.244)">
            <path d="M0,14.584C0.676,14.584 1.358,14.543 2.046,14.465C10.141,13.529 17.048,7.244 20.813,1.672C21.119,1.223 20.999,0.609 20.549,0.305C20.099,0 19.485,0.118 19.181,0.569C15.662,5.779 9.252,11.65 1.82,12.506C-2.975,13.059 -7.499,11.412 -11.611,7.604C-12.01,7.232 -12.633,7.258 -13.003,7.658C-13.373,8.055 -13.349,8.68 -12.95,9.049C-8.977,12.725 -4.63,14.584 0,14.584" style="fill:rgb(1,76,144);fill-rule:nonzero;"/>
        </g>
        <g transform="matrix(4.16667,0,0,4.16667,1859.69,449.381)">
            <path d="M0,-11.678C-0.202,-12.185 -0.777,-12.429 -1.279,-12.229C-1.784,-12.028 -2.032,-11.455 -1.83,-10.95C0.227,-5.782 -0.531,-2.165 -2.291,-1.386C-3.87,-0.685 -6.644,-2.14 -9.013,-6.976C-9.252,-7.465 -9.844,-7.666 -10.33,-7.428C-10.819,-7.189 -11.021,-6.598 -10.782,-6.11C-8.28,-1 -5.366,0.751 -3.114,0.751C-2.521,0.751 -1.973,0.628 -1.492,0.416C1.091,-0.73 2.659,-5.003 0,-11.678" style="fill:rgb(1,76,144);fill-rule:nonzero;"/>
        </g>
        <g transform="matrix(4.16667,0,0,4.16667,1980.9,379.52)">
            <path d="M0,9.821C0.765,10.236 1.559,10.444 2.33,10.444C3.136,10.444 3.919,10.216 4.62,9.761C5.896,8.932 7.963,6.603 7.467,0.324C7.424,-0.219 6.934,-0.623 6.408,-0.579C5.865,-0.537 5.461,-0.064 5.503,0.48C5.936,5.939 4.278,7.633 3.547,8.11C2.792,8.599 1.865,8.592 0.94,8.09C-0.539,7.286 -2.266,4.985 -2.263,1.142C-2.263,0.597 -2.704,0.157 -3.248,0.157L-3.249,0.157C-3.792,0.157 -4.233,0.596 -4.233,1.141C-4.236,5.843 -2.048,8.709 0,9.821" style="fill:rgb(1,76,144);fill-rule:nonzero;"/>
        </g>
        <g transform="matrix(4.16667,0,0,4.16667,2375.4,743.961)">
            <path d="M0,58.78C-5.555,63.829 -14.9,64.915 -27.782,62.014C-27.803,60.255 -27.822,58.567 -27.826,57.274C-26.111,56.585 -23.102,55.184 -21.406,53.253C-18.47,49.903 -17.578,44.723 -18.961,39.034C-20.531,32.579 -24.611,27.055 -29.162,25.272C-29.481,25.163 -29.81,25.055 -30.149,24.946C-30.58,12.186 -31.349,-0.923 -32.297,-12.394C-17.939,-4.888 2.399,14.876 5.509,37.88C6.224,43.165 6.458,52.905 0,58.78M-29.154,55.675C-30.913,56.325 -37.064,57.27 -42.702,57.27C-47.33,57.27 -50.585,56.62 -51.634,55.485C-51.885,55.212 -51.984,54.936 -51.957,54.591C-51.737,51.766 -44.324,51.122 -39.893,50.737C-37.769,50.553 -36.092,50.407 -35.062,50.108C-34.573,49.964 -34.273,49.473 -34.372,48.971C-34.463,48.507 -34.871,48.178 -35.336,48.178C-35.371,48.178 -35.406,48.178 -35.44,48.182L-35.922,48.241C-36.335,48.292 -36.829,48.354 -37.259,48.362C-37.69,48.366 -38.534,48.428 -39.644,48.509C-41.837,48.673 -45.155,48.921 -48.277,48.921C-55.125,48.921 -56.027,47.714 -56.138,47.473C-56.269,47.192 -56.01,46.63 -55.45,45.971C-52.757,42.817 -44.688,42.251 -40.352,41.944C-39.15,41.86 -38.2,41.792 -37.589,41.694C-36.575,41.528 -36.585,40.749 -36.597,40.596C-36.674,39.645 -37.479,39.645 -38.595,39.645C-39.06,39.645 -39.627,39.653 -40.184,39.657C-40.711,39.663 -41.228,39.669 -41.631,39.669L-42.48,39.667L-43.706,39.667C-55.949,39.667 -57.494,38.114 -57.677,37.637C-57.757,37.425 -57.49,36.899 -56.711,36.2C-54.105,33.864 -49.128,32.63 -42.316,32.63C-40.926,32.63 -39.771,32.68 -39.024,32.712L-38.439,32.735C-37.91,32.735 -37.468,32.317 -37.448,31.792C-37.419,31.055 -37.913,30.85 -38.481,30.766L-38.501,30.762C-38.661,30.741 -38.827,30.727 -38.987,30.714C-44.842,30.251 -48.838,29.778 -50.861,29.313L-51.076,29.264C-52.516,28.934 -55.198,28.321 -55.797,27.1C-55.869,26.952 -56.086,26.505 -55.661,25.594C-55.117,24.432 -52.322,23.735 -48.188,23.735L-48.026,23.735C-41.899,23.766 -34.591,25.512 -29.837,27.12C-25.961,28.639 -22.277,33.733 -20.875,39.499C-19.646,44.555 -20.378,49.094 -22.886,51.95C-24.573,53.872 -28.111,55.286 -29.154,55.675M-39.326,74.139C-39.362,74.153 -39.399,74.169 -39.435,74.188C-45.79,77.061 -52.713,79.782 -59.894,82.602C-66.452,85.18 -73.218,87.839 -79.8,90.723C-80.832,70.932 -84.807,17.27 -86.413,-0.855C-68.971,-12.005 -48.327,-26.634 -36.719,-34.988C-34.729,-21.493 -32.918,1.903 -32.14,24.344C-36.852,22.993 -42.828,21.794 -48.018,21.766L-48.188,21.766C-53.4,21.766 -56.514,22.772 -57.444,24.762C-57.992,25.93 -58.033,27.007 -57.566,27.964C-56.554,30.034 -53.521,30.725 -51.514,31.186L-51.302,31.233C-51.071,31.288 -50.821,31.339 -50.557,31.389C-53.786,32.055 -56.285,33.173 -58.026,34.735C-59.445,36.005 -59.945,37.219 -59.516,38.342C-58.874,40.022 -56.199,41.001 -50.864,41.409C-53.366,42.089 -55.599,43.112 -56.948,44.692C-58.086,46.03 -58.415,47.241 -57.928,48.298C-57.239,49.79 -55.065,50.591 -50.99,50.819C-52.665,51.618 -53.792,52.76 -53.92,54.436C-53.991,55.327 -53.7,56.153 -53.08,56.823C-51.598,58.426 -48.105,59.239 -42.702,59.239C-38.07,59.239 -32.68,58.594 -29.792,57.905C-29.782,59.43 -29.761,61.352 -29.737,63.272C-29.71,65.509 -29.684,67.747 -29.678,69.354C-32.695,71.018 -35.929,72.598 -39.326,74.139M-86.714,95.979C-90.882,97.077 -95.908,96.04 -98.111,94.393C-99.711,79.706 -101.559,51.852 -103.045,29.428C-103.668,20.03 -104.259,11.118 -104.759,4.235C-103.342,4.696 -101.799,4.919 -100.211,4.919C-96.061,4.919 -91.606,3.407 -88.254,0.704C-86.542,20.438 -82.609,73.786 -81.705,92.034C-82.635,94.446 -84.93,95.512 -86.714,95.979M-151.639,78.21C-151.867,75.747 -152.021,74.196 -152.176,72.964C-152.178,72.942 -152.184,72.915 -152.186,72.895C-152.254,72.366 -152.323,71.895 -152.399,71.434C-150.604,71.774 -148.867,71.843 -147.942,71.85L-147.89,71.85C-144.312,71.85 -128.476,68.288 -125.364,63.475C-124.517,62.163 -124.724,61.034 -125.045,60.319C-125.676,58.923 -127.032,58.118 -129.084,57.919C-125.653,56.464 -123.583,54.966 -123.374,53.272C-123.225,52.075 -123.942,51.018 -125.507,50.128C-126.784,49.395 -128.496,49.026 -130.591,49.026C-131.173,49.026 -131.771,49.055 -132.375,49.104C-127.428,46.885 -125.283,45.083 -125.247,43.28C-125.223,42.077 -126.104,41.104 -127.869,40.389C-129.265,39.827 -130.92,39.54 -132.792,39.54C-133.866,39.54 -134.961,39.63 -136.048,39.786C-135.807,39.643 -135.584,39.505 -135.379,39.376L-135.197,39.26C-133.465,38.145 -130.848,36.466 -130.6,34.176C-130.485,33.118 -130.889,32.118 -131.8,31.204C-133.375,29.622 -136.736,29.772 -141.686,31.587C-147.02,33.542 -152.761,37.139 -156.862,40.221C-157.42,35.989 -158.181,30.604 -158.981,24.94C-159.876,18.62 -160.822,11.923 -161.657,5.663C-161.657,5.645 -161.661,5.628 -161.664,5.61C-162.613,-1.534 -163.416,-8.111 -163.819,-12.915C-161.309,-12.161 -158.629,-11.349 -155.832,-10.503C-140.163,-5.757 -120.729,0.126 -106.787,3.528C-106.273,10.51 -105.66,19.768 -105.011,29.557C-103.48,52.635 -101.753,78.69 -100.179,93.591L-100.874,93.409C-116.763,89.257 -134.749,84.553 -151.639,78.21M-147.637,43.307C-148.153,43.587 -148.401,43.864 -148.274,44.442C-148.177,44.895 -147.775,45.217 -147.313,45.217L-147.31,45.217C-147.184,45.217 -146.977,45.163 -146.86,45.116L-146.456,44.95C-144.395,44.096 -138.126,41.509 -132.792,41.509C-131.174,41.509 -129.767,41.747 -128.608,42.216C-127.64,42.608 -127.211,43.012 -127.216,43.239C-127.23,43.901 -128.533,45.889 -140.323,50.126L-141.304,50.481C-141.705,50.632 -142.338,50.85 -142.987,51.075C-146.026,52.134 -146.208,52.196 -146.061,53.077C-145.981,53.551 -145.544,53.905 -145.063,53.905C-145.006,53.905 -144.896,53.899 -144.736,53.868C-144.126,53.757 -143.212,53.497 -142.054,53.169C-139.001,52.301 -134.388,50.997 -130.591,50.997C-128.843,50.997 -127.459,51.278 -126.484,51.837C-125.721,52.272 -125.29,52.719 -125.328,53.028C-125.527,54.63 -130.634,56.837 -140.51,59.591C-141.572,59.887 -142.381,60.112 -142.786,60.253C-143.199,60.399 -143.697,60.505 -144.105,60.598L-144.548,60.696C-145.044,60.817 -145.368,61.298 -145.291,61.801C-145.215,62.307 -144.757,62.671 -144.256,62.637C-143.183,62.571 -141.558,62.139 -139.498,61.593C-136.552,60.811 -132.885,59.839 -130.16,59.839C-127.423,59.839 -126.986,60.809 -126.842,61.126C-126.718,61.401 -126.626,61.796 -127.019,62.405C-129.511,66.26 -144.298,69.882 -147.891,69.88L-147.891,70.866L-147.925,69.88C-149.04,69.87 -152.852,69.741 -155.083,68.509C-158.409,66.665 -160.64,62.649 -161.198,57.479C-161.839,51.579 -160.1,45.538 -157.006,42.817C-153.044,39.667 -146.761,35.546 -141.008,33.438C-138.584,32.548 -136.533,32.079 -135.075,32.079C-134.181,32.079 -133.53,32.257 -133.195,32.592C-132.487,33.307 -132.54,33.8 -132.558,33.964C-132.705,35.317 -135.017,36.801 -136.262,37.602L-136.444,37.717C-139.022,39.376 -145.035,42.108 -147.011,43.009C-147.234,43.11 -147.432,43.202 -147.603,43.29L-147.639,43.305L-147.637,43.307ZM-170.894,78.704C-176.45,78.175 -181.249,75.456 -183.731,71.432C-187.914,64.637 -186.786,52.401 -184.549,43.987C-181.508,32.581 -168.62,14.682 -163.318,8.081C-162.558,13.716 -161.726,19.612 -160.932,25.217C-160.056,31.425 -159.224,37.294 -158.66,41.673C-162.047,44.987 -163.846,51.331 -163.158,57.692C-162.526,63.507 -159.931,68.077 -156.038,70.229C-155.562,70.493 -155.041,70.712 -154.495,70.897C-154.383,71.483 -154.292,72.024 -154.202,72.667C-158.424,77.05 -164.629,79.301 -170.894,78.704M-135.78,-13.82C-131.544,-15.771 -128.232,-18.574 -125.681,-21.683C-122.803,-15.954 -113.26,-14.47 -106.311,-14.47C-103.884,-14.47 -101.772,-14.652 -100.375,-14.896C-94.619,-15.892 -85.113,-21.031 -82.457,-27.029C-79.05,-25.025 -74.711,-23.57 -69.293,-22.99C-72.79,-19.796 -76.207,-16.706 -79.241,-13.96C-85.385,-8.406 -89.949,-4.279 -91.379,-2.759C-95.286,-2.611 -100.221,-1.374 -103.557,0.167C-107.698,-2.417 -119.837,-7.345 -132.664,-12.552C-133.701,-12.976 -134.742,-13.398 -135.78,-13.82M-118.096,-40.314C-115.222,-39.431 -112.263,-38.995 -109.29,-38.995C-103.719,-38.995 -98.105,-40.525 -92.943,-43.49C-92.542,-38.052 -89.934,-32.216 -84.138,-28.115C-86.262,-22.679 -95.415,-17.753 -100.712,-16.837C-106.524,-15.822 -122.071,-16.308 -124.281,-23.468C-124.285,-23.478 -124.291,-23.488 -124.295,-23.497C-119.939,-29.656 -118.266,-36.55 -118.096,-40.314M-144.714,-87.028C-141.208,-85.9 -136.828,-85.336 -131.533,-85.336C-126.842,-85.336 -121.433,-85.779 -115.281,-86.658C-115.183,-86.673 -115.081,-86.69 -114.98,-86.705C-114.994,-86.64 -115.001,-86.574 -115.001,-86.504L-115.003,-85.414C-115.024,-75.904 -114.72,-67.265 -110.842,-66.043C-110.545,-65.951 -110.24,-65.903 -109.928,-65.903C-107.88,-65.903 -105.503,-67.934 -102.541,-72.187C-102.229,-72.633 -102.34,-73.247 -102.787,-73.558C-103.229,-73.867 -103.847,-73.761 -104.157,-73.312C-107.928,-67.9 -109.675,-67.744 -110.25,-67.923C-113.069,-68.811 -113.043,-80.443 -113.034,-85.41L-113.032,-86.504C-113.032,-86.685 -113.083,-86.852 -113.168,-86.997C-102.649,-88.829 -89.92,-93.438 -80.09,-101.496C-79.83,-100.328 -79.572,-99.091 -79.303,-97.802C-78.961,-96.155 -78.605,-94.447 -78.213,-92.734C-78.207,-92.71 -78.197,-92.687 -78.189,-92.664C-78.181,-92.638 -78.175,-92.616 -78.166,-92.592C-78.15,-92.553 -78.132,-92.516 -78.112,-92.482C-78.103,-92.464 -78.096,-92.446 -78.085,-92.43C-78.054,-92.38 -78.017,-92.332 -77.977,-92.289C-77.967,-92.277 -77.955,-92.268 -77.944,-92.257C-77.911,-92.225 -77.876,-92.195 -77.84,-92.167C-77.833,-92.163 -77.83,-92.158 -77.824,-92.152C-77.81,-92.143 -77.796,-92.139 -77.784,-92.129C-77.75,-92.109 -77.717,-92.089 -77.683,-92.073C-77.66,-92.063 -77.638,-92.052 -77.615,-92.043C-77.582,-92.029 -77.544,-92.017 -77.507,-92.009C-77.486,-92.003 -77.465,-91.995 -77.444,-91.992C-77.402,-91.982 -77.358,-91.978 -77.315,-91.975C-77.299,-91.974 -77.284,-91.972 -77.268,-91.971C-77.263,-91.971 -77.259,-91.97 -77.253,-91.97C-77.236,-91.97 -77.217,-91.975 -77.199,-91.977C-77.151,-91.979 -77.105,-91.984 -77.058,-91.992C-77.05,-91.994 -77.041,-91.994 -77.032,-91.995C-77.01,-92.001 -76.991,-92.01 -76.97,-92.017C-76.939,-92.025 -76.907,-92.035 -76.876,-92.048C-76.845,-92.06 -76.816,-92.077 -76.788,-92.09C-76.76,-92.105 -76.733,-92.12 -76.707,-92.139C-76.68,-92.158 -76.653,-92.178 -76.627,-92.2C-76.604,-92.219 -76.58,-92.238 -76.559,-92.26C-76.534,-92.284 -76.511,-92.312 -76.49,-92.338C-76.476,-92.356 -76.461,-92.368 -76.449,-92.386C-75.188,-94.164 -73.802,-94.941 -72.553,-94.57C-70.957,-94.098 -69.671,-91.863 -69.564,-89.367C-69.418,-85.987 -71.274,-83.053 -74.586,-81.299C-74.584,-81.537 -74.58,-81.771 -74.58,-82.01C-74.579,-82.553 -75.019,-82.997 -75.563,-83C-76.076,-82.951 -76.549,-82.56 -76.55,-82.016C-76.585,-67.852 -79.925,-57.384 -86.479,-50.898C-87.445,-49.943 -88.445,-49.056 -89.473,-48.236C-89.557,-48.189 -89.629,-48.13 -89.693,-48.062C-90.561,-47.384 -91.448,-46.749 -92.352,-46.163C-92.491,-46.113 -92.618,-46.033 -92.719,-45.927C-101.98,-40.095 -112.949,-39.29 -122.264,-44.148C-122.265,-44.148 -122.266,-44.15 -122.266,-44.15C-135.317,-50.958 -142.841,-73.611 -144.714,-87.028M-103.303,2.202C-103.234,2.18 -103.17,2.147 -103.11,2.106C-99.992,0.561 -94.767,-0.761 -90.986,-0.831C-90.962,-0.829 -90.936,-0.824 -90.912,-0.824C-90.885,-0.824 -90.86,-0.829 -90.833,-0.833C-90.379,-0.839 -89.943,-0.825 -89.54,-0.79C-93.536,2.395 -99.384,3.727 -103.798,2.469C-103.641,2.382 -103.475,2.292 -103.303,2.202M-32.493,-14.7C-33.253,-23.503 -34.122,-31.22 -35.017,-36.882C-35.017,-36.894 -35.022,-36.902 -35.024,-36.911C-35.031,-36.949 -35.042,-36.984 -35.052,-37.021C-35.061,-37.048 -35.069,-37.075 -35.081,-37.103C-35.093,-37.134 -35.109,-37.163 -35.124,-37.193C-35.14,-37.22 -35.155,-37.249 -35.174,-37.279C-35.179,-37.286 -35.184,-37.298 -35.19,-37.306C-35.203,-37.324 -35.22,-37.337 -35.233,-37.353C-35.254,-37.378 -35.273,-37.402 -35.296,-37.425C-35.321,-37.449 -35.347,-37.47 -35.373,-37.491C-35.396,-37.513 -35.419,-37.529 -35.445,-37.546C-35.472,-37.566 -35.5,-37.581 -35.529,-37.597C-35.557,-37.613 -35.586,-37.626 -35.615,-37.638C-35.642,-37.648 -35.67,-37.658 -35.696,-37.667C-35.731,-37.677 -35.765,-37.689 -35.8,-37.695C-35.827,-37.7 -35.854,-37.7 -35.881,-37.704C-35.916,-37.708 -35.951,-37.712 -35.987,-37.712C-36.019,-37.712 -36.053,-37.708 -36.086,-37.706C-36.106,-37.704 -36.124,-37.704 -36.144,-37.7C-36.153,-37.7 -36.161,-37.697 -36.171,-37.695C-36.208,-37.689 -36.243,-37.677 -36.28,-37.667C-36.307,-37.658 -36.337,-37.65 -36.362,-37.638C-36.393,-37.626 -36.42,-37.613 -36.448,-37.597C-36.479,-37.579 -36.51,-37.564 -36.54,-37.546C-36.547,-37.538 -36.558,-37.536 -36.566,-37.529C-46.93,-30.05 -65.928,-16.536 -82.958,-5.431L-37.242,-42.433C-36.82,-42.775 -36.753,-43.396 -37.096,-43.818C-37.439,-44.241 -38.06,-44.308 -38.481,-43.964L-82.679,-8.191C-81.204,-9.531 -79.592,-10.986 -77.919,-12.501C-64.897,-24.277 -47.065,-40.404 -42.283,-46.783C-41.957,-47.22 -42.045,-47.835 -42.48,-48.161C-42.916,-48.488 -43.532,-48.402 -43.86,-47.966C-47.154,-43.572 -57.322,-33.958 -67.32,-24.794C-89.094,-26.271 -90.898,-41.183 -91.022,-44.677C-90.167,-45.24 -89.329,-45.843 -88.507,-46.486C-84.099,-47.708 -79.745,-47.556 -75.137,-47.394C-69.387,-47.189 -63.441,-46.982 -57.42,-49.677C-50.909,-52.595 -43.076,-59.255 -40.255,-67.56C-38.649,-72.29 -38.973,-76.963 -41.191,-81.076C-41.45,-81.555 -42.048,-81.733 -42.526,-81.476C-43.004,-81.218 -43.184,-80.62 -42.926,-80.142C-40.946,-76.47 -40.674,-72.452 -42.121,-68.196C-44.736,-60.493 -52.303,-54.13 -58.226,-51.474C-63.83,-48.966 -69.288,-49.159 -75.069,-49.363C-78.478,-49.484 -81.975,-49.605 -85.493,-49.111C-85.359,-49.24 -85.226,-49.368 -85.094,-49.497C-78.622,-55.902 -75.111,-65.847 -74.637,-79.087C-70.022,-81.105 -67.401,-84.941 -67.596,-89.452C-67.744,-92.856 -69.553,-95.739 -71.995,-96.46C-72.997,-96.753 -74.786,-96.875 -76.715,-95.08C-76.944,-96.137 -77.162,-97.182 -77.375,-98.201C-77.724,-99.878 -78.057,-101.465 -78.401,-102.941C-76.268,-104.849 -74.292,-106.929 -72.542,-109.199C-72.209,-109.629 -72.288,-110.246 -72.719,-110.579C-73.148,-110.912 -73.769,-110.831 -74.1,-110.4C-84.24,-97.257 -102.166,-90.526 -115.562,-88.608C-133.021,-86.11 -144.556,-87.252 -149.849,-92.009C-150.253,-92.372 -150.875,-92.338 -151.239,-91.932C-151.603,-91.527 -151.57,-90.905 -151.164,-90.542C-149.964,-89.463 -148.512,-88.553 -146.803,-87.811C-146.802,-87.802 -146.803,-87.796 -146.803,-87.787C-145.193,-74.685 -137.858,-51.704 -124.862,-43.384C-128.969,-41.855 -134.358,-42.06 -139.979,-44.007C-147.73,-46.695 -154.531,-52.197 -156.899,-57.704C-157.112,-58.202 -157.692,-58.435 -158.192,-58.218C-158.692,-58.005 -158.923,-57.425 -158.708,-56.925C-156.094,-50.847 -148.995,-45.046 -140.623,-42.146C-137.226,-40.968 -133.951,-40.38 -130.929,-40.38C-127.885,-40.38 -125.099,-40.978 -122.712,-42.167C-121.836,-41.732 -120.948,-41.339 -120.049,-40.993C-119.996,-35.552 -124.09,-20.236 -138.368,-14.872C-149.727,-19.503 -160.305,-23.929 -163.413,-26.12C-163.857,-26.435 -164.473,-26.327 -164.785,-25.882C-165.098,-25.439 -164.991,-24.824 -164.548,-24.511C-160.737,-21.825 -147.461,-16.433 -133.404,-10.73C-124.181,-6.984 -114.735,-3.15 -108.948,-0.425L-165.691,-21.743C-166.198,-21.937 -166.768,-21.679 -166.959,-21.171C-167.149,-20.659 -166.892,-20.093 -166.384,-19.902L-115.264,-0.695C-127.84,-4.085 -142.752,-8.599 -155.261,-12.388C-158.579,-13.392 -161.731,-14.347 -164.631,-15.218C-164.942,-15.31 -165.277,-15.245 -165.53,-15.042C-165.783,-14.839 -165.919,-14.525 -165.896,-14.2C-165.546,-9.368 -164.701,-2.322 -163.676,5.413C-168.02,10.526 -183.077,30.823 -186.453,43.479C-187.299,46.663 -191.226,63.016 -185.407,72.468C-182.604,77.01 -177.248,80.077 -171.081,80.665C-170.351,80.733 -169.625,80.77 -168.901,80.77C-163.335,80.77 -157.961,78.743 -153.916,75.126C-153.813,76.124 -153.694,77.368 -153.544,79.003C-153.509,79.378 -153.265,79.7 -152.912,79.835C-150.748,80.655 -148.564,81.446 -146.372,82.214C-157.55,100.596 -169.567,147.796 -171.333,168.626C-171.38,169.167 -170.977,169.643 -170.436,169.69C-170.407,169.69 -170.378,169.692 -170.35,169.692C-169.844,169.692 -169.414,169.305 -169.371,168.792C-167.607,147.993 -155.57,100.727 -144.462,82.87C-129.868,87.862 -114.866,91.79 -101.373,95.315L-99.5,95.803C-97.489,97.434 -93.893,98.387 -90.38,98.387C-88.938,98.387 -87.511,98.227 -86.215,97.887C-83.107,97.073 -80.952,95.364 -79.94,92.934C-73.104,89.909 -66.026,87.126 -59.174,84.438C-52.244,81.714 -45.553,79.085 -39.365,76.317C-26.582,96.577 -16.103,135.53 -14.263,150.141C-14.202,150.639 -13.777,151.003 -13.288,151.003C-13.247,151.003 -13.205,151.003 -13.163,150.995C-12.624,150.928 -12.242,150.436 -12.309,149.895C-14.16,135.194 -24.685,96.067 -37.553,75.495C-34.271,73.987 -31.14,72.434 -28.211,70.792C-27.9,70.62 -27.707,70.29 -27.707,69.934C-27.707,68.475 -27.731,66.292 -27.758,64.036C-23.125,65.05 -18.916,65.565 -15.148,65.565C-8.094,65.565 -2.578,63.786 1.325,60.237C8.451,53.759 8.228,43.282 7.46,37.614C3.994,11.977 -18.659,-7.909 -32.493,-14.7" style="fill:rgb(1,76,144);fill-rule:nonzero;"/>
        </g>
    </g>
</svg>
