<?xml version="1.0" encoding="UTF-8" standalone="no"?>
<!DOCTYPE svg PUBLIC "-//W3C//DTD SVG 1.1//EN" "http://www.w3.org/Graphics/SVG/1.1/DTD/svg11.dtd">
<svg width="100%" height="100%" viewBox="0 0 300 308" version="1.1" xmlns="http://www.w3.org/2000/svg" xmlns:xlink="http://www.w3.org/1999/xlink" xml:space="preserve" xmlns:serif="http://www.serif.com/" style="fill-rule:evenodd;clip-rule:evenodd;stroke-linejoin:round;stroke-miterlimit:2;">
    <g transform="matrix(0.282925,0,0,0.282925,36.8301,-136.571)">
        <g transform="matrix(4.16667,0,0,4.16667,781.974,882.014)">
            <path d="M0,-93.284C-0.354,-93.284 -0.71,-93.28 -1.067,-93.27C-19.266,-92.8 -32.692,-89.415 -43.378,-74.018C-53.589,-59.302 -46.946,-41.769 -35.511,-32.742C-35.225,-32.515 -35.085,-32.148 -35.153,-31.788C-35.431,-30.292 -35.688,-28.77 -35.947,-27.239C-37.612,-17.411 -39.323,-7.288 -46.777,-0.568C-36.968,-2.93 -29.073,-11.693 -24.698,-19.75C-24.463,-20.183 -23.943,-20.377 -23.483,-20.201C-18.616,-18.35 -12.503,-17.33 -6.276,-17.33L-6.274,-17.33C1.016,-17.33 7.953,-18.722 12.76,-21.149C31.504,-30.609 36.103,-51.465 32.441,-66.839C29.398,-79.623 19.278,-93.284 0,-93.284M-50.429,1.969C-50.851,1.969 -51.229,1.697 -51.362,1.293C-51.503,0.867 -51.338,0.399 -50.96,0.156C-41.554,-5.907 -39.69,-16.918 -37.89,-27.568C-37.662,-28.912 -37.436,-30.249 -37.196,-31.568C-49.048,-41.256 -55.755,-59.638 -44.997,-75.141C-33.837,-91.221 -19.935,-94.753 -1.118,-95.239C-0.743,-95.249 -0.369,-95.253 0,-95.253C20.424,-95.253 31.139,-80.811 34.359,-67.295C38.191,-51.192 33.346,-29.332 13.647,-19.39C8.576,-16.829 1.313,-15.361 -6.274,-15.361L-6.276,-15.361C-12.4,-15.361 -18.435,-16.318 -23.38,-18.066C-28.651,-8.76 -38.364,1.177 -50.361,1.967C-50.383,1.968 -50.405,1.969 -50.429,1.969" style="fill:rgb(1,76,144);fill-rule:nonzero;"/>
        </g>
        <g transform="matrix(4.16667,0,0,4.16667,689.482,548.363)">
            <path d="M0,45.408C-0.515,45.408 -0.947,45.011 -0.983,44.491C-1.378,38.795 -1.9,32.943 -2.407,27.283C-3.061,19.994 -3.729,12.496 -4.157,5.065C-5.693,8.478 -7.058,11.834 -8.485,15.334C-9.764,18.473 -11.086,21.72 -12.646,25.305C-14.765,30.165 -17.344,32.812 -20.129,33.013C-22.662,33.197 -25.166,31.349 -27.547,27.518C-27.834,27.055 -27.691,26.448 -27.229,26.16C-26.767,25.875 -26.16,26.015 -25.873,26.478C-24.523,28.651 -22.483,31.221 -20.271,31.049C-18.292,30.906 -16.233,28.604 -14.474,24.571C-12.902,20.956 -11.583,17.72 -10.309,14.591C-8.377,9.847 -6.551,5.367 -4.264,0.626C-4.065,0.22 -3.61,0 -3.176,0.088C-2.736,0.18 -2.411,0.559 -2.393,1.01C-2.004,9.684 -1.213,18.541 -0.444,27.106C0.06,32.777 0.584,38.638 0.982,44.354C1.021,44.898 0.613,45.368 0.068,45.406C0.046,45.408 0.021,45.408 0,45.408" style="fill:rgb(1,76,144);fill-rule:nonzero;"/>
        </g>
        <g transform="matrix(4.16667,0,0,4.16667,721.444,530.387)">
            <path d="M0,43.174C-0.502,43.174 -0.93,42.79 -0.978,42.28C-2.055,30.628 -2.722,20.555 -3.312,11.671C-3.558,7.974 -3.792,4.464 -4.035,1.101C-4.077,0.558 -3.668,0.087 -3.126,0.048C-2.607,0 -2.112,0.415 -2.073,0.959C-1.826,4.325 -1.592,7.84 -1.348,11.54C-0.76,20.414 -0.091,30.471 0.982,42.099C1.034,42.64 0.635,43.119 0.094,43.17C0.062,43.173 0.03,43.174 0,43.174" style="fill:rgb(1,76,144);fill-rule:nonzero;"/>
        </g>
        <g transform="matrix(4.16667,0,0,4.16667,817.566,628.97)">
            <path d="M0,15.073C-0.015,15.073 -0.028,15.076 -0.041,15.077C-0.058,15.076 -0.07,15.073 -0.086,15.073C-3.634,15.072 -5.488,11.175 -5.488,7.324C-5.488,3.796 -3.911,0 -0.451,0C-0.438,0 -0.424,-0.005 -0.409,-0.005C-0.394,-0.005 -0.38,0 -0.366,0C3.181,0.001 5.036,3.898 5.036,7.748C5.036,11.277 3.46,15.073 0,15.073M-0.366,-1.97C-0.38,-1.97 -0.394,-1.968 -0.407,-1.966C-0.424,-1.968 -0.438,-1.97 -0.451,-1.97C-5.266,-1.97 -7.457,2.847 -7.457,7.324C-7.457,12.152 -4.926,17.043 -0.086,17.043C-0.07,17.043 -0.058,17.039 -0.041,17.039C-0.028,17.039 -0.015,17.043 0,17.043C4.815,17.043 7.005,12.226 7.005,7.748C7.005,2.92 4.473,-1.97 -0.366,-1.97" style="fill:rgb(1,76,144);fill-rule:nonzero;"/>
        </g>
        <g transform="matrix(4.16667,0,0,4.16667,796.728,639.238)">
            <path d="M0,31.992C-1.565,31.992 -3.11,31.806 -4.569,31.414C-9.442,30.104 -12.31,26.767 -12.647,22.017C-12.687,21.474 -12.278,21.003 -11.734,20.965C-11.2,20.922 -10.72,21.335 -10.683,21.877C-10.33,26.81 -6.886,28.751 -4.059,29.512C2.138,31.176 10.322,28.579 13.462,23.951C18.46,16.578 19.141,9.731 18.616,1.074C18.584,0.531 18.998,0.064 19.54,0.031C20.093,0 20.549,0.413 20.584,0.955C21.132,10.025 20.405,17.222 15.093,25.058C12.221,29.286 5.973,31.992 0,31.992" style="fill:rgb(1,76,144);fill-rule:nonzero;"/>
        </g>
        <g transform="matrix(4.16667,0,0,4.16667,872.343,595.866)">
            <path d="M0,-4.983C-0.673,-4.982 -1.297,-4.722 -1.766,-4.251C-2.234,-3.78 -2.488,-3.155 -2.488,-2.488C-2.485,-1.116 -1.371,-0.001 0,-0.001L0,0.985L0.005,-0.001C1.376,-0.003 2.488,-1.123 2.486,-2.497C2.484,-3.868 1.367,-4.983 0,-4.983M0,1.971C-2.456,1.971 -4.453,-0.028 -4.46,-2.484C-4.461,-3.676 -4.001,-4.796 -3.163,-5.64C-2.323,-6.484 -1.202,-6.951 -0.008,-6.954C2.454,-6.954 4.452,-4.957 4.458,-2.501C4.463,-0.041 2.467,1.965 0.007,1.971L0,1.971Z" style="fill:rgb(1,76,144);fill-rule:nonzero;"/>
        </g>
        <g transform="matrix(4.16667,0,0,4.16667,769.368,616.594)">
            <path d="M0,20.473C-0.504,20.473 -0.935,20.089 -0.98,19.578C-1.01,19.251 -1.024,18.694 -1.04,17.974C-1.118,14.444 -1.325,5.061 -5.263,2.99C-6.949,2.102 -9.308,2.637 -12.267,4.578C-12.722,4.876 -13.331,4.749 -13.632,4.295C-13.93,3.84 -13.804,3.229 -13.348,2.931C-9.746,0.566 -6.717,0 -4.346,1.246C0.619,3.856 0.828,13.362 0.931,17.931C0.944,18.59 0.955,19.098 0.981,19.398C1.031,19.94 0.633,20.418 0.09,20.47C0.061,20.472 0.029,20.473 0,20.473" style="fill:rgb(1,76,144);fill-rule:nonzero;"/>
        </g>
        <g transform="matrix(4.16667,0,0,4.16667,694.722,619.786)">
            <path d="M0,6.578C-0.061,6.578 -0.124,6.573 -0.185,6.56C-5.377,5.574 -12.41,3.982 -16.418,2.005C-16.906,1.765 -17.106,1.175 -16.867,0.687C-16.625,0.199 -16.031,0 -15.547,0.238C-12.532,1.726 -7.092,3.243 0.183,4.626C0.718,4.727 1.067,5.243 0.967,5.778C0.875,6.249 0.463,6.578 0,6.578" style="fill:rgb(1,76,144);fill-rule:nonzero;"/>
        </g>
        <g transform="matrix(4.16667,0,0,4.16667,410.97,1013.56)">
            <path d="M0,14.584C-0.431,14.584 -0.825,14.298 -0.946,13.864C-2.889,6.931 -0.053,2.463 3.401,1.245C6.921,0 11.756,1.712 14.597,8.338C14.812,8.837 14.579,9.417 14.081,9.63C13.582,9.844 13,9.613 12.786,9.114C10.448,3.658 6.718,2.164 4.056,3.103C1.439,4.025 -0.649,7.62 0.952,13.332C1.097,13.855 0.79,14.4 0.267,14.547C0.179,14.572 0.089,14.584 0,14.584" style="fill:rgb(1,76,144);fill-rule:nonzero;"/>
        </g>
        <g transform="matrix(4.16667,0,0,4.16667,308.659,1052.59)">
            <path d="M0,15.033C-0.493,15.033 -0.92,14.66 -0.976,14.158C-1.685,7.909 0.573,2.748 4.642,1.316C8.37,0 12.457,2.149 15.571,7.063C15.862,7.523 15.726,8.131 15.265,8.421C14.808,8.713 14.2,8.579 13.905,8.117C11.32,4.033 8.104,2.188 5.297,3.173C2.647,4.105 0.285,7.796 0.98,13.936C1.042,14.477 0.653,14.965 0.113,15.025C0.073,15.03 0.038,15.033 0,15.033" style="fill:rgb(1,76,144);fill-rule:nonzero;"/>
        </g>
        <g transform="matrix(4.16667,0,0,4.16667,328.589,1195.42)">
            <path d="M0,-80.943C-3.944,-80.943 -7.622,-80.319 -10.361,-79.186C-20.636,-74.924 -24.399,-58.386 -25.003,-49.284C-25.991,-34.398 -22.62,-20.18 -19.572,-9.456C-19.388,-8.799 -19.212,-8.077 -19.031,-7.325C-18.03,-3.173 -17.071,0 -14.646,0C-14.175,0 -13.64,-0.112 -13.056,-0.337C-11.219,-1.042 -10.147,-2.709 -9.014,-4.476C-7.677,-6.554 -6.164,-8.911 -3.169,-9.89C-2.146,-10.226 -1.089,-10.395 -0.029,-10.395C3.069,-10.395 5.838,-8.987 8.516,-7.625C11.055,-6.334 13.454,-5.113 15.987,-5.113C17.901,-5.113 19.743,-5.832 21.622,-7.312C23.146,-8.513 24.278,-10.017 25.479,-11.609C27.286,-14.004 29.153,-16.482 32.427,-17.848C34.192,-18.582 36.204,-18.923 38.762,-18.923C40.104,-18.923 41.466,-18.833 42.779,-18.744C44.462,-18.631 46.042,-18.526 47.574,-18.596C51.172,-18.761 53.415,-19.827 54.434,-21.856C57.95,-28.872 46.428,-45.88 40.888,-54.055C39.688,-55.823 38.743,-57.222 38.121,-58.236C25.244,-79.306 5.688,-80.943 0,-80.943M-14.646,1.971C-18.817,1.971 -19.998,-2.927 -20.946,-6.861C-21.12,-7.588 -21.29,-8.287 -21.468,-8.918C-24.559,-19.794 -27.977,-34.228 -26.968,-49.416C-26.335,-58.969 -22.283,-76.374 -11.116,-81.006C-8.142,-82.236 -4.197,-82.914 0,-82.914C5.944,-82.914 26.391,-81.209 39.804,-59.264C40.399,-58.287 41.382,-56.838 42.519,-55.159C48.708,-46.025 60.229,-29.023 56.192,-20.972C54.847,-18.287 51.977,-16.826 47.664,-16.629C46.034,-16.554 44.309,-16.669 42.649,-16.778C41.364,-16.864 40.038,-16.954 38.762,-16.954C36.474,-16.954 34.7,-16.659 33.185,-16.029C30.404,-14.87 28.776,-12.71 27.052,-10.422C25.827,-8.801 24.565,-7.122 22.841,-5.764C20.602,-4 18.359,-3.143 15.987,-3.143C12.981,-3.143 10.257,-4.529 7.622,-5.868C5.039,-7.183 2.599,-8.424 -0.029,-8.424C-0.894,-8.424 -1.72,-8.293 -2.558,-8.018C-4.888,-7.256 -6.085,-5.388 -7.355,-3.411C-8.612,-1.455 -9.909,0.566 -12.351,1.502C-13.16,1.814 -13.932,1.971 -14.646,1.971" style="fill:rgb(1,76,144);fill-rule:nonzero;"/>
        </g>
        <g transform="matrix(4.16667,0,0,4.16667,236.922,876.647)">
            <path d="M0,22.652C-0.323,22.652 -0.644,22.605 -0.954,22.502C-2.208,22.091 -3.624,20.675 -3.251,16.256C-3.204,15.713 -2.736,15.32 -2.187,15.357C-1.644,15.403 -1.241,15.88 -1.286,16.422C-1.523,19.218 -0.954,20.429 -0.342,20.63C0.708,20.975 3.094,19.387 4.823,16.556C5.585,15.316 6.294,14.266 6.948,13.297C8.577,10.888 9.863,8.985 10.776,5.75C10.908,5.282 11.353,4.981 11.843,5.039C12.324,5.098 12.692,5.498 12.71,5.984C12.832,9.663 14.453,14.62 17.797,17.403C19.773,19.049 22.085,19.69 24.662,19.302C26.334,19.049 27.429,18.36 28.009,17.193C29.554,14.083 27.308,7.856 24.695,3.066C24.271,2.288 24.634,1.851 24.888,1.66C25.202,1.424 25.624,1.397 25.966,1.589C30.499,4.152 40.782,8.69 43.606,6.374C44.762,5.428 44.321,3.155 43.75,1.416C43.581,0.898 43.86,0.341 44.376,0.172C44.898,0 45.452,0.284 45.622,0.8C46.732,4.18 46.476,6.569 44.856,7.897C41.321,10.798 32.321,6.992 27.743,4.738C29.576,8.668 31.583,14.425 29.774,18.068C28.899,19.83 27.278,20.901 24.954,21.25C21.842,21.718 18.931,20.911 16.536,18.917C13.834,16.668 12.121,13.214 11.302,9.926C10.526,11.522 9.619,12.863 8.581,14.4C7.94,15.348 7.248,16.372 6.506,17.585C4.919,20.177 2.332,22.652 0,22.652" style="fill:rgb(1,76,144);fill-rule:nonzero;"/>
        </g>
        <g transform="matrix(4.16667,0,0,4.16667,273.999,1189.93)">
            <path d="M0,50.277C-0.619,50.277 -1.224,50.203 -1.798,50.049C-4.261,49.395 -6.005,47.405 -6.71,44.45C-6.835,43.92 -6.511,43.388 -5.98,43.263C-5.456,43.133 -4.921,43.463 -4.794,43.992C-4.259,46.243 -3.046,47.68 -1.292,48.146C1.002,48.755 3.965,47.659 6.077,45.412C9.756,41.492 8.957,36.065 8.185,30.816L8.125,30.421C7.517,26.303 6.224,22.083 4.976,18.003C3.284,12.48 1.532,6.769 1.38,1.073C1.364,0.529 1.794,0.076 2.337,0.061C2.876,0 3.333,0.477 3.349,1.021C3.495,6.448 5.204,12.029 6.858,17.426C8.129,21.576 9.443,25.867 10.074,30.133L10.134,30.529C10.937,35.974 11.845,42.146 7.513,46.761C5.42,48.986 2.581,50.277 0,50.277" style="fill:rgb(1,76,144);fill-rule:nonzero;"/>
        </g>
        <g transform="matrix(4.16667,0,0,4.16667,448.364,1166.58)">
            <path d="M0,95.455C-0.052,95.455 -0.103,95.451 -0.155,95.443C-0.694,95.357 -1.06,94.852 -0.974,94.316C1.227,80.488 -5.344,70.234 -12.302,59.378C-14.159,56.48 -16.081,53.483 -17.827,50.412C-23.386,40.633 -26.747,29.782 -29.995,19.29C-31.825,13.381 -33.719,7.27 -35.974,1.471C-36.169,0.964 -35.919,0.393 -35.41,0.195C-34.906,0 -34.333,0.251 -34.135,0.756C-31.856,6.622 -29.954,12.765 -28.114,18.706C-24.896,29.101 -21.568,39.846 -16.116,49.438C-14.395,52.464 -12.487,55.438 -10.644,58.316C-3.479,69.496 3.29,80.056 0.972,94.624C0.896,95.109 0.476,95.455 0,95.455" style="fill:rgb(1,76,144);fill-rule:nonzero;"/>
        </g>
        <g transform="matrix(4.16667,0,0,4.16667,488.342,1154.63)">
            <path d="M0,93.526L-0.016,93.526C-0.559,93.517 -0.992,93.07 -0.984,92.525C-0.724,75.584 -8.041,61.998 -15.79,47.611C-16.976,45.411 -18.167,43.199 -19.338,40.961C-20.581,38.589 -21.996,36.102 -23.494,33.467C-29.26,23.324 -35.797,11.829 -35.893,0.995C-35.898,0.451 -35.461,0.006 -34.918,0L-34.908,0C-34.369,0 -33.928,0.436 -33.924,0.977C-33.833,11.299 -27.43,22.56 -21.78,32.495C-20.273,35.142 -18.852,37.644 -17.595,40.047C-16.424,42.279 -15.236,44.484 -14.055,46.678C-6.182,61.296 1.255,75.103 0.986,92.556C0.976,93.094 0.537,93.526 0,93.526" style="fill:rgb(1,76,144);fill-rule:nonzero;"/>
        </g>
        <g transform="matrix(4.16667,0,0,4.16667,606.734,1177.59)">
            <path d="M0,93.919C-0.075,93.919 -0.151,93.912 -0.226,93.894C-0.758,93.77 -1.084,93.24 -0.959,92.71C3.11,75.363 -2.846,60.356 -19.171,46.833C-33.078,35.308 -46.354,21.803 -49.314,1.199C-49.394,0.66 -49.019,0.16 -48.481,0.083C-47.941,0 -47.443,0.378 -47.366,0.918C-44.496,20.862 -31.517,34.043 -17.914,45.315C-0.959,59.363 5.216,75.014 0.956,93.161C0.852,93.614 0.447,93.919 0,93.919" style="fill:rgb(1,76,144);fill-rule:nonzero;"/>
        </g>
        <g transform="matrix(4.16667,0,0,4.16667,671.301,1134.33)">
            <path d="M0,95.452C-0.543,95.452 -0.984,95.011 -0.984,94.467C-0.984,75.338 -8.294,58.405 -23.984,41.173C-25.734,39.252 -27.502,37.363 -29.26,35.483C-39.049,25.021 -48.294,15.141 -53.325,1.45C-53.514,0.94 -53.25,0.373 -52.74,0.186C-52.229,0 -51.663,0.26 -51.475,0.77C-46.582,14.087 -37.471,23.826 -27.823,34.137C-26.058,36.024 -24.285,37.919 -22.528,39.847C-6.486,57.463 0.984,74.818 0.984,94.467C0.984,95.011 0.544,95.452 0,95.452" style="fill:rgb(1,76,144);fill-rule:nonzero;"/>
        </g>
        <g transform="matrix(4.16667,0,0,4.16667,670.097,1118.9)">
            <path d="M0,43.974C-0.196,43.974 -0.391,43.971 -0.587,43.961C-16.424,43.227 -33.424,12.314 -39.01,2.155L-39.316,1.599C-39.58,1.121 -39.406,0.523 -38.93,0.26C-38.453,0 -37.855,0.17 -37.592,0.648L-37.285,1.205C-31.83,11.125 -15.229,41.31 -0.497,41.993C3.746,42.189 7.585,39.795 10.914,34.879C11.219,34.43 11.832,34.314 12.283,34.617C12.732,34.922 12.85,35.535 12.545,35.985C8.95,41.289 4.732,43.974 0,43.974" style="fill:rgb(1,76,144);fill-rule:nonzero;"/>
        </g>
        <g transform="matrix(4.16667,0,0,4.16667,670.357,1131.7)">
            <path d="M0,13.887C-11.59,13.887 -24.036,5.932 -31.137,-2.034C-31.498,-2.441 -31.463,-3.062 -31.057,-3.426C-30.65,-3.787 -30.029,-3.75 -29.667,-3.345C-20.332,7.129 -1.402,17.674 11.456,8.326C11.897,8.003 12.512,8.103 12.833,8.543C13.152,8.983 13.056,9.599 12.615,9.918C8.771,12.714 4.446,13.887 0,13.887" style="fill:rgb(1,76,144);fill-rule:nonzero;"/>
        </g>
        <g transform="matrix(4.16667,0,0,4.16667,25.7811,508.092)">
            <path d="M0,7.995C-2.894,7.995 -5.786,6.894 -7.989,4.692C-9.739,2.941 -12.079,1.976 -14.576,1.976C-17.075,1.976 -19.417,2.943 -21.169,4.693C-23.292,6.817 -26.127,7.988 -29.153,7.988C-32.179,7.988 -35.015,6.817 -37.141,4.692C-37.526,4.308 -37.526,3.684 -37.141,3.3C-36.756,2.915 -36.133,2.915 -35.748,3.3C-33.994,5.052 -31.652,6.018 -29.153,6.018C-26.653,6.018 -24.313,5.053 -22.563,3.3C-20.438,1.177 -17.601,0.008 -14.576,0.008C-11.552,0.008 -8.717,1.177 -6.596,3.3C-2.96,6.935 2.958,6.935 6.595,3.3C10.999,-1.101 18.166,-1.101 22.571,3.3C26.208,6.935 32.124,6.934 35.763,3.3C40.163,-1.1 47.323,-1.1 51.727,3.3C55.364,6.933 61.28,6.935 64.913,3.3C66.565,1.654 68.65,0.574 70.944,0.176C71.476,0.079 71.992,0.442 72.083,0.978C72.178,1.514 71.817,2.024 71.282,2.117C69.39,2.446 67.667,3.336 66.304,4.693C61.906,9.095 54.74,9.095 50.334,4.693C46.699,1.061 40.787,1.062 37.153,4.692C32.75,9.095 25.583,9.096 21.181,4.692C17.542,1.059 11.624,1.057 7.987,4.692C5.785,6.894 2.892,7.995 0,7.995" style="fill:rgb(1,76,144);fill-rule:nonzero;"/>
        </g>
        <g transform="matrix(4.16667,0,0,4.16667,128.174,587.396)">
            <path d="M0,7.998C-2.893,7.998 -5.784,6.897 -7.985,4.695C-11.621,1.059 -17.541,1.059 -21.181,4.695C-23.304,6.82 -26.136,7.991 -29.161,7.991C-32.185,7.991 -35.022,6.82 -37.149,4.696C-37.535,4.312 -37.535,3.689 -37.149,3.303C-36.767,2.917 -36.142,2.918 -35.759,3.303C-34.003,5.055 -31.66,6.022 -29.161,6.022C-26.663,6.022 -24.324,5.056 -22.573,3.303C-18.165,-1.102 -10.996,-1.102 -6.593,3.303C-2.958,6.938 2.958,6.936 6.593,3.303C8.717,1.179 11.553,0.007 14.578,0.007C17.602,0.007 20.438,1.179 22.564,3.303C26.197,6.938 32.114,6.936 35.749,3.303C36.134,2.918 36.758,2.918 37.143,3.303C37.527,3.687 37.527,4.312 37.143,4.695C32.735,9.1 25.571,9.097 21.171,4.695C19.418,2.941 17.077,1.978 14.578,1.978C12.08,1.978 9.737,2.941 7.985,4.695C5.784,6.897 2.893,7.998 0,7.998" style="fill:rgb(1,76,144);fill-rule:nonzero;"/>
        </g>
    </g>
</svg>
