<?xml version="1.0" encoding="UTF-8" standalone="no"?>
<!DOCTYPE svg PUBLIC "-//W3C//DTD SVG 1.1//EN" "http://www.w3.org/Graphics/SVG/1.1/DTD/svg11.dtd">
<svg width="100%" height="100%" viewBox="0 0 800 206" version="1.1" xmlns="http://www.w3.org/2000/svg" xmlns:xlink="http://www.w3.org/1999/xlink" xml:space="preserve" xmlns:serif="http://www.serif.com/" style="fill-rule:evenodd;clip-rule:evenodd;stroke-linejoin:round;stroke-miterlimit:2;">
    <g transform="matrix(0.480157,0,0,0.480157,207.937,-112.139)">
        <g transform="matrix(4.16667,0,0,4.16667,70.2173,283.525)">
            <path d="M0,21.826C-6.969,28.445 -24.819,26.799 -39.201,23.052C-59.796,17.68 -71.607,10.863 -70.792,4.819C-69.868,-2.037 -61.325,-2.601 -52.88,-2.295C-53.795,-1.049 -54.596,0.295 -55.266,1.723C-57.336,2.266 -59.853,3.227 -59.804,5.287C-59.671,10.811 -36.132,16.561 -35.894,16.608C-27.415,18.281 -20.812,19.117 -16.114,19.117C-11.104,19.117 -8.258,18.166 -7.612,16.267C-7,14.458 -8.608,12.601 -10.522,11.487C-10.519,10.303 -10.604,9.126 -10.777,7.964C-4.985,10.505 0.994,14.273 1.664,17.842C1.921,19.215 1.376,20.518 0,21.826M-37.87,32.625C-44.667,31.376 -50.457,26.886 -53.409,20.706C-48.642,22.475 -43.749,23.901 -39.697,24.958C-36.145,25.886 -28.469,27.668 -20.448,28.173C-25.304,32.108 -31.657,33.764 -37.87,32.625M-57.834,5.24C-57.839,5.028 -57.465,4.58 -56.227,4.097C-56.498,4.885 -56.729,5.696 -56.921,6.525C-57.495,6.057 -57.824,5.622 -57.834,5.24M-30.115,-9.677C-24.465,-8.641 -19.558,-5.469 -16.295,-0.74C-13.033,3.987 -11.808,9.701 -12.844,15.345C-12.945,15.89 -13.059,16.427 -13.199,16.953C-13.204,16.97 -13.204,16.987 -13.208,17.005C-16.615,17.372 -23.119,17.12 -35.513,14.675C-38.927,14.002 -49.997,10.551 -55.15,7.682C-52.841,-4.024 -41.675,-11.796 -30.115,-9.677M-10.641,13.783C-9.775,14.479 -9.337,15.218 -9.478,15.634C-9.498,15.691 -9.711,16.201 -11.09,16.612C-11.025,16.312 -10.963,16.011 -10.906,15.706C-10.789,15.065 -10.705,14.424 -10.641,13.783M-11.253,5.622C-11.934,2.981 -13.079,0.451 -14.674,-1.859C-18.236,-7.02 -23.593,-10.485 -29.758,-11.614C-37.987,-13.122 -46.025,-10.051 -51.324,-4.201C-58.942,-4.558 -71.446,-5.067 -72.745,4.557C-73.585,10.79 -65.382,15.928 -55.967,19.719C-53.076,27.402 -46.302,33.078 -38.225,34.562C-36.815,34.821 -35.399,34.948 -33.991,34.948C-27.933,34.948 -22.052,32.593 -17.626,28.293C-17.181,28.303 -16.735,28.31 -16.29,28.31C-9.367,28.31 -2.674,27.082 1.358,23.254C3.229,21.475 3.983,19.531 3.598,17.478C2.545,11.861 -7.092,7.331 -11.253,5.622" style="fill:rgb(1,76,144);fill-rule:nonzero;"/>
        </g>
        <g transform="matrix(4.16667,0,0,4.16667,176.673,583.03)">
            <path d="M0,3.872L-4.774,2.021L-1.575,-2.44C-1.258,-2.882 -1.358,-3.497 -1.801,-3.814C-2.245,-4.132 -2.857,-4.029 -3.176,-3.587L-5.61,-0.191L-6.711,-4.436C-6.846,-4.961 -7.382,-5.276 -7.911,-5.142C-8.439,-5.006 -8.755,-4.467 -8.619,-3.941L-7.33,1.028L-11.081,-0.429C-11.589,-0.625 -12.159,-0.373 -12.355,0.134C-12.552,0.642 -12.301,1.211 -11.794,1.409L-7.853,2.938L-10.503,6.63C-10.82,7.071 -10.718,7.687 -10.277,8.004C-10.101,8.13 -9.901,8.189 -9.702,8.189C-9.396,8.189 -9.095,8.045 -8.901,7.777L-6.462,4.376L-5.417,8.41C-5.301,8.853 -4.902,9.148 -4.463,9.148C-4.383,9.148 -4.3,9.137 -4.217,9.116C-3.69,8.981 -3.374,8.442 -3.509,7.916L-4.458,4.255L-0.713,5.708C-0.594,5.754 -0.475,5.775 -0.357,5.775C0.037,5.775 0.411,5.537 0.561,5.147C0.759,4.639 0.508,4.07 0,3.872" style="fill:rgb(1,76,144);fill-rule:nonzero;"/>
        </g>
        <g transform="matrix(4.16667,0,0,4.16667,-362.471,430.768)">
            <path d="M0,-9.217L-7.328,-5.513L-6.773,-12.625C-6.73,-13.166 -7.136,-13.641 -7.678,-13.683C-8.208,-13.73 -8.694,-13.32 -8.736,-12.778L-9.31,-5.425L-15.361,-10.013C-15.795,-10.342 -16.414,-10.259 -16.741,-9.825C-17.07,-9.391 -16.986,-8.774 -16.551,-8.444L-10.544,-3.889L-16.402,-0.931C-16.886,-0.684 -17.08,-0.092 -16.836,0.394C-16.663,0.737 -16.316,0.934 -15.955,0.934C-15.806,0.934 -15.655,0.901 -15.512,0.828L-9.564,-2.177L-10.002,3.451C-10.044,3.995 -9.639,4.468 -9.098,4.511C-9.071,4.513 -9.044,4.513 -9.019,4.513C-8.51,4.513 -8.079,4.122 -8.04,3.604L-7.627,-1.677L-2.674,2.077C-2.497,2.212 -2.289,2.277 -2.081,2.277C-1.783,2.277 -1.489,2.142 -1.294,1.887C-0.966,1.454 -1.051,0.837 -1.485,0.507L-6.84,-3.552L0.888,-7.458C1.375,-7.703 1.568,-8.295 1.324,-8.78C1.078,-9.267 0.486,-9.463 0,-9.217" style="fill:rgb(1,76,144);fill-rule:nonzero;"/>
        </g>
        <g transform="matrix(4.16667,0,0,4.16667,1001.11,389.026)">
            <path d="M0,-5.483L-4.048,-4.247L-3.014,-7.634C-2.856,-8.155 -3.148,-8.704 -3.668,-8.863C-4.19,-9.023 -4.742,-8.727 -4.899,-8.208L-6.125,-4.185L-8.968,-7.138C-9.346,-7.53 -9.97,-7.541 -10.361,-7.166C-10.753,-6.787 -10.765,-6.165 -10.389,-5.774L-7.809,-3.095L-11.637,-1.922C-12.156,-1.764 -12.448,-1.213 -12.288,-0.694C-12.161,-0.269 -11.769,0.005 -11.348,0.005C-11.253,0.005 -11.156,-0.009 -11.059,-0.039L-7.01,-1.277L-8.091,2.268C-8.25,2.789 -7.957,3.339 -7.435,3.497C-7.34,3.528 -7.243,3.54 -7.147,3.54C-6.726,3.54 -6.336,3.268 -6.208,2.842L-5.218,-0.402L-2.233,2.698C-2.041,2.898 -1.783,3.001 -1.524,3.001C-1.277,3.001 -1.032,2.909 -0.84,2.725C-0.449,2.347 -0.438,1.723 -0.815,1.331L-4.165,-2.149L0.575,-3.6C1.096,-3.758 1.389,-4.308 1.229,-4.83C1.069,-5.349 0.515,-5.644 0,-5.483" style="fill:rgb(1,76,144);fill-rule:nonzero;"/>
        </g>
        <g transform="matrix(4.16667,0,0,4.16667,1229.65,524.994)">
            <path d="M0,2.895L-7.337,1.643L-2.641,-3.534C-2.277,-3.937 -2.307,-4.559 -2.71,-4.924C-3.111,-5.29 -3.736,-5.26 -4.102,-4.856L-8.823,0.348L-11.609,-5.723C-11.837,-6.216 -12.418,-6.432 -12.916,-6.208C-13.41,-5.981 -13.627,-5.396 -13.399,-4.901L-10.658,1.076L-17.044,-0.015C-17.58,-0.105 -18.089,0.254 -18.18,0.791C-18.271,1.327 -17.911,1.835 -17.376,1.928L-11.21,2.978L-15.478,7.682C-15.842,8.083 -15.81,8.708 -15.409,9.074C-15.219,9.245 -14.982,9.327 -14.746,9.327C-14.479,9.327 -14.211,9.22 -14.016,9.005L-9.37,3.882L-7.133,8.755C-6.968,9.115 -6.611,9.327 -6.237,9.327C-6.102,9.327 -5.961,9.299 -5.827,9.239C-5.333,9.011 -5.117,8.427 -5.343,7.933L-7.311,3.646L-0.331,4.837C-0.273,4.846 -0.218,4.852 -0.162,4.852C0.307,4.852 0.725,4.512 0.804,4.032C0.898,3.496 0.537,2.987 0,2.895" style="fill:rgb(1,76,144);fill-rule:nonzero;"/>
        </g>
        <g transform="matrix(4.16667,0,0,4.16667,867.969,598.755)">
            <path d="M0,2.898L-7.334,1.643L-2.642,-3.532C-2.278,-3.934 -2.308,-4.557 -2.711,-4.923C-3.112,-5.288 -3.736,-5.258 -4.103,-4.855L-8.825,0.353L-11.611,-5.723C-11.838,-6.215 -12.419,-6.433 -12.917,-6.206C-13.412,-5.978 -13.628,-5.395 -13.401,-4.899L-10.66,1.075L-17.042,-0.017C-17.577,-0.111 -18.087,0.252 -18.179,0.788C-18.271,1.323 -17.91,1.832 -17.374,1.925L-11.207,2.98L-15.471,7.685C-15.837,8.086 -15.807,8.711 -15.403,9.076C-15.215,9.247 -14.979,9.331 -14.743,9.331C-14.474,9.331 -14.207,9.222 -14.012,9.008L-9.37,3.886L-7.136,8.757C-6.971,9.118 -6.612,9.331 -6.24,9.331C-6.103,9.331 -5.962,9.303 -5.828,9.241C-5.334,9.015 -5.118,8.428 -5.345,7.935L-7.313,3.646L-0.333,4.84C-0.276,4.85 -0.22,4.854 -0.164,4.854C0.306,4.854 0.723,4.515 0.805,4.034C0.895,3.499 0.536,2.989 0,2.898" style="fill:rgb(1,76,144);fill-rule:nonzero;"/>
        </g>
        <g transform="matrix(4.16667,0,0,4.16667,-144.279,596.814)">
            <path d="M0,1.645L-4.915,0.805L-1.792,-2.638C-1.426,-3.041 -1.456,-3.664 -1.86,-4.029C-2.261,-4.393 -2.884,-4.365 -3.251,-3.962L-6.447,-0.439L-8.325,-4.53C-8.551,-5.022 -9.134,-5.238 -9.631,-5.014C-10.125,-4.787 -10.343,-4.201 -10.116,-3.707L-8.311,0.225L-12.504,-0.492C-13.046,-0.587 -13.551,-0.223 -13.642,0.312C-13.734,0.85 -13.373,1.357 -12.836,1.45L-8.789,2.142L-11.595,5.236C-11.96,5.639 -11.929,6.261 -11.526,6.629C-11.338,6.797 -11.102,6.883 -10.865,6.883C-10.598,6.883 -10.33,6.774 -10.135,6.56L-6.993,3.096L-5.519,6.31C-5.353,6.67 -4.996,6.883 -4.623,6.883C-4.485,6.883 -4.346,6.855 -4.212,6.794C-3.718,6.567 -3.501,5.981 -3.729,5.488L-4.963,2.795L-0.333,3.585C-0.277,3.595 -0.221,3.599 -0.165,3.599C0.306,3.599 0.722,3.26 0.803,2.781C0.895,2.244 0.536,1.736 0,1.645" style="fill:rgb(1,76,144);fill-rule:nonzero;"/>
        </g>
        <g transform="matrix(4.16667,0,0,4.16667,448.483,283.634)">
            <path d="M0,88.543C-13.599,88.543 -25.784,82.379 -33.914,72.701C-33.929,72.641 -33.951,72.58 -33.979,72.522C-35.002,70.384 -34.933,66.781 -33.821,64.322C-33.582,63.796 -33.34,63.375 -33.125,62.994C-32.432,61.772 -31.832,60.714 -32.362,58.405C-32.476,57.92 -32.608,57.474 -32.734,57.05C-33.19,55.517 -33.443,54.67 -32.404,53.275C-31.622,52.218 -30.498,51.352 -29.307,50.435C-26.782,48.49 -23.92,46.289 -24.476,41.86C-24.693,40.076 -26.419,36.892 -28.054,35.855C-29.019,35.246 -29.969,35.047 -30.808,34.871C-31.959,34.63 -32.791,34.457 -33.605,33.388C-34.065,32.783 -34.151,31.853 -34.241,30.867C-34.356,29.589 -34.477,28.267 -35.482,27.392C-36.5,26.505 -37.792,26.623 -38.833,26.716C-39.798,26.804 -40.278,26.803 -40.586,26.582C-39.256,23.54 -37.594,20.677 -35.645,18.038C-34.125,17.876 -32.886,17.077 -31.868,16.418C-31.14,15.947 -30.452,15.501 -29.948,15.48C-29.497,15.46 -29.076,15.472 -28.671,15.481C-27.205,15.517 -25.688,15.553 -24.075,14.213C-23.53,13.762 -23.271,13.195 -23.043,12.695C-22.871,12.319 -22.724,11.994 -22.497,11.802C-22.388,11.726 -21.989,11.621 -21.752,11.557C-21.052,11.371 -20.328,11.177 -19.989,10.557C-19.086,8.941 -20.134,7.764 -20.828,6.982C-21.331,6.418 -21.612,6.058 -21.671,5.676C-18.693,4 -15.505,2.652 -12.153,1.694C-12.342,1.849 -12.564,2.016 -12.82,2.205C-13.959,3.042 -15.521,4.188 -14.908,6.148C-14.625,7.045 -14.131,7.634 -13.44,7.9C-12.147,8.394 -10.729,7.556 -9.355,6.745C-8.655,6.331 -7.783,5.814 -7.356,5.801C-6.362,5.765 -5.893,6.351 -5.11,7.376C-4.365,8.352 -3.446,9.556 -1.746,9.556C-1.669,9.556 -1.593,9.553 -1.513,9.548C-0.473,9.477 0.187,8.865 0.716,8.37C1.049,8.059 1.339,7.79 1.665,7.699C2.074,7.581 2.433,7.706 2.986,7.92C3.492,8.116 4.063,8.335 4.733,8.251C6.028,8.087 6.729,7.413 7.293,6.871C7.693,6.486 8.009,6.183 8.517,6.023C8.647,5.997 9.029,6.08 9.285,6.135C10.134,6.319 11.902,6.699 12.603,4.885C12.889,4.138 12.746,3.576 12.578,3.235C12.119,2.32 11.037,2.016 10.083,1.746C9.687,1.632 9.139,1.478 8.976,1.346C8.749,1.158 8.5,0.966 8.246,0.773C14.292,1.917 19.908,4.292 24.819,7.629C24.833,8.429 24.511,8.491 23.26,8.725C23.139,8.749 22.829,8.703 22.601,8.67C22.182,8.606 21.704,8.535 21.213,8.619C20.694,8.714 20.285,9 19.984,9.209C19.892,9.273 19.807,9.343 19.813,9.355C18.586,9.528 17.59,8.963 16.434,8.312C15.184,7.605 13.767,6.804 11.911,6.956C11.458,6.991 11.089,7.333 11.018,7.781C10.764,9.356 12.009,10.321 12.919,11.022C13.228,11.259 13.866,11.755 13.888,11.944C13.888,11.946 13.875,12.086 13.581,12.391C13.162,12.826 12.389,12.716 11.167,12.484C9.73,12.21 7.561,11.798 6.556,13.952C5.895,15.376 6.486,17.561 7.258,19.131C7.671,19.967 8.796,21.952 10.329,22.297C12.167,22.707 13.548,21.34 14.763,20.132C15.534,19.365 16.335,18.569 17.056,18.433C18.706,18.124 25.383,19.2 27.788,21.206C28.275,21.611 28.522,22.001 28.52,22.345C28.375,22.987 25.395,24.164 23.763,24.223C21.931,24.283 20.15,23.833 18.271,23.353L17.233,23.09C15.813,22.738 14.438,23.009 13.109,23.272C12.185,23.455 11.31,23.623 10.48,23.583C9.714,23.539 8.903,23.304 8.046,23.057C6.493,22.61 4.729,22.103 2.961,22.773C-1.615,24.52 -5.38,31.423 -5.25,35.847C-5.157,38.97 -4.447,42.991 -1.604,44.416C-0.305,45.062 1.302,45.121 2.856,45.179C4.052,45.222 5.288,45.269 6.226,45.593C8.162,46.266 8.573,46.855 8.823,49.302C9.103,52.062 8.436,52.877 6.305,54.679C4.484,56.214 3.014,57.813 1.458,59.503L0.501,60.539C-1.934,63.157 -2.049,64.77 -2.282,67.984L-2.31,68.357C-2.375,69.277 -2.819,70.447 -3.246,71.578C-3.798,73.041 -4.371,74.556 -4.269,75.865C-4.048,78.697 -0.651,79.007 1.679,79.221C2.009,79.252 2.326,79.268 2.635,79.268C5.048,79.268 6.842,78.362 8.727,77.412C9.205,77.169 9.7,76.918 10.225,76.675C11.462,76.095 12.76,75.594 14.015,75.108C15.789,74.424 17.622,73.714 19.375,72.757C20.582,72.101 21.778,71.796 23.045,71.476C24.643,71.073 26.294,70.653 27.972,69.501C29.81,68.238 30.908,66.215 31.971,64.258C32.867,62.608 33.713,61.053 34.926,60.026C35.526,59.519 36.18,59.039 36.836,58.558C38.663,57.216 40.551,55.829 41.51,53.787C42.761,51.132 41.728,48.893 40.815,46.92C40.427,46.075 40.024,45.201 39.789,44.307C39.26,42.283 37.701,40.481 36.195,38.738C33.721,35.878 32.678,34.371 33.801,32.922C34.045,32.606 34.299,32.421 34.422,32.434C35.373,32.565 36.786,36.06 37.317,37.375C37.542,37.931 37.742,38.421 37.913,38.788C38.67,40.394 42.15,43.375 44.157,43.824C44.194,43.832 44.228,43.836 44.264,43.842C44.265,43.986 44.269,44.128 44.269,44.273C44.269,68.685 24.411,88.543 0,88.543M-41.341,28.418C-40.47,28.84 -39.463,28.752 -38.655,28.679C-37.725,28.593 -37.136,28.564 -36.776,28.878C-36.366,29.233 -36.286,30.114 -36.202,31.045C-36.096,32.208 -35.977,33.526 -35.172,34.581C-33.912,36.235 -32.477,36.534 -31.212,36.798C-30.469,36.954 -29.769,37.1 -29.107,37.52C-28.042,38.193 -26.582,40.866 -26.432,42.102C-26.016,45.416 -28.098,47.017 -30.509,48.875C-31.753,49.834 -33.042,50.825 -33.986,52.1C-35.613,54.287 -35.109,55.978 -34.622,57.613C-34.507,58 -34.385,58.408 -34.283,58.849C-33.923,60.41 -34.21,60.914 -34.838,62.022C-35.08,62.446 -35.348,62.919 -35.615,63.509C-36.353,65.141 -36.701,67.154 -36.661,69.074C-41.467,61.994 -44.281,53.456 -44.281,44.273C-44.281,38.689 -43.237,33.344 -41.341,28.418M-23.409,6.709C-23.134,7.35 -22.679,7.864 -22.3,8.29C-21.664,9.005 -21.551,9.216 -21.649,9.471C-21.797,9.531 -22.068,9.603 -22.26,9.655C-22.802,9.799 -23.364,9.948 -23.764,10.293C-24.333,10.778 -24.611,11.386 -24.835,11.876C-24.997,12.228 -25.136,12.533 -25.333,12.697C-26.38,13.567 -27.272,13.542 -28.624,13.512C-29.073,13.501 -29.539,13.489 -30.034,13.512C-31.075,13.557 -31.98,14.143 -32.939,14.764C-32.971,14.786 -33.003,14.806 -33.035,14.828C-30.234,11.688 -26.993,8.949 -23.409,6.709M4.52,0.228C5.158,0.895 5.959,1.506 6.741,2.101C7.085,2.363 7.422,2.621 7.729,2.873C8.211,3.264 8.891,3.456 9.547,3.641C9.945,3.754 10.685,3.962 10.765,4.176C10.721,4.287 10.688,4.317 10.687,4.317C10.563,4.398 9.98,4.271 9.7,4.211C9.119,4.084 8.516,3.954 7.93,4.142C6.977,4.443 6.395,5.002 5.928,5.451C5.449,5.911 5.132,6.215 4.486,6.297C4.319,6.324 4.012,6.204 3.696,6.082C3.057,5.835 2.181,5.496 1.124,5.805C0.346,6.023 -0.194,6.526 -0.628,6.929C-1.061,7.333 -1.321,7.561 -1.642,7.584C-2.365,7.619 -2.757,7.212 -3.545,6.182C-4.321,5.163 -5.39,3.777 -7.414,3.833C-8.349,3.86 -9.325,4.438 -10.359,5.049C-11.097,5.486 -12.33,6.215 -12.736,6.061C-12.806,6.033 -12.925,5.885 -13.027,5.558C-13.193,5.033 -12.83,4.655 -11.654,3.793C-10.768,3.141 -9.62,2.296 -9.434,1.013C-6.393,0.351 -3.236,0.001 0,0.001C1.526,0.001 3.034,0.076 4.52,0.228M44.199,41.793C42.861,41.23 40.217,39.054 39.694,37.951C39.537,37.612 39.353,37.156 39.145,36.637C37.846,33.426 36.615,30.748 34.691,30.481C34.076,30.399 33.152,30.542 32.243,31.716C30.011,34.6 32.505,37.483 34.705,40.026C36.065,41.6 37.471,43.226 37.884,44.805C38.163,45.87 38.601,46.822 39.028,47.744C39.899,49.633 40.587,51.124 39.728,52.949C38.98,54.538 37.372,55.719 35.669,56.97C34.978,57.479 34.288,57.987 33.654,58.522C32.159,59.785 31.183,61.582 30.241,63.317C29.245,65.151 28.304,66.884 26.857,67.878C25.47,68.831 24.057,69.188 22.562,69.567C21.233,69.903 19.856,70.251 18.432,71.029C16.792,71.924 15.098,72.579 13.304,73.271C12.018,73.769 10.688,74.281 9.388,74.891C8.848,75.143 8.336,75.401 7.838,75.651C5.813,76.675 4.208,77.484 1.778,77.251C-0.242,77.067 -2.221,76.797 -2.306,75.713C-2.373,74.84 -1.88,73.536 -1.403,72.274C-0.926,71.012 -0.432,69.707 -0.344,68.501L-0.317,68.126C-0.088,64.949 -0.018,63.99 1.944,61.881L2.909,60.837C4.42,59.192 5.849,57.641 7.576,56.184C9.824,54.283 11.163,52.856 10.783,49.103C10.497,46.286 9.838,44.762 6.872,43.733C5.654,43.31 4.269,43.26 2.928,43.21C1.522,43.158 0.192,43.11 -0.724,42.654C-2.24,41.893 -3.172,39.391 -3.282,35.789C-3.389,32.109 -0.039,26.027 3.664,24.614C4.814,24.177 6.12,24.554 7.5,24.95C8.425,25.217 9.381,25.492 10.372,25.549C11.453,25.602 12.488,25.402 13.49,25.204C14.658,24.975 15.762,24.758 16.761,25.004L17.787,25.262C19.714,25.753 21.699,26.257 23.833,26.19C25.001,26.147 30.46,25.019 30.489,22.37C30.495,21.394 30.01,20.493 29.051,19.692C25.991,17.142 18.716,16.117 16.693,16.498C15.375,16.745 14.358,17.756 13.373,18.736C12.271,19.833 11.488,20.543 10.76,20.375C10.459,20.308 9.721,19.673 9.026,18.261C8.258,16.7 8.101,15.303 8.342,14.782C8.635,14.155 9.07,14.093 10.797,14.418C12.14,14.675 13.812,14.993 14.999,13.758C15.613,13.124 15.9,12.465 15.852,11.802C15.774,10.74 14.898,10.062 14.124,9.464C13.991,9.361 13.867,9.263 13.752,9.172C14.32,9.38 14.873,9.691 15.466,10.027C16.748,10.751 18.203,11.565 20.076,11.308C20.497,11.253 20.824,11.025 21.113,10.823C21.254,10.724 21.468,10.575 21.551,10.561C21.724,10.53 22.036,10.577 22.314,10.617C22.743,10.682 23.188,10.75 23.631,10.659C24.638,10.471 26.026,10.208 26.56,8.875C36.687,16.495 43.453,28.353 44.199,41.793M46.2,42.462C45.313,19.509 27.618,0.797 5.105,-1.688C5.089,-1.689 5.073,-1.693 5.059,-1.694C3.397,-1.874 1.71,-1.97 0,-1.97C-3.66,-1.97 -7.221,-1.541 -10.639,-0.734C-10.647,-0.732 -10.657,-0.733 -10.667,-0.731C-10.678,-0.727 -10.688,-0.721 -10.699,-0.72C-15.125,0.334 -19.308,2.022 -23.142,4.248C-23.146,4.251 -23.15,4.252 -23.155,4.253C-28.479,7.347 -33.132,11.469 -36.84,16.35C-36.935,16.432 -37.015,16.535 -37.069,16.651C-42.834,24.363 -46.25,33.927 -46.25,44.273C-46.25,69.77 -25.501,90.513 0,90.513C25.496,90.513 46.24,69.77 46.24,44.273C46.24,43.831 46.231,43.391 46.22,42.953C46.253,42.79 46.25,42.622 46.2,42.462" style="fill:rgb(1,76,144);fill-rule:nonzero;"/>
        </g>
        <g transform="matrix(4.16667,0,0,4.16667,536.101,617.535)">
            <path d="M0,-3.52C-0.356,-3.278 -0.797,-2.975 -1.222,-2.553C-4.228,0.431 -6.848,1.585 -10.134,1.384C-10.813,1.34 -11.207,1.26 -11.425,1.192C-11.152,0.845 -10.445,0.213 -8.775,-0.926C-7.206,-1.986 -6.064,-2.195 -4.379,-2.223C-3.068,-2.246 -2.048,-2.983 -1.149,-3.633C-0.46,-4.13 0.144,-4.566 0.773,-4.657C0.888,-4.125 0.667,-3.975 0,-3.52M1.68,-6.582C0.018,-6.895 -1.237,-5.999 -2.304,-5.228C-3.064,-4.679 -3.72,-4.204 -4.414,-4.193C-6.392,-4.16 -7.919,-3.881 -9.882,-2.556C-12.087,-1.05 -13.876,0.314 -13.473,1.783C-13.135,3.016 -11.574,3.268 -10.252,3.349C-9.98,3.366 -9.711,3.375 -9.449,3.375C-4.972,3.375 -1.959,0.953 0.164,-1.154C0.461,-1.449 0.792,-1.675 1.112,-1.894C2.063,-2.543 3.368,-3.434 2.423,-5.958C2.302,-6.283 2.02,-6.519 1.68,-6.582" style="fill:rgb(1,76,144);fill-rule:nonzero;"/>
        </g>
        <g transform="matrix(4.16667,0,0,4.16667,703.834,320.444)">
            <path d="M0,14.113C-3.891,14.113 -7.057,10.947 -7.057,7.055C-7.057,3.165 -3.891,-0.001 0,-0.001C3.89,-0.001 7.056,3.165 7.056,7.055C7.056,10.947 3.89,14.113 0,14.113M0,-1.97C-4.978,-1.97 -9.026,2.077 -9.026,7.055C-9.026,12.034 -4.978,16.083 0,16.083C4.977,16.083 9.025,12.034 9.025,7.055C9.025,2.077 4.977,-1.97 0,-1.97" style="fill:rgb(1,76,144);fill-rule:nonzero;"/>
        </g>
    </g>
</svg>
