<?xml version="1.0" encoding="UTF-8" standalone="no"?>
<!DOCTYPE svg PUBLIC "-//W3C//DTD SVG 1.1//EN" "http://www.w3.org/Graphics/SVG/1.1/DTD/svg11.dtd">
<svg width="100%" height="100%" viewBox="0 0 120 100" version="1.1" xmlns="http://www.w3.org/2000/svg" xmlns:xlink="http://www.w3.org/1999/xlink" xml:space="preserve" xmlns:serif="http://www.serif.com/" style="fill-rule:evenodd;clip-rule:evenodd;stroke-linejoin:round;stroke-miterlimit:2;">
    <g transform="matrix(1,0,0,1,-355.474,-190.066)">
        <g transform="matrix(1.89508,0,0,1.89508,-928.397,-35.7332)">
            <path d="M740.591,170.739L740.066,170.739L740.066,166.395L740.591,166.395L740.591,170.739ZM738.97,169.155C738.97,168.801 738.911,168.524 738.797,168.329C738.683,168.131 738.498,168.034 738.244,168.034C738.097,168.034 737.953,168.069 737.814,168.135C737.674,168.196 737.542,168.282 737.418,168.389L737.418,170.155C737.555,170.223 737.672,170.27 737.771,170.292C737.867,170.315 737.981,170.329 738.109,170.329C738.377,170.329 738.591,170.231 738.739,170.032C738.893,169.831 738.97,169.54 738.97,169.155M739.51,169.096C739.51,169.616 739.383,170.032 739.137,170.34C738.888,170.647 738.573,170.799 738.196,170.799C738.041,170.799 737.902,170.782 737.784,170.749C737.664,170.713 737.542,170.657 737.418,170.584L737.418,171.889L736.892,171.889L736.892,167.62L737.418,167.62L737.418,167.948C737.549,167.831 737.693,167.731 737.852,167.651C738.01,167.573 738.186,167.534 738.372,167.534C738.729,167.534 739.008,167.676 739.209,167.958C739.409,168.241 739.51,168.62 739.51,169.096M735.979,170.739L735.317,170.739L735.317,169.946L735.979,169.946L735.979,170.739ZM735.238,167.62L734.068,170.739L733.596,170.739L732.426,167.62L732.995,167.62L733.848,170.026L734.694,167.62L735.238,167.62ZM731.741,169.18C731.741,168.778 731.669,168.479 731.521,168.282C731.376,168.086 731.164,167.987 730.894,167.987C730.619,167.987 730.407,168.086 730.258,168.282C730.113,168.479 730.039,168.778 730.039,169.18C730.039,169.575 730.113,169.868 730.258,170.071C730.407,170.274 730.619,170.374 730.894,170.374C731.164,170.374 731.376,170.274 731.519,170.077C731.669,169.877 731.741,169.581 731.741,169.18M732.287,169.18C732.287,169.708 732.158,170.112 731.906,170.399C731.649,170.682 731.312,170.829 730.894,170.829C730.461,170.829 730.119,170.68 729.871,170.385C729.623,170.088 729.499,169.69 729.499,169.18C729.499,168.663 729.627,168.256 729.882,167.965C730.138,167.678 730.475,167.534 730.894,167.534C731.312,167.534 731.649,167.678 731.906,167.965C732.158,168.254 732.287,168.659 732.287,169.18M726.669,171.241C726.703,171.254 726.755,171.274 726.825,171.297C726.894,171.323 726.973,171.35 727.059,171.37C727.156,171.395 727.246,171.415 727.328,171.43C727.414,171.446 727.501,171.452 727.596,171.452C727.76,171.452 727.896,171.43 728.009,171.387C728.121,171.344 728.21,171.286 728.274,171.209C728.33,171.131 728.374,171.043 728.396,170.944C728.424,170.842 728.434,170.729 728.434,170.6L728.434,170.327C728.294,170.45 728.154,170.54 728.019,170.598C727.881,170.655 727.715,170.686 727.508,170.686C727.153,170.686 726.868,170.551 726.658,170.29C726.446,170.026 726.344,169.647 726.344,169.153C726.344,168.893 726.38,168.663 726.453,168.465C726.524,168.262 726.622,168.092 726.745,167.954C726.862,167.819 727.002,167.713 727.16,167.645C727.322,167.573 727.487,167.534 727.657,167.534C727.821,167.534 727.96,167.553 728.08,167.59C728.198,167.629 728.314,167.686 728.434,167.756L728.468,167.62L728.958,167.62L728.958,170.385C728.958,170.913 728.844,171.301 728.613,171.551C728.383,171.795 728.027,171.918 727.557,171.918C727.401,171.918 727.246,171.909 727.086,171.885C726.928,171.86 726.781,171.827 726.64,171.786L726.64,171.241L726.669,171.241ZM728.434,169.895L728.434,168.184C728.303,168.12 728.185,168.075 728.076,168.045C727.96,168.02 727.853,168.006 727.739,168.006C727.477,168.006 727.267,168.104 727.115,168.301C726.961,168.495 726.888,168.774 726.888,169.139C726.888,169.485 726.943,169.747 727.059,169.928C727.174,170.11 727.363,170.2 727.623,170.2C727.761,170.2 727.899,170.174 728.043,170.12C728.19,170.065 728.319,169.991 728.434,169.895M725.645,170.739L724.98,170.739L724.98,169.946L725.645,169.946L725.645,170.739ZM723.429,170.809C723.214,170.809 723.019,170.776 722.838,170.709C722.662,170.643 722.508,170.545 722.38,170.411C722.251,170.274 722.15,170.106 722.079,169.901C722.008,169.7 721.975,169.459 721.975,169.182C721.975,168.911 722.01,168.674 722.086,168.475C722.158,168.274 722.253,168.108 722.38,167.973C722.5,167.836 722.656,167.731 722.838,167.657C723.02,167.584 723.219,167.547 723.429,167.547C723.603,167.547 723.766,167.573 723.926,167.62C724.083,167.67 724.225,167.725 724.352,167.788L724.352,168.377L724.318,168.377C724.283,168.346 724.235,168.309 724.177,168.27C724.117,168.229 724.044,168.184 723.963,168.143C723.887,168.106 723.802,168.073 723.706,168.045C723.608,168.018 723.51,168.002 723.422,168.002C723.149,168.002 722.93,168.106 722.767,168.315C722.602,168.518 722.519,168.807 722.519,169.182C722.519,169.553 722.597,169.84 722.756,170.043C722.916,170.25 723.137,170.354 723.422,170.354C723.592,170.354 723.753,170.319 723.91,170.25C724.063,170.176 724.2,170.086 724.318,169.971L724.352,169.971L724.352,170.563C724.3,170.588 724.231,170.618 724.154,170.653C724.078,170.686 724.006,170.711 723.941,170.729C723.853,170.752 723.772,170.772 723.701,170.788C723.629,170.803 723.538,170.809 723.429,170.809M721.106,169.18C721.106,168.778 721.036,168.479 720.887,168.282C720.741,168.086 720.531,167.987 720.26,167.987C719.987,167.987 719.773,168.086 719.627,168.282C719.479,168.479 719.403,168.778 719.403,169.18C719.403,169.575 719.479,169.868 719.627,170.071C719.773,170.274 719.987,170.374 720.26,170.374C720.529,170.374 720.737,170.274 720.884,170.077C721.034,169.877 721.106,169.581 721.106,169.18M721.649,169.18C721.649,169.708 721.525,170.112 721.271,170.399C721.02,170.682 720.678,170.829 720.26,170.829C719.826,170.829 719.485,170.68 719.237,170.385C718.986,170.088 718.862,169.69 718.862,169.18C718.862,168.663 718.987,168.256 719.247,167.965C719.503,167.678 719.84,167.534 720.26,167.534C720.678,167.534 721.02,167.678 721.271,167.965C721.525,168.254 721.649,168.659 721.649,169.18M717.821,170.739L717.821,168.938C717.821,168.793 717.816,168.659 717.803,168.54C717.794,168.417 717.771,168.319 717.736,168.252C717.696,168.176 717.646,168.125 717.576,168.086C717.507,168.049 717.413,168.034 717.3,168.034C717.188,168.034 717.076,168.069 716.949,168.135C716.823,168.202 716.699,168.293 716.566,168.42C716.566,168.45 716.57,168.489 716.572,168.53C716.576,168.577 716.578,168.629 716.578,168.688L716.578,170.739L716.05,170.739L716.05,168.938C716.05,168.793 716.045,168.659 716.036,168.54C716.024,168.417 716.001,168.319 715.965,168.252C715.93,168.176 715.875,168.125 715.807,168.086C715.74,168.049 715.646,168.034 715.526,168.034C715.413,168.034 715.296,168.071 715.172,168.141C715.047,168.211 714.923,168.301 714.808,168.411L714.808,170.739L714.28,170.739L714.28,167.62L714.808,167.62L714.808,167.965C714.945,167.831 715.083,167.723 715.217,167.649C715.353,167.573 715.499,167.534 715.663,167.534C715.845,167.534 716.01,167.575 716.15,167.659C716.293,167.743 716.402,167.881 716.478,168.073C716.633,167.897 716.791,167.762 716.938,167.67C717.091,167.581 717.256,167.534 717.43,167.534C717.566,167.534 717.686,167.557 717.797,167.598C717.907,167.641 718.005,167.708 718.084,167.799C718.169,167.895 718.231,168.012 718.278,168.153C718.325,168.297 718.345,168.475 718.345,168.688L718.345,170.739L717.821,170.739ZM713.202,169.18C713.202,168.778 713.128,168.479 712.98,168.282C712.833,168.086 712.625,167.987 712.352,167.987C712.076,167.987 711.865,168.086 711.721,168.282C711.572,168.479 711.498,168.778 711.498,169.18C711.498,169.575 711.572,169.868 711.721,170.071C711.865,170.274 712.076,170.374 712.352,170.374C712.623,170.374 712.831,170.274 712.979,170.077C713.128,169.877 713.202,169.581 713.202,169.18M713.744,169.18C713.744,169.708 713.618,170.112 713.362,170.399C713.109,170.682 712.771,170.829 712.352,170.829C711.917,170.829 711.578,170.68 711.326,170.385C711.082,170.088 710.955,169.69 710.955,169.18C710.955,168.663 711.083,168.256 711.338,167.965C711.596,167.678 711.933,167.534 712.352,167.534C712.771,167.534 713.109,167.678 713.362,167.965C713.618,168.254 713.744,168.659 713.744,169.18M710.09,169.155C710.09,168.801 710.034,168.524 709.92,168.329C709.807,168.131 709.622,168.034 709.369,168.034C709.219,168.034 709.071,168.069 708.938,168.135C708.798,168.196 708.666,168.282 708.543,168.389L708.543,170.155C708.677,170.223 708.796,170.27 708.893,170.292C708.993,170.315 709.104,170.329 709.229,170.329C709.502,170.329 709.715,170.231 709.864,170.032C710.015,169.831 710.09,169.54 710.09,169.155M710.631,169.096C710.631,169.616 710.506,170.032 710.257,170.34C710.012,170.647 709.696,170.799 709.319,170.799C709.163,170.799 709.027,170.782 708.906,170.749C708.788,170.713 708.666,170.657 708.543,170.584L708.543,171.889L708.017,171.889L708.017,167.62L708.543,167.62L708.543,167.948C708.674,167.831 708.817,167.731 708.976,167.651C709.135,167.573 709.308,167.534 709.498,167.534C709.854,167.534 710.133,167.676 710.332,167.958C710.533,168.241 710.631,168.62 710.631,169.096M706.757,170.407C706.713,170.438 706.658,170.483 706.584,170.54C706.512,170.598 706.445,170.643 706.377,170.676C706.282,170.725 706.195,170.76 706.108,170.788C706.023,170.815 705.9,170.829 705.744,170.829C705.616,170.829 705.495,170.803 705.379,170.752C705.26,170.704 705.162,170.635 705.074,170.551C704.99,170.463 704.922,170.358 704.875,170.233C704.822,170.106 704.798,169.971 704.798,169.834C704.798,169.618 704.843,169.434 704.937,169.286C705.025,169.129 705.171,169.01 705.367,168.92C705.541,168.842 705.75,168.786 705.986,168.754C706.227,168.727 706.481,168.7 706.757,168.684L706.757,168.588C706.757,168.465 706.737,168.366 706.7,168.29C706.667,168.213 706.613,168.157 706.545,168.116C706.478,168.073 706.398,168.042 706.299,168.032C706.203,168.014 706.103,168.008 706.003,168.008C705.883,168.008 705.738,168.026 705.573,168.063C705.412,168.1 705.248,168.151 705.085,168.223L705.052,168.223L705.052,167.688C705.152,167.659 705.29,167.629 705.468,167.594C705.649,167.563 705.827,167.547 706.004,167.547C706.219,167.547 706.398,167.563 706.547,167.594C706.692,167.629 706.822,167.69 706.941,167.778C707.057,167.862 707.142,167.973 707.194,168.112C707.252,168.245 707.28,168.409 707.28,168.606L707.28,170.739L706.757,170.739L706.757,170.407ZM706.757,169.971L706.757,169.104C706.632,169.116 706.476,169.133 706.282,169.153C706.093,169.17 705.939,169.2 705.823,169.233C705.684,169.276 705.565,169.342 705.477,169.43C705.385,169.52 705.339,169.643 705.339,169.801C705.339,169.981 705.388,170.116 705.489,170.206C705.591,170.297 705.738,170.344 705.935,170.344C706.099,170.344 706.246,170.307 706.382,170.237C706.512,170.165 706.642,170.077 706.757,169.971M704.751,170.739L704.064,170.739L702.903,169.237L702.693,169.436L702.693,170.739L702.166,170.739L702.166,166.395L702.693,166.395L702.693,168.938L703.924,167.62L704.578,167.62L703.3,168.924L704.751,170.739ZM700.46,170.815C700.249,170.815 700.054,170.788 699.872,170.733C699.693,170.676 699.541,170.616 699.42,170.551L699.42,169.961L699.451,169.961C699.495,169.997 699.548,170.038 699.607,170.083C699.669,170.122 699.748,170.168 699.849,170.215C699.938,170.256 700.039,170.292 700.143,170.321C700.253,170.354 700.358,170.37 700.479,170.37C700.564,170.37 700.651,170.36 700.745,170.34C700.841,170.321 700.914,170.297 700.955,170.266C701.023,170.223 701.07,170.178 701.099,170.131C701.127,170.083 701.143,170.01 701.143,169.911C701.143,169.786 701.107,169.694 701.042,169.631C700.974,169.567 700.855,169.514 700.68,169.471C700.613,169.454 700.526,169.434 700.419,169.413C700.307,169.391 700.211,169.366 700.117,169.342C699.883,169.272 699.704,169.165 699.601,169.02C699.493,168.875 699.434,168.7 699.434,168.499C699.434,168.215 699.542,167.987 699.757,167.809C699.966,167.633 700.249,167.547 700.602,167.547C700.773,167.547 700.949,167.567 701.123,167.608C701.299,167.651 701.444,167.708 701.568,167.772L701.568,168.333L701.536,168.333C701.404,168.227 701.252,168.143 701.087,168.083C700.926,168.02 700.761,167.989 700.592,167.989C700.419,167.989 700.271,168.026 700.151,168.096C700.033,168.17 699.976,168.28 699.976,168.426C699.976,168.557 700.007,168.655 700.077,168.719C700.149,168.782 700.262,168.838 700.42,168.879C700.496,168.899 700.584,168.917 700.684,168.938C700.778,168.958 700.876,168.979 700.983,169.004C701.214,169.063 701.391,169.159 701.508,169.293C701.621,169.428 701.678,169.61 701.678,169.84C701.678,169.971 701.653,170.1 701.599,170.223C701.546,170.34 701.468,170.444 701.367,170.532C701.254,170.624 701.127,170.694 700.989,170.741C700.848,170.79 700.669,170.815 700.46,170.815M698.844,170.739L698.321,170.739L698.321,166.395L698.844,166.395L698.844,170.739ZM697.23,169.18C697.23,168.778 697.155,168.479 697.01,168.282C696.86,168.086 696.65,167.987 696.379,167.987C696.104,167.987 695.895,168.086 695.746,168.282C695.599,168.479 695.525,168.778 695.525,169.18C695.525,169.575 695.599,169.868 695.746,170.071C695.895,170.274 696.104,170.374 696.379,170.374C696.65,170.374 696.86,170.274 697.007,170.077C697.155,169.877 697.23,169.581 697.23,169.18M697.772,169.18C697.772,169.708 697.645,170.112 697.39,170.399C697.139,170.682 696.8,170.829 696.379,170.829C695.946,170.829 695.606,170.68 695.354,170.385C695.107,170.088 694.983,169.69 694.983,169.18C694.983,168.663 695.11,168.256 695.367,167.965C695.624,167.678 695.962,167.534 696.379,167.534C696.8,167.534 697.139,167.678 697.39,167.965C697.645,168.254 697.772,168.659 697.772,169.18M694.118,169.155C694.118,168.801 694.06,168.524 693.948,168.329C693.838,168.131 693.649,168.034 693.396,168.034C693.247,168.034 693.103,168.069 692.963,168.135C692.826,168.196 692.693,168.282 692.57,168.389L692.57,170.155C692.704,170.223 692.823,170.27 692.921,170.292C693.018,170.315 693.132,170.329 693.257,170.329C693.528,170.329 693.741,170.231 693.893,170.032C694.041,169.831 694.118,169.54 694.118,169.155M694.659,169.096C694.659,169.616 694.535,170.032 694.286,170.34C694.039,170.647 693.724,170.799 693.343,170.799C693.192,170.799 693.052,170.782 692.934,170.749C692.818,170.713 692.693,170.657 692.57,170.584L692.57,171.889L692.044,171.889L692.044,167.62L692.57,167.62L692.57,167.948C692.699,167.831 692.843,167.731 693.004,167.651C693.161,167.573 693.333,167.534 693.523,167.534C693.88,167.534 694.159,167.676 694.359,167.958C694.559,168.241 694.659,168.62 694.659,169.096M691.134,170.739L690.464,170.739L690.464,169.946L691.134,169.946L691.134,170.739ZM690.041,167.62L689.251,170.739L688.763,170.739L688.001,168.338L687.244,170.739L686.761,170.739L685.963,167.62L686.511,167.62L687.063,170.036L687.797,167.62L688.23,167.62L688.993,170.036L689.512,167.62L690.041,167.62ZM685.794,167.62L685.009,170.739L684.518,170.739L683.76,168.338L683.001,170.739L682.519,170.739L681.72,167.62L682.267,167.62L682.818,170.036L683.555,167.62L683.989,167.62L684.749,170.036L685.267,167.62L685.794,167.62ZM681.55,167.62L680.761,170.739L680.274,170.739L679.513,168.338L678.756,170.739L678.274,170.739L677.477,167.62L678.023,167.62L678.571,170.036L679.313,167.62L679.745,167.62L680.503,170.036L681.026,167.62L681.55,167.62Z" style="fill:#bee3f8;fill-rule:nonzero;"/>
        </g>
        <g transform="matrix(1.89508,0,0,1.89508,435.999,243.888)">
            <path d="M0,-8.674C0,-2.688 -4.854,2.166 -10.84,2.166C-16.826,2.166 -21.678,-2.688 -21.678,-8.674C-21.678,-9.869 -20.706,-10.84 -19.51,-10.84C-18.313,-10.84 -17.341,-9.869 -17.341,-8.674C-17.341,-5.082 -14.43,-2.17 -10.84,-2.17C-7.25,-2.17 -4.334,-5.082 -4.334,-8.674C-4.334,-9.869 -3.365,-10.84 -2.169,-10.84C-0.972,-10.84 0,-9.869 0,-8.674" style="fill:#bee3f8;"/>
        </g>
        <g transform="matrix(1.89508,0,0,1.89508,447.834,193.491)">
            <path d="M0,27.787C1.73,24.787 2.643,21.383 2.643,17.92C2.643,7.025 -6.191,-1.807 -17.085,-1.807C-27.976,-1.807 -36.813,7.025 -36.813,17.92C-36.813,21.383 -35.898,24.791 -34.167,27.787C-33.391,29.135 -31.668,29.594 -30.319,28.816C-28.973,28.039 -28.51,26.314 -29.29,24.969C-30.524,22.826 -31.174,20.391 -31.174,17.92C-31.174,10.141 -24.866,3.83 -17.085,3.83C-9.302,3.83 -2.995,10.141 -2.995,17.92C-2.995,20.391 -3.644,22.824 -4.881,24.965C-5.66,26.312 -5.194,28.035 -3.85,28.816C-2.5,29.594 -0.778,29.131 0,27.787" style="fill:#bee3f8;"/>
        </g>
        <g transform="matrix(1.89508,0,0,1.89508,475.386,274.446)">
            <path d="M0,-4.535L-0.489,-3.844C-0.585,-3.941 -0.762,-4.037 -1.017,-4.129C-1.269,-4.217 -1.517,-4.264 -1.765,-4.264C-2.298,-4.264 -2.722,-4.076 -3.031,-3.701C-3.349,-3.326 -3.506,-2.812 -3.506,-2.162C-3.506,-1.515 -3.342,-1.019 -3.021,-0.683C-2.703,-0.346 -2.259,-0.176 -1.689,-0.176C-1.248,-0.176 -0.805,-0.346 -0.354,-0.685L0.03,0.143C-0.497,0.481 -1.15,0.653 -1.93,0.653C-2.681,0.653 -3.305,0.397 -3.799,-0.107C-4.29,-0.613 -4.538,-1.297 -4.538,-2.162C-4.538,-3.045 -4.281,-3.754 -3.771,-4.289C-3.257,-4.822 -2.557,-5.088 -1.67,-5.088C-1.383,-5.088 -1.075,-5.029 -0.739,-4.908C-0.404,-4.785 -0.162,-4.664 0,-4.535M-9.182,-2.23C-9.182,-0.842 -8.693,-0.148 -7.714,-0.148C-7.25,-0.148 -6.894,-0.336 -6.632,-0.707C-6.374,-1.08 -6.245,-1.586 -6.245,-2.23C-6.245,-3.603 -6.732,-4.289 -7.714,-4.289C-8.16,-4.289 -8.514,-4.105 -8.782,-3.74C-9.049,-3.375 -9.182,-2.873 -9.182,-2.23M-10.217,-2.23C-10.217,-3.088 -9.985,-3.773 -9.526,-4.301C-9.067,-4.822 -8.462,-5.088 -7.714,-5.088C-6.917,-5.088 -6.302,-4.836 -5.864,-4.33C-5.427,-3.828 -5.21,-3.125 -5.21,-2.23C-5.21,-1.338 -5.435,-0.635 -5.881,-0.119C-6.328,0.397 -6.938,0.653 -7.714,0.653C-8.499,0.653 -9.116,0.393 -9.556,-0.127C-9.995,-0.65 -10.217,-1.349 -10.217,-2.23M-12.233,0.549L-12.233,-2.953C-12.233,-3.826 -12.607,-4.264 -13.361,-4.264C-13.6,-4.264 -13.819,-4.187 -14.027,-4.043C-14.233,-3.896 -14.377,-3.73 -14.451,-3.541L-14.451,0.549L-15.437,0.549L-15.437,-3.383C-15.437,-3.654 -15.537,-3.869 -15.74,-4.025C-15.945,-4.183 -16.217,-4.264 -16.557,-4.264C-16.747,-4.264 -16.963,-4.185 -17.185,-4.035C-17.406,-3.883 -17.563,-3.713 -17.655,-3.533L-17.655,0.549L-18.638,0.549L-18.638,-4.984L-17.997,-4.984L-17.669,-4.344C-17.29,-4.838 -16.815,-5.088 -16.249,-5.088C-15.458,-5.088 -14.901,-4.842 -14.588,-4.349C-14.474,-4.558 -14.272,-4.734 -13.972,-4.875C-13.674,-5.015 -13.362,-5.088 -13.047,-5.088C-12.477,-5.088 -12.034,-4.918 -11.717,-4.578C-11.407,-4.238 -11.25,-3.764 -11.25,-3.152L-11.25,0.549L-12.233,0.549ZM-23.648,-2.23C-23.648,-0.842 -23.152,-0.148 -22.172,-0.148C-21.715,-0.148 -21.356,-0.336 -21.094,-0.707C-20.834,-1.08 -20.705,-1.586 -20.705,-2.23C-20.705,-3.603 -21.193,-4.289 -22.172,-4.289C-22.619,-4.289 -22.978,-4.105 -23.246,-3.74C-23.514,-3.375 -23.648,-2.873 -23.648,-2.23M-24.677,-2.23C-24.677,-3.088 -24.447,-3.773 -23.986,-4.301C-23.528,-4.822 -22.923,-5.088 -22.172,-5.088C-21.379,-5.088 -20.766,-4.836 -20.327,-4.33C-19.891,-3.828 -19.671,-3.125 -19.671,-2.23C-19.671,-1.338 -19.895,-0.635 -20.343,-0.119C-20.789,0.397 -21.4,0.653 -22.172,0.653C-22.962,0.653 -23.578,0.393 -24.02,-0.127C-24.46,-0.65 -24.677,-1.349 -24.677,-2.23M-29.23,-3.791L-29.23,-0.566C-29.17,-0.474 -29.038,-0.387 -28.84,-0.301C-28.638,-0.217 -28.445,-0.176 -28.256,-0.176C-27.035,-0.176 -26.426,-0.863 -26.426,-2.24C-26.426,-2.943 -26.569,-3.451 -26.859,-3.773C-27.147,-4.099 -27.611,-4.264 -28.249,-4.264C-28.384,-4.264 -28.555,-4.213 -28.756,-4.115C-28.956,-4.017 -29.114,-3.912 -29.23,-3.791M-29.23,0.244L-29.23,2.719L-30.212,2.719L-30.212,-4.984L-29.23,-4.984L-29.23,-4.533C-28.86,-4.9 -28.411,-5.088 -27.881,-5.088C-27.096,-5.088 -26.483,-4.842 -26.046,-4.355C-25.606,-3.865 -25.39,-3.148 -25.39,-2.205C-25.39,-1.365 -25.61,-0.676 -26.054,-0.142C-26.493,0.389 -27.129,0.653 -27.964,0.653C-28.201,0.653 -28.447,0.611 -28.718,0.529C-28.985,0.447 -29.157,0.352 -29.23,0.244M-35.927,-2.168C-36.239,-2.236 -36.454,-2.275 -36.579,-2.275C-37.071,-2.275 -37.48,-2.144 -37.794,-1.89C-38.105,-1.633 -38.266,-1.33 -38.266,-0.984C-38.266,-0.41 -37.924,-0.123 -37.246,-0.123C-36.753,-0.123 -36.313,-0.357 -35.927,-0.83L-35.927,-2.168ZM-35.835,-0.086C-36.229,0.404 -36.829,0.653 -37.639,0.653C-38.075,0.653 -38.449,0.494 -38.768,0.18C-39.086,-0.133 -39.245,-0.527 -39.245,-0.996C-39.245,-1.556 -38.999,-2.029 -38.509,-2.422C-38.02,-2.808 -37.392,-3.002 -36.632,-3.002C-36.425,-3.002 -36.187,-2.955 -35.927,-2.869C-35.927,-3.76 -36.325,-4.209 -37.123,-4.209C-37.739,-4.209 -38.214,-4.045 -38.542,-3.713L-38.956,-4.535C-38.77,-4.687 -38.513,-4.816 -38.182,-4.926C-37.854,-5.035 -37.539,-5.088 -37.237,-5.088C-36.438,-5.088 -35.854,-4.906 -35.493,-4.541C-35.128,-4.178 -34.945,-3.596 -34.945,-2.799L-34.945,-0.812C-34.945,-0.33 -34.801,-0.002 -34.513,0.156L-34.513,0.649C-34.911,0.649 -35.21,0.59 -35.408,0.477C-35.604,0.365 -35.746,0.176 -35.835,-0.086M-40.722,0.549L-42.459,-2.219L-43.315,-1.336L-43.315,0.549L-44.297,0.549L-44.297,-7.254L-43.315,-7.254L-43.315,-2.412L-41.199,-4.984L-40.048,-4.984L-41.823,-2.879L-39.657,0.549L-40.722,0.549ZM-48.943,0.219L-48.594,-0.713C-48.05,-0.353 -47.61,-0.176 -47.271,-0.176C-46.666,-0.176 -46.364,-0.43 -46.364,-0.937C-46.364,-1.303 -46.657,-1.619 -47.242,-1.881C-47.696,-2.088 -48,-2.242 -48.154,-2.349C-48.311,-2.457 -48.447,-2.58 -48.562,-2.713C-48.68,-2.849 -48.763,-2.994 -48.823,-3.148C-48.878,-3.301 -48.905,-3.467 -48.905,-3.64C-48.905,-4.097 -48.744,-4.447 -48.408,-4.707C-48.079,-4.961 -47.646,-5.088 -47.113,-5.088C-46.712,-5.088 -46.204,-4.961 -45.589,-4.707L-45.867,-3.795C-46.26,-4.105 -46.648,-4.264 -47.043,-4.264C-47.274,-4.264 -47.472,-4.207 -47.635,-4.097C-47.792,-3.984 -47.874,-3.846 -47.874,-3.676C-47.874,-3.32 -47.671,-3.053 -47.265,-2.873L-46.568,-2.551C-46.133,-2.355 -45.825,-2.131 -45.624,-1.881C-45.428,-1.627 -45.329,-1.312 -45.329,-0.933C-45.329,-0.437 -45.502,-0.049 -45.852,0.233C-46.2,0.512 -46.682,0.653 -47.302,0.653C-47.884,0.653 -48.43,0.508 -48.943,0.219M-51.629,-1.017L-51.629,-7.254L-50.645,-7.254L-50.645,-1.18C-50.645,-0.887 -50.558,-0.65 -50.39,-0.48C-50.218,-0.31 -49.995,-0.222 -49.717,-0.222L-49.717,0.653C-50.988,0.653 -51.629,0.098 -51.629,-1.017M-56.712,-2.23C-56.712,-0.842 -56.22,-0.148 -55.238,-0.148C-54.78,-0.148 -54.419,-0.336 -54.162,-0.707C-53.899,-1.08 -53.773,-1.586 -53.773,-2.23C-53.773,-3.603 -54.261,-4.289 -55.238,-4.289C-55.687,-4.289 -56.042,-4.105 -56.312,-3.74C-56.575,-3.375 -56.712,-2.873 -56.712,-2.23M-57.745,-2.23C-57.745,-3.088 -57.513,-3.773 -57.054,-4.301C-56.594,-4.822 -55.987,-5.088 -55.238,-5.088C-54.446,-5.088 -53.832,-4.836 -53.393,-4.33C-52.956,-3.828 -52.735,-3.125 -52.735,-2.23C-52.735,-1.338 -52.962,-0.635 -53.409,-0.119C-53.854,0.397 -54.466,0.653 -55.238,0.653C-56.028,0.653 -56.644,0.393 -57.084,-0.127C-57.524,-0.65 -57.745,-1.349 -57.745,-2.23M-62.296,-3.791L-62.296,-0.566C-62.235,-0.474 -62.101,-0.387 -61.904,-0.301C-61.705,-0.217 -61.511,-0.176 -61.318,-0.176C-60.101,-0.176 -59.49,-0.863 -59.49,-2.24C-59.49,-2.943 -59.634,-3.451 -59.925,-3.773C-60.213,-4.099 -60.675,-4.264 -61.316,-4.264C-61.452,-4.264 -61.622,-4.213 -61.822,-4.115C-62.021,-4.017 -62.182,-3.912 -62.296,-3.791M-62.296,0.244L-62.296,2.719L-63.276,2.719L-63.276,-4.984L-62.296,-4.984L-62.296,-4.533C-61.926,-4.9 -61.473,-5.088 -60.947,-5.088C-60.162,-5.088 -59.551,-4.842 -59.112,-4.355C-58.676,-3.865 -58.456,-3.148 -58.456,-2.205C-58.456,-1.365 -58.676,-0.676 -59.117,-0.142C-59.559,0.389 -60.195,0.653 -61.03,0.653C-61.264,0.653 -61.515,0.611 -61.784,0.529C-62.05,0.447 -62.221,0.352 -62.296,0.244" style="fill:#bee3f8;fill-rule:nonzero;"/>
        </g>
    </g>
</svg>
