<?xml version="1.0" encoding="UTF-8" standalone="no"?>
<!DOCTYPE svg PUBLIC "-//W3C//DTD SVG 1.1//EN" "http://www.w3.org/Graphics/SVG/1.1/DTD/svg11.dtd">
<svg width="100%" height="100%" viewBox="0 0 208 100" version="1.1" xmlns="http://www.w3.org/2000/svg" xmlns:xlink="http://www.w3.org/1999/xlink" xml:space="preserve" xmlns:serif="http://www.serif.com/" style="fill-rule:evenodd;clip-rule:evenodd;stroke-linejoin:round;stroke-miterlimit:2;">
    <g transform="matrix(1,0,0,1,-107.446,-190.066)">
        <g transform="matrix(1.89508,0,0,1.89508,298.963,208.772)">
            <path d="M0,19.94L0,18.301L0.296,18.301C1.549,19.079 3.383,19.512 5.215,20.09C5.495,20.178 6.085,20.11 6.106,20.536C3.765,20.641 1.909,20.264 0,19.94M-2.277,21.579C-2.308,21.577 -2.334,21.571 -2.366,21.569C-2.374,21.573 -2.381,21.577 -2.387,21.579C-2.417,21.573 -2.441,21.565 -2.471,21.557C-3.437,21.411 -3.502,20.891 -3.482,20.333C-3.684,19.426 -3.553,18.19 -3.581,17.108C-3.234,17.217 -2.907,17.387 -2.589,17.565C-2.308,17.647 -2.032,17.733 -1.791,17.854C-1.796,17.905 -1.798,17.956 -1.801,18.006C-1.791,18.538 -1.743,18.942 -1.739,19.219C-1.66,19.827 -1.558,20.34 -1.66,20.76C-1.635,21.128 -1.698,21.461 -2.277,21.579M-5.221,19.045C-6.708,18.545 -8.838,18.686 -10.289,18.153C-9.251,16.956 -6.534,17.432 -5.518,16.215C-4.852,16.59 -5.401,18.18 -5.221,19.045M-10.732,18.45C-9.498,18.717 -7.032,19.008 -5.37,19.344C-5.403,22.497 -12.741,22.348 -10.732,18.45M-8.648,24.411C-10.522,24.1 -12.328,23.723 -13.715,22.92C-13.879,22.44 -13.928,21.844 -14.31,21.579L-16.695,21.579C-16.903,21.387 -16.845,20.934 -16.845,20.536C-14.187,21.208 -12.38,22.725 -10.14,23.815C-9.636,24.008 -8.713,23.782 -8.648,24.411M-12.226,22.176C-13.503,21.864 -14.881,20.36 -16.845,20.237L-16.845,16.96C-15.587,17.186 -14.442,17.536 -12.97,17.557C-12.82,17.67 -13.271,17.94 -13.271,18.749C-13.482,20.686 -13.059,21.518 -12.226,22.176M-16.996,15.917C-15.215,16.319 -12.616,15.836 -11.034,16.067C-11.525,16.518 -12.44,16.633 -12.632,17.379C-14.05,17.057 -15.444,16.846 -16.996,16.661L-16.996,15.917ZM-18.931,16.96C-20.987,16.926 -23.201,17.377 -25.34,17.407L-25.34,15.768C-23.345,16.057 -20.417,16.465 -19.231,15.169C-18.594,15.229 -19.086,16.419 -18.931,16.96M-18.931,19.643C-20.798,19.071 -22.406,18.245 -24.299,17.704C-22.752,17.76 -20.541,17.335 -19.083,17.258C-18.739,17.756 -19.031,18.895 -18.931,19.643M-21.317,20.385C-21.703,20.278 -21.989,19.788 -22.361,19.643C-23.323,19.262 -24.39,19.272 -25.34,19.045L-25.34,17.704L-25.042,17.704C-23.649,18.206 -22.302,18.852 -20.873,19.344C-20.205,19.571 -19.308,19.586 -18.931,20.237C-19.276,20.753 -20.695,20.561 -21.317,20.385M-22.956,23.219C-21.075,24.764 -18.112,25.231 -15.208,25.751C-19.893,26.483 -23.889,24.024 -27.729,22.92C-27.677,22.424 -27.118,22.438 -27.131,21.878C-26.553,21.852 -26.974,22.809 -26.681,23.071C-25.649,23.29 -24.078,23.567 -22.956,23.219M-27.578,19.79C-29.278,18.514 -31.454,17.704 -33.541,16.809C-31.61,16.471 -29.009,16.747 -27.28,17.108C-27.232,18.145 -27.529,18.842 -27.578,19.79M-29.513,21.731C-31.003,21.081 -32.163,20.102 -34.135,19.94C-34.661,18.68 -34.829,17.057 -34.734,15.169C-32.1,15.12 -30.271,15.874 -27.428,15.618C-27.535,16.073 -27.169,16.057 -27.28,16.514C-27.36,16.893 -28.084,16.438 -28.77,16.362C-30.305,16.194 -32.435,16.292 -33.989,16.514C-33.515,17.733 -31.941,17.815 -30.859,18.301C-29.708,18.815 -28.805,19.672 -27.729,20.09C-28.066,20.891 -28.624,21.479 -29.513,21.731M-33.835,20.385C-32.72,20.315 -31.422,21.35 -30.26,21.731C-31.865,22.29 -33.119,21.213 -33.835,20.385M-27.578,15.169C-30.373,15.434 -32.155,14.682 -34.734,14.721C-34.221,10.469 -27.529,10.702 -27.578,15.169M-38.906,18.598C-38.831,17.825 -38.541,16.485 -38.906,15.768C-38.327,15.502 -37.729,15.254 -36.967,15.169C-36.95,16.495 -37.046,17.932 -36.819,19.045C-37.424,18.809 -38.279,18.823 -38.906,18.598M-32.497,26.499C-35.213,25.09 -37.063,22.817 -40.546,22.176C-40.228,21.501 -39.576,21.155 -39.501,20.237C-36.63,21.788 -34.651,24.233 -32.497,26.499M-40.991,17.557C-41.958,17.108 -43.701,16.71 -45.017,17.108C-44.273,18.051 -42.588,18.417 -41.289,18.895C-41.376,19.391 -41.479,20.147 -41.736,20.536C-42.341,21.456 -42.836,21.499 -43.973,21.28C-45.501,20.989 -46.899,19.807 -48.292,19.79C-48.747,18.602 -49.008,17.225 -48.892,15.469C-46.481,15.903 -43.731,16.852 -40.991,16.067L-40.991,17.557ZM-41.141,18.301C-41.408,19.014 -42.098,18.165 -42.483,18.004C-43.06,17.762 -43.639,17.575 -44.121,17.407L-44.42,17.407C-43.414,17.098 -41.023,17.483 -41.141,18.301M-47.849,20.237C-46.39,20.764 -45.137,21.503 -43.378,21.731C-45.26,22.219 -47.36,21.641 -47.849,20.237M-42.333,12.338C-41.423,13.165 -41.339,14.364 -41.141,15.768C-43.912,16.379 -46.334,15.413 -48.744,15.169C-48.993,11.997 -44.449,10.42 -42.333,12.338M-58.88,18.749C-58.596,19.762 -57.595,20.116 -56.938,20.686C-55.256,22.145 -53.589,23.854 -52.471,26.051C-52.129,26.721 -51.542,27.251 -50.978,27.842C-53.384,26.665 -54.637,24.344 -57.09,23.219C-57.416,22.876 -56.708,22.725 -56.938,22.026C-57.236,21.131 -58.805,21.508 -59.922,21.43L-59.922,14.721C-59.021,15.262 -57.128,14.813 -56.045,15.169C-55.406,15.6 -55.186,16.008 -54.556,16.067C-53.484,16.161 -52.627,14.751 -51.127,15.169C-51.127,16.71 -51.229,18.354 -50.681,19.344C-53.283,19.711 -56.169,18.284 -58.88,18.749M-46.358,25.602C-45.585,26.206 -44.723,26.266 -43.675,26.794C-42.698,27.294 -41.854,28.331 -40.694,28.585C-44.179,28.383 -46.745,27.049 -48.744,25.006C-50.823,22.876 -52.56,20.61 -55.597,19.344C-54.365,19.159 -52.858,19.979 -51.277,19.94C-49.854,21.997 -48.377,24.034 -46.358,25.602M-54.556,12.338C-54.375,12.581 -54.188,13.061 -54.408,13.381C-54.854,13.877 -55.83,13.846 -56.045,14.573C-57.398,14.583 -58.765,14.61 -59.922,14.426C-60.312,11.895 -55.905,10.497 -54.556,12.338M-62.156,20.385C-62.225,20.852 -62.958,20.067 -63.347,19.79C-64.198,19.19 -65.093,18.344 -66.627,18.301C-66.556,16.936 -66.459,15.547 -68.12,15.917C-68.979,16.299 -68.395,18.12 -68.566,19.194C-70.742,19.401 -70.674,21.858 -73.635,21.28C-73.078,20.446 -72.468,19.665 -72.442,18.301C-74.416,18.809 -75.977,19.737 -77.51,20.686C-75.141,17.813 -72.082,13.762 -69.164,10.252C-68.371,9.301 -66.433,7.848 -66.627,6.524C-66.904,4.678 -69.72,5.532 -71.546,5.333C-71.046,3.299 -69.445,2.368 -68.863,0.415L-68.566,0.415C-67.17,0.51 -66.76,1.59 -65.735,2.055C-65.832,5.184 -65.625,8.002 -64.393,9.805C-65.654,10.01 -65.952,12.317 -63.798,11.743C-62.953,11.942 -62.828,12.86 -62.156,13.231L-62.156,20.385ZM-71.1,21.28C-70.359,20.633 -69.71,19.891 -68.715,19.491C-67.913,21.092 -69.518,21.571 -71.1,21.28M-76.764,25.454C-76.742,24.581 -75.223,23.919 -74.827,22.92L-73.635,22.92C-74.167,24.276 -75.746,24.583 -76.764,25.454M-77.656,21.28C-76.338,20.217 -74.53,19.637 -73.037,18.749C-72.809,19.575 -73.688,20.579 -74.081,21.28L-77.656,21.28ZM-78.551,18.45C-79.396,19.473 -80.424,20.085 -80.042,21.878C-81.716,22.936 -83.915,23.471 -85.708,24.411C-84.169,22.758 -82.866,20.743 -81.086,19.344C-80.457,18.848 -79.478,18.794 -79.297,17.854C-82.445,18.879 -84.379,21.12 -87.347,22.325C-86.736,21.545 -85.422,21.463 -85.262,20.237C-86.729,19.502 -87.877,21.024 -89.285,21.579C-91.622,22.503 -94.586,22.585 -97.035,23.37C-96.503,22.741 -95.65,22.887 -94.949,22.624C-93.356,22.026 -91.882,20.926 -90.328,20.09C-88.772,19.252 -87.092,18.626 -85.56,17.854C-83.733,16.936 -82.276,15.403 -80.488,14.573C-79.844,13.631 -79.025,12.86 -77.957,12.338C-77.402,10.708 -78.331,8.813 -77.51,7.715C-76.774,6.737 -75.481,7.28 -73.784,7.122C-73.734,7.817 -74.081,8.116 -74.081,8.758C-72.836,9.419 -72.264,8.215 -72.293,7.122L-69.612,7.122C-72.665,10.512 -75.453,14.684 -78.551,18.45M-79.149,3.991C-79.139,2.596 -79.153,0.561 -79.149,-0.927L-79.149,-1.373C-78.909,-1.417 -78.893,-1.232 -78.702,-1.224C-78.596,-0.708 -78.429,-0.251 -78.551,0.415C-78.667,1.022 -78.872,2.243 -78.853,3.397C-78.839,4.067 -78.495,4.954 -78.998,5.333C-79.385,5.198 -79.149,4.426 -79.149,3.991M-73.635,-5.548C-73.98,-4.96 -74.617,-5.273 -75.123,-5.101C-76.476,-4.646 -77.579,-3.535 -78.551,-2.714C-78.071,-0.812 -75.622,-0.878 -73.784,-0.33C-75.042,-0.283 -77.17,-0.355 -78.108,-1.076C-78.331,-1.253 -78.831,-2.007 -78.853,-2.267C-78.982,-4.074 -75.437,-5.3 -73.635,-5.548M-77.361,-0.183C-75.29,0.286 -72.793,0.317 -70.205,0.264C-70.876,2.227 -72.452,3.284 -73.037,5.333L-77.957,5.333C-78.47,3.37 -77.788,1.336 -77.361,-0.183M-78.253,5.333C-79.008,3.588 -78.238,1.311 -78.253,-0.63C-78.081,-0.654 -77.992,-0.595 -77.957,-0.48C-77.839,1.096 -78.521,3.116 -78.253,5.333M-73.334,-5.248C-73.162,-5.275 -73.071,-5.218 -73.037,-5.101C-73.061,-2.64 -71.722,-1.552 -69.91,-0.927C-70.179,-0.343 -71.015,-0.675 -71.546,-0.63C-71.987,-0.591 -72.485,-0.445 -72.889,-0.48C-73.318,-0.519 -73.622,-0.804 -74.081,-0.927C-75.591,-1.331 -77.337,-1.224 -77.957,-2.414C-77.992,-3.187 -77.074,-3.654 -76.319,-4.058C-75.599,-4.439 -74.619,-4.882 -73.635,-4.802C-73.583,-4.998 -73.373,-5.037 -73.334,-5.248M-72.588,-6.146C-71.811,-6.128 -71.497,-5.648 -71.546,-4.802C-72.249,-4.894 -72.691,-5.251 -72.588,-6.146M-72.293,-8.083C-71.734,-7.947 -71.674,-7.304 -71.698,-6.591C-72.119,-6.468 -72.082,-6.802 -72.442,-6.74C-72.488,-7.287 -72.419,-7.71 -72.293,-8.083M-71.698,-8.824C-71.092,-8.753 -70.795,-8.206 -71.1,-7.634C-71.674,-7.656 -71.711,-8.216 -71.698,-8.824M-71.1,-5.845C-71.305,-6.896 -70.721,-7.156 -70.506,-7.783C-69.566,-7.365 -70.269,-5.857 -71.1,-5.845M-70.506,-4.507C-70.916,-5.29 -69.899,-5.464 -69.91,-6.292C-69.192,-5.824 -69.782,-4.484 -70.506,-4.507M-72.293,-4.205C-71.798,-4.595 -70.669,-4.345 -70.951,-3.462C-71.869,-3.238 -71.995,-3.808 -72.293,-4.205M-70.059,-1.82C-70.749,-1.876 -71.039,-2.33 -71.25,-2.865C-70.429,-2.941 -70.002,-2.619 -70.059,-1.82M-69.31,-4.355L-69.31,-2.566C-69.975,-2.548 -69.88,-3.292 -70.205,-3.609C-69.899,-3.849 -69.917,-4.415 -69.31,-4.355M-68.715,-4.654C-67.952,-4.673 -67.652,-4.228 -67.078,-4.058C-67.473,-2.914 -68.03,-1.931 -69.012,-1.373C-68.76,-2.312 -68.636,-3.378 -68.715,-4.654M-65.437,-2.414L-65.437,-1.373C-66.982,-1.677 -66.95,-0.404 -68.416,-0.63C-67.555,-1.357 -67.289,-2.681 -65.437,-2.414M-65.883,-5.845C-64.979,-5.556 -65.541,-3.876 -66.332,-3.91C-66.198,-4.57 -66.285,-5.456 -65.883,-5.845M-67.078,-0.031C-67.032,-0.736 -66.25,-0.697 -65.585,-0.777L-65.585,-0.031L-67.078,-0.031ZM-65.291,1.307C-65.932,1.21 -66.513,1.044 -66.627,0.415C-65.867,0.397 -65.211,0.491 -65.291,1.307M-63.947,-0.63C-64.154,-0.191 -64.434,0.178 -65.137,0.118C-65.185,-0.546 -64.517,-1.054 -63.947,-0.63M-63.347,-4.205C-63.744,-3.761 -64.192,-3.357 -65.137,-3.462C-65.078,-4.193 -64.087,-4.634 -63.347,-4.205M-63.798,-7.484C-63.392,-6.726 -63.688,-5.529 -64.693,-5.695C-65.251,-6.339 -65.016,-7.748 -63.798,-7.484M-61.561,-5.4C-61.82,-4.912 -62.689,-4.408 -63.347,-4.802C-63.401,-5.761 -62.207,-5.542 -61.561,-5.4M-62.769,-8.167C-62.759,-8.171 -62.751,-8.173 -62.742,-8.173C-62.743,-8.193 -62.748,-8.212 -62.753,-8.23C-62.474,-8.259 -62.197,-8.376 -61.922,-8.498C-61.474,-8.728 -61.029,-8.951 -60.563,-8.74C-60.568,-8.728 -60.579,-8.716 -60.583,-8.706C-60.563,-8.693 -60.54,-8.689 -60.517,-8.677C-60.761,-8.283 -61.198,-8.078 -61.621,-7.861C-62.001,-7.632 -62.374,-7.394 -62.554,-6.986C-62.613,-6.999 -62.654,-7.037 -62.684,-7.089C-62.835,-7.236 -62.756,-7.613 -62.738,-7.933C-62.742,-8.021 -62.748,-8.101 -62.769,-8.167M-59.473,-8.083C-59.406,-7.519 -59.767,-7.38 -59.922,-7.037C-60.435,-6.972 -60.756,-7.097 -61.112,-7.187C-60.74,-7.562 -59.909,-8.263 -59.473,-8.083M-62.456,-5.996C-62.005,-6.718 -61.253,-6.845 -60.369,-6.441C-60.681,-5.9 -61.745,-5.695 -62.456,-5.996M-62.156,-0.183C-62.446,0.428 -63.282,0.934 -64.094,0.563C-63.819,-0.081 -62.882,-0.871 -62.156,-0.183M-60.071,0.711C-60.425,1.057 -61.407,0.766 -62.006,0.862C-61.666,-0.175 -60.724,0.237 -60.071,0.711M-61.261,1.307L-59.922,1.307C-59.993,1.948 -61.289,2.182 -61.261,1.307M-62.903,1.307C-61.991,1.194 -61.582,1.579 -61.413,2.202C-62.289,2.29 -62.849,2.047 -62.903,1.307M-63.347,2.202C-64.036,2.192 -64.316,1.78 -64.842,1.606L-64.842,0.862C-64.247,1.211 -63.267,1.176 -63.347,2.202M8.491,20.536C5.126,19.827 2.112,18.766 -0.747,17.557C-1.145,17.557 -1.601,17.499 -1.791,17.704C-2.045,17.014 -3.142,17.169 -3.581,16.661C-2.575,11.169 -6.051,8.538 -9.842,9.655C-11.121,10.032 -13.489,11.725 -12.82,13.829C-12.434,15.04 -10.292,15.022 -9.99,14.126C-9.692,13.239 -10.255,12.905 -10.587,12.338C-9.158,10.374 -4.208,11.241 -5.666,14.721C-6.838,15.485 -8.859,15.405 -10.289,15.917C-11.925,15.045 -14.899,16.243 -16.996,15.469L-16.996,14.276C-15.663,14.126 -13.306,12.889 -15.208,11.743C-16.021,11.77 -16.287,12.354 -17.142,12.338C-17.238,10.149 -16.95,7.573 -17.294,5.631C-18.584,5.305 -22.675,4.571 -22.51,6.676C-22.183,7.69 -20.142,6.989 -19.231,7.42C-18.893,9.065 -19.177,11.34 -19.083,13.231C-19.895,13.811 -21.136,13.961 -21.916,14.573C-22.139,15.161 -21.478,15.61 -21.764,15.768C-23.001,15.563 -24.414,15.534 -25.491,15.169C-25.669,12.071 -25.122,8.243 -25.79,5.631C-27.118,5.661 -30.769,4.616 -30.559,6.676C-30.362,7.626 -28.634,7.032 -27.875,7.42C-27.542,8.43 -27.813,10.04 -27.729,11.295C-30.631,8.133 -37.115,10.254 -36.967,14.872C-37.88,14.751 -38.315,15.112 -38.906,15.319C-39.125,11.465 -42.531,9.252 -46.358,9.805C-48.979,10.18 -50.832,12.36 -51.277,14.872C-51.544,14.69 -52.145,14.846 -52.319,14.573C-51.473,11.454 -54.235,9.565 -56.938,9.655C-58.455,9.708 -59.64,10.417 -60.517,11.295C-60.41,10.59 -60.729,10.315 -60.965,9.954L-63.798,9.954C-65.134,8.411 -65.603,5.202 -65.137,2.352C-63.048,3.657 -59.684,2.643 -58.432,1.307C-59.796,-0.505 -62.271,-1.212 -64.99,-1.671C-65.4,-2.74 -64.21,-2.484 -63.798,-2.714C-62.153,-3.64 -60.965,-4.705 -59.773,-5.845C-59.568,-7.091 -58.347,-8.199 -59.175,-9.572C-63.295,-9.986 -66.02,-7.789 -67.078,-4.654C-67.559,-5.013 -68.343,-5.076 -68.715,-5.548C-69.128,-7.769 -70.131,-9.398 -72.293,-9.871C-73.135,-9.124 -72.751,-7.148 -73.188,-5.996C-74.783,-5.996 -76.038,-5.488 -76.913,-4.953C-77.872,-4.359 -79.379,-3.212 -79.595,-2.414C-79.868,-1.433 -79.595,0.1 -79.595,1.46C-79.595,4.977 -79.826,8.586 -79.744,11.743C-79.752,12.247 -79.396,12.389 -79.149,12.639C-80.768,14.219 -82.797,15.688 -84.664,16.809C-85.379,17.239 -86.055,17.463 -86.897,17.854C-89.779,19.182 -92.364,21.237 -95.396,22.325C-95.614,22.403 -95.915,22.264 -96.14,22.325C-96.903,22.532 -97.709,23.088 -98.525,23.37C-99.407,23.669 -100.456,23.633 -101.06,24.411C-97.322,23.473 -93.154,23.229 -89.881,22.176C-88.293,21.665 -87.08,20.417 -85.56,20.385C-87.039,21.786 -88.984,22.723 -90.328,24.26C-86.988,22.782 -84.051,20.899 -81.086,19.045C-82.57,20.329 -84.318,21.84 -85.407,23.37C-85.657,23.715 -86.218,24.235 -86.002,24.71C-83.771,24.163 -81.962,23.186 -80.042,22.325C-79.347,23.417 -76.732,22.592 -75.422,23.071C-76.2,23.833 -77.02,24.553 -77.361,25.751C-75.176,25.454 -74.191,23.958 -72.74,22.92C-70.847,22.827 -68.574,23.112 -66.927,22.774C-66.212,21.999 -66.971,19.749 -66.478,18.749C-65.498,18.811 -64.813,19.344 -64.094,19.79C-63.434,20.206 -62.356,20.514 -62.156,21.43C-63.513,21.481 -64.708,21.167 -64.842,22.176C-65.086,24.026 -59.722,22.924 -57.837,23.219C-56.372,24.004 -55.046,25.047 -53.961,26.051C-53.044,26.897 -52.107,28.192 -50.681,27.989C-50.698,27.124 -51.613,26.704 -52.022,26.051C-52.687,24.991 -52.961,24.221 -53.661,23.37C-55.123,21.577 -56.89,20.463 -58.134,18.895C-56.394,19.19 -55.572,19.483 -54.408,20.237C-53.338,20.926 -52.739,21.555 -52.022,22.176C-51.724,22.432 -51.388,22.528 -51.127,22.774C-49.613,24.19 -48.292,26.215 -46.807,27.243C-44.579,28.774 -41.102,28.376 -38.456,29.926C-39.048,29.178 -40.004,28.794 -40.843,28.288C-43.381,26.753 -46.333,25.567 -48.292,23.516C-48.777,23.018 -49.165,22.311 -49.639,21.731C-50.06,21.21 -50.805,20.704 -50.681,19.94C-49.548,22.278 -45.819,24.706 -42.333,23.37C-41.853,23.18 -41.37,22.641 -40.843,22.325C-39.348,23.024 -37.819,23.264 -36.522,24.114C-35.124,25.024 -33.926,26.651 -32.345,26.794C-32.155,25.532 -33.618,24.885 -34.434,24.114C-36.062,22.573 -37.339,20.702 -39.357,19.79C-39.131,19.663 -39.034,19.417 -39.057,19.045C-38.417,19.301 -37.331,19.11 -36.667,19.344C-36.242,22.881 -31.528,24.774 -28.025,22.92C-27.479,23.795 -26.391,23.489 -25.491,23.815C-24.286,24.253 -23.207,25.096 -21.916,25.454C-19.169,26.215 -15.955,26.762 -13.118,25.751C-16.45,25.11 -20.215,24.897 -22.361,23.071C-21.912,22.604 -22.116,21.96 -22.51,21.579C-23.371,21.202 -23.513,21.942 -24.448,21.878C-25.232,21.717 -25.428,20.178 -25.042,19.344C-24.276,19.817 -23.405,19.61 -22.51,19.94C-22.001,20.128 -21.564,20.704 -21.021,20.836C-20.347,20.993 -19.481,20.458 -18.931,21.131C-19.013,22.145 -21.137,21.116 -21.468,21.878C-21.859,23.317 -20.352,23.327 -18.931,23.37C-17.104,23.42 -14.737,23.506 -13.866,23.071C-12.434,24.075 -10.488,24.563 -8.197,24.71C-8.143,23.606 -9.374,23.795 -9.99,23.37C-7.396,23.626 -5.879,22.809 -4.774,21.579C-4.138,24.141 0.727,23.208 0.146,20.237C2.697,20.946 5.704,21.098 8.491,20.536M-41.289,5.186C-41.618,4.858 -42.388,5.127 -42.483,5.186C-43.89,6.026 -45.41,7.331 -46.06,8.612C-44.258,8.764 -38.473,7.124 -41.289,5.186" style="fill:#bee3f8;"/>
        </g>
        <g transform="matrix(1.89508,0,0,1.89508,148.438,275.575)">
            <path d="M0,5.617C-0.197,5.099 -0.415,4.508 -0.641,3.84C-0.866,3.176 -1.074,2.482 -1.262,1.762C-1.449,2.482 -1.654,3.176 -1.877,3.84C-2.099,4.508 -2.314,5.099 -2.513,5.617L-3.388,5.617C-3.719,4.875 -4.045,4.029 -4.359,3.08C-4.675,2.131 -4.976,1.103 -5.255,0L-4.175,0C-4.107,0.342 -4.019,0.707 -3.917,1.103C-3.816,1.5 -3.711,1.896 -3.598,2.293C-3.487,2.689 -3.374,3.07 -3.247,3.435C-3.126,3.804 -3.011,4.123 -2.903,4.396C-2.783,4.058 -2.66,3.701 -2.541,3.322C-2.423,2.945 -2.308,2.564 -2.2,2.179C-2.092,1.795 -1.99,1.416 -1.893,1.047C-1.795,0.674 -1.713,0.328 -1.639,0L-0.808,0C-0.743,0.328 -0.664,0.674 -0.571,1.047C-0.479,1.416 -0.377,1.795 -0.269,2.179C-0.158,2.564 -0.046,2.945 0.073,3.322C0.19,3.701 0.312,4.058 0.434,4.396C0.542,4.123 0.656,3.804 0.774,3.435C0.894,3.07 1.01,2.689 1.126,2.293C1.242,1.896 1.348,1.5 1.45,1.103C1.55,0.707 1.637,0.342 1.708,0L2.746,0C2.465,1.103 2.166,2.131 1.85,3.08C1.532,4.029 1.206,4.875 0.878,5.617L0,5.617Z" style="fill:#bee3f8;fill-rule:nonzero;"/>
        </g>
        <g transform="matrix(1.89508,0,0,1.89508,164.693,275.575)">
            <path d="M0,5.617C-0.202,5.099 -0.417,4.508 -0.642,3.84C-0.871,3.176 -1.079,2.482 -1.264,1.762C-1.45,2.482 -1.656,3.176 -1.879,3.84C-2.103,4.508 -2.315,5.099 -2.516,5.617L-3.392,5.617C-3.724,4.875 -4.048,4.029 -4.362,3.08C-4.681,2.131 -4.978,1.103 -5.26,0L-4.181,0C-4.109,0.342 -4.023,0.707 -3.921,1.103C-3.818,1.5 -3.716,1.896 -3.6,2.293C-3.49,2.689 -3.373,3.07 -3.25,3.435C-3.128,3.804 -3.013,4.123 -2.904,4.396C-2.786,4.058 -2.662,3.701 -2.543,3.322C-2.425,2.945 -2.313,2.564 -2.204,2.179C-2.094,1.795 -1.992,1.416 -1.894,1.047C-1.8,0.674 -1.715,0.328 -1.643,0L-0.81,0C-0.747,0.328 -0.666,0.674 -0.574,1.047C-0.478,1.416 -0.379,1.795 -0.271,2.179C-0.163,2.564 -0.048,2.945 0.07,3.322C0.188,3.701 0.309,4.058 0.431,4.396C0.539,4.123 0.652,3.804 0.772,3.435C0.891,3.07 1.006,2.689 1.122,2.293C1.24,1.896 1.344,1.5 1.448,1.103C1.548,0.707 1.635,0.342 1.703,0L2.743,0C2.461,1.103 2.163,2.131 1.845,3.08C1.53,4.029 1.204,4.875 0.873,5.617L0,5.617Z" style="fill:#bee3f8;fill-rule:nonzero;"/>
        </g>
        <g transform="matrix(1.89508,0,0,1.89508,180.945,275.575)">
            <path d="M0,5.617C-0.206,5.099 -0.417,4.508 -0.644,3.84C-0.869,3.176 -1.077,2.482 -1.265,1.762C-1.455,2.482 -1.657,3.176 -1.88,3.84C-2.104,4.508 -2.316,5.099 -2.519,5.617L-3.394,5.617C-3.725,4.875 -4.047,4.029 -4.364,3.08C-4.682,2.131 -4.982,1.103 -5.261,0L-4.181,0C-4.109,0.342 -4.021,0.707 -3.921,1.103C-3.822,1.5 -3.717,1.896 -3.604,2.293C-3.491,2.689 -3.373,3.07 -3.252,3.435C-3.129,3.804 -3.014,4.123 -2.906,4.396C-2.783,4.058 -2.665,3.701 -2.545,3.322C-2.427,2.945 -2.313,2.564 -2.207,2.179C-2.099,1.795 -1.995,1.416 -1.898,1.047C-1.8,0.674 -1.714,0.328 -1.644,0L-0.813,0C-0.746,0.328 -0.67,0.674 -0.575,1.047C-0.479,1.416 -0.379,1.795 -0.272,2.179C-0.165,2.564 -0.052,2.945 0.069,3.322C0.187,3.701 0.308,4.058 0.431,4.396C0.539,4.123 0.651,3.804 0.771,3.435C0.887,3.07 1.005,2.689 1.121,2.293C1.236,1.896 1.344,1.5 1.447,1.103C1.547,0.707 1.635,0.342 1.706,0L2.739,0C2.46,1.103 2.162,2.131 1.844,3.08C1.528,4.029 1.205,4.875 0.875,5.617L0,5.617Z" style="fill:#bee3f8;fill-rule:nonzero;"/>
        </g>
        <g transform="matrix(1.89508,0,0,1.89508,189.742,285.125)">
            <path d="M0,-0.006C0,0.189 -0.063,0.359 -0.194,0.504C-0.323,0.646 -0.5,0.721 -0.725,0.721C-0.949,0.721 -1.122,0.646 -1.254,0.504C-1.382,0.359 -1.449,0.189 -1.449,-0.006C-1.449,-0.199 -1.382,-0.367 -1.254,-0.514C-1.122,-0.656 -0.949,-0.727 -0.725,-0.727C-0.5,-0.727 -0.323,-0.656 -0.194,-0.514C-0.063,-0.367 0,-0.199 0,-0.006" style="fill:#bee3f8;fill-rule:nonzero;"/>
        </g>
        <g transform="matrix(1.89508,0,0,1.89508,199.587,284.783)">
            <path d="M0,-4.101C-0.152,-3.935 -0.352,-3.701 -0.6,-3.398C-0.85,-3.097 -1.113,-2.761 -1.399,-2.394C-1.682,-2.029 -1.97,-1.644 -2.252,-1.24C-2.538,-0.837 -2.787,-0.451 -3.004,-0.083L0.085,-0.083L0.085,0.758L-4.202,0.758L-4.202,0.09C-4.03,-0.226 -3.815,-0.576 -3.567,-0.958C-3.314,-1.337 -3.048,-1.718 -2.771,-2.097C-2.494,-2.476 -2.226,-2.831 -1.963,-3.167C-1.7,-3.501 -1.471,-3.785 -1.275,-4.015L-4.051,-4.015L-4.051,-4.859L0,-4.859L0,-4.101Z" style="fill:#bee3f8;fill-rule:nonzero;"/>
        </g>
        <g transform="matrix(1.89508,0,0,1.89508,206.089,286.219)">
            <path d="M0,-5.734C0.09,-5.734 0.187,-5.728 0.298,-5.718C0.411,-5.709 0.521,-5.693 0.628,-5.673C0.734,-5.658 0.837,-5.638 0.926,-5.619C1.015,-5.601 1.08,-5.586 1.124,-5.572L0.952,-4.697C0.873,-4.726 0.742,-4.759 0.557,-4.798C0.375,-4.839 0.137,-4.859 -0.149,-4.859C-0.336,-4.859 -0.52,-4.839 -0.706,-4.798C-0.89,-4.759 -1.01,-4.732 -1.07,-4.718L-1.07,0L-2.072,0L-2.072,-5.377C-1.835,-5.463 -1.538,-5.545 -1.185,-5.619C-0.835,-5.695 -0.438,-5.734 0,-5.734" style="fill:#bee3f8;fill-rule:nonzero;"/>
        </g>
        <g transform="matrix(1.89508,0,0,1.89508,217.473,280.901)">
            <path d="M0,0.002C0,-0.635 -0.144,-1.137 -0.426,-1.506C-0.713,-1.877 -1.101,-2.062 -1.588,-2.062C-2.079,-2.062 -2.468,-1.877 -2.749,-1.506C-3.033,-1.137 -3.175,-0.635 -3.175,0.002C-3.175,0.631 -3.033,1.133 -2.749,1.508C-2.468,1.877 -2.079,2.063 -1.588,2.063C-1.101,2.063 -0.713,1.877 -0.426,1.508C-0.144,1.133 0,0.631 0,0.002M1.043,0.002C1.043,0.445 0.98,0.848 0.852,1.209C0.724,1.57 0.542,1.881 0.309,2.139C0.072,2.395 -0.206,2.598 -0.53,2.738C-0.855,2.877 -1.207,2.949 -1.588,2.949C-1.971,2.949 -2.324,2.877 -2.646,2.738C-2.97,2.598 -3.248,2.395 -3.485,2.139C-3.717,1.881 -3.898,1.57 -4.029,1.209C-4.157,0.848 -4.225,0.445 -4.225,0.002C-4.225,-0.437 -4.157,-0.842 -4.029,-1.205C-3.898,-1.568 -3.717,-1.877 -3.485,-2.139C-3.248,-2.4 -2.97,-2.598 -2.646,-2.738C-2.324,-2.879 -1.971,-2.947 -1.588,-2.947C-1.207,-2.947 -0.855,-2.879 -0.53,-2.738C-0.206,-2.598 0.072,-2.4 0.309,-2.139C0.542,-1.877 0.724,-1.568 0.852,-1.205C0.98,-0.842 1.043,-0.437 1.043,0.002" style="fill:#bee3f8;fill-rule:nonzero;"/>
        </g>
        <g transform="matrix(1.89508,0,0,1.89508,229.012,278.985)">
            <path d="M0,-0.61C-0.123,-0.71 -0.296,-0.807 -0.528,-0.901C-0.759,-0.995 -1.01,-1.042 -1.287,-1.042C-1.571,-1.042 -1.819,-0.989 -2.021,-0.883C-2.229,-0.78 -2.395,-0.635 -2.53,-0.452C-2.656,-0.27 -2.75,-0.049 -2.808,0.201C-2.864,0.451 -2.895,0.724 -2.895,1.013C-2.895,1.665 -2.731,2.169 -2.405,2.529C-2.085,2.886 -1.649,3.062 -1.113,3.062C-0.838,3.062 -0.608,3.052 -0.425,3.025C-0.243,3.001 -0.101,2.974 0,2.943L0,-0.61ZM0,-4.389L1.006,-4.561L1.006,3.656C0.773,3.722 0.479,3.786 0.118,3.851C-0.241,3.913 -0.656,3.951 -1.123,3.951C-1.555,3.951 -1.94,3.88 -2.291,3.744C-2.636,3.607 -2.931,3.411 -3.174,3.161C-3.421,2.908 -3.606,2.599 -3.743,2.236C-3.875,1.874 -3.94,1.462 -3.94,1.013C-3.94,0.579 -3.885,0.183 -3.773,-0.174C-3.662,-0.538 -3.499,-0.846 -3.282,-1.106C-3.067,-1.366 -2.802,-1.567 -2.49,-1.71C-2.176,-1.856 -1.819,-1.926 -1.415,-1.926C-1.09,-1.926 -0.804,-1.883 -0.553,-1.799C-0.306,-1.71 -0.123,-1.63 0,-1.549L0,-4.389Z" style="fill:#bee3f8;fill-rule:nonzero;"/>
        </g>
        <g transform="matrix(1.89508,0,0,1.89508,237.381,270.342)">
            <path d="M0,8.486C-0.62,8.474 -1.055,8.34 -1.314,8.09C-1.576,7.836 -1.705,7.443 -1.705,6.91L-1.705,0.172L-0.699,0L-0.699,6.75C-0.699,6.914 -0.686,7.05 -0.658,7.158C-0.63,7.267 -0.58,7.353 -0.517,7.42C-0.45,7.484 -0.365,7.533 -0.258,7.564C-0.15,7.597 -0.018,7.623 0.141,7.644L0,8.486Z" style="fill:#bee3f8;fill-rule:nonzero;"/>
        </g>
        <g transform="matrix(1.89508,0,0,1.89508,243.382,276.908)">
            <path d="M0,4.193C0.237,4.193 0.447,4.185 0.628,4.173C0.814,4.164 0.966,4.144 1.091,4.115L1.091,2.443C1.018,2.406 0.901,2.377 0.739,2.349C0.577,2.324 0.38,2.312 0.152,2.312C0,2.312 -0.163,2.322 -0.33,2.345C-0.5,2.367 -0.655,2.41 -0.794,2.478C-0.937,2.547 -1.054,2.64 -1.146,2.761C-1.239,2.879 -1.287,3.037 -1.287,3.228C-1.287,3.589 -1.172,3.841 -0.941,3.982C-0.71,4.121 -0.397,4.193 0,4.193M-0.087,-0.84C0.316,-0.84 0.654,-0.789 0.935,-0.684C1.207,-0.58 1.435,-0.434 1.604,-0.243C1.772,-0.053 1.891,0.173 1.965,0.437C2.037,0.701 2.073,0.988 2.073,1.308L2.073,4.818C1.986,4.83 1.866,4.851 1.711,4.875C1.557,4.902 1.38,4.925 1.188,4.947C0.992,4.97 0.783,4.99 0.556,5.006C0.328,5.021 0.103,5.033 -0.119,5.033C-0.439,5.033 -0.729,5 -0.993,4.935C-1.261,4.873 -1.492,4.769 -1.688,4.629C-1.879,4.488 -2.032,4.302 -2.138,4.072C-2.247,3.843 -2.302,3.564 -2.302,3.24C-2.302,2.933 -2.239,2.666 -2.111,2.443C-1.984,2.218 -1.816,2.037 -1.599,1.9C-1.385,1.763 -1.131,1.664 -0.844,1.599C-0.553,1.535 -0.253,1.502 0.065,1.502C0.164,1.502 0.269,1.507 0.378,1.517C0.485,1.529 0.587,1.545 0.686,1.56C0.783,1.58 0.868,1.593 0.938,1.611C1.01,1.625 1.059,1.634 1.091,1.64L1.091,1.363C1.091,1.195 1.069,1.035 1.035,0.869C1,0.707 0.937,0.564 0.842,0.437C0.747,0.312 0.619,0.213 0.457,0.136C0.295,0.06 0.087,0.025 -0.174,0.025C-0.502,0.025 -0.794,0.047 -1.043,0.093C-1.291,0.14 -1.477,0.187 -1.599,0.24L-1.716,-0.592C-1.588,-0.651 -1.372,-0.705 -1.069,-0.76C-0.769,-0.815 -0.439,-0.84 -0.087,-0.84" style="fill:#bee3f8;fill-rule:nonzero;"/>
        </g>
        <g transform="matrix(1.89508,0,0,1.89508,252.71,285.125)">
            <path d="M0,-0.006C0,0.189 -0.065,0.359 -0.195,0.504C-0.324,0.646 -0.5,0.721 -0.723,0.721C-0.946,0.721 -1.125,0.646 -1.251,0.504C-1.383,0.359 -1.447,0.189 -1.447,-0.006C-1.447,-0.199 -1.383,-0.367 -1.251,-0.514C-1.125,-0.656 -0.946,-0.727 -0.723,-0.727C-0.5,-0.727 -0.324,-0.656 -0.195,-0.514C-0.065,-0.367 0,-0.199 0,-0.006" style="fill:#bee3f8;fill-rule:nonzero;"/>
        </g>
        <g transform="matrix(1.89508,0,0,1.89508,262.906,280.901)">
            <path d="M0,0.002C0,-0.635 -0.145,-1.137 -0.428,-1.506C-0.712,-1.877 -1.099,-2.062 -1.589,-2.062C-2.08,-2.062 -2.466,-1.877 -2.749,-1.506C-3.034,-1.137 -3.174,-0.635 -3.174,0.002C-3.174,0.631 -3.034,1.133 -2.749,1.508C-2.466,1.877 -2.08,2.063 -1.589,2.063C-1.099,2.063 -0.712,1.877 -0.428,1.508C-0.145,1.133 0,0.631 0,0.002M1.047,0.002C1.047,0.445 0.981,0.848 0.854,1.209C0.723,1.57 0.54,1.881 0.306,2.139C0.071,2.395 -0.206,2.598 -0.532,2.738C-0.856,2.877 -1.206,2.949 -1.589,2.949C-1.971,2.949 -2.325,2.877 -2.645,2.738C-2.971,2.598 -3.251,2.395 -3.483,2.139C-3.718,1.881 -3.899,1.57 -4.03,1.209C-4.158,0.848 -4.224,0.445 -4.224,0.002C-4.224,-0.437 -4.158,-0.842 -4.03,-1.205C-3.899,-1.568 -3.718,-1.877 -3.483,-2.139C-3.251,-2.4 -2.971,-2.598 -2.645,-2.738C-2.325,-2.879 -1.971,-2.947 -1.589,-2.947C-1.206,-2.947 -0.856,-2.879 -0.532,-2.738C-0.206,-2.598 0.071,-2.4 0.306,-2.139C0.54,-1.877 0.723,-1.568 0.854,-1.205C0.981,-0.842 1.047,-0.437 1.047,0.002" style="fill:#bee3f8;fill-rule:nonzero;"/>
        </g>
        <g transform="matrix(1.89508,0,0,1.89508,271.504,286.219)">
            <path d="M0,-5.734C0.085,-5.734 0.182,-5.728 0.295,-5.718C0.407,-5.709 0.514,-5.693 0.622,-5.673C0.733,-5.658 0.831,-5.638 0.921,-5.619C1.012,-5.601 1.079,-5.586 1.121,-5.572L0.949,-4.697C0.868,-4.726 0.735,-4.759 0.553,-4.798C0.372,-4.839 0.132,-4.859 -0.154,-4.859C-0.342,-4.859 -0.528,-4.839 -0.709,-4.798C-0.894,-4.759 -1.014,-4.732 -1.071,-4.718L-1.071,0L-2.075,0L-2.075,-5.377C-1.84,-5.463 -1.543,-5.545 -1.192,-5.619C-0.838,-5.695 -0.44,-5.734 0,-5.734" style="fill:#bee3f8;fill-rule:nonzero;"/>
        </g>
        <g transform="matrix(1.89508,0,0,1.89508,282.118,288.16)">
            <path d="M0,-5.752C-0.099,-5.781 -0.236,-5.809 -0.402,-5.832C-0.574,-5.857 -0.804,-5.871 -1.091,-5.871C-1.629,-5.871 -2.045,-5.695 -2.337,-5.344C-2.629,-4.99 -2.773,-4.522 -2.773,-3.939C-2.773,-3.615 -2.733,-3.338 -2.65,-3.107C-2.567,-2.877 -2.454,-2.686 -2.316,-2.535C-2.174,-2.383 -2.01,-2.27 -1.831,-2.199C-1.647,-2.129 -1.457,-2.09 -1.263,-2.09C-0.995,-2.09 -0.751,-2.129 -0.528,-2.205C-0.305,-2.279 -0.131,-2.369 0,-2.471L0,-5.752ZM0.011,-1.584C-0.073,-1.527 -0.24,-1.453 -0.49,-1.361C-0.738,-1.272 -1.028,-1.227 -1.36,-1.227C-1.698,-1.227 -2.016,-1.281 -2.316,-1.391C-2.613,-1.496 -2.876,-1.666 -3.1,-1.893C-3.324,-2.119 -3.499,-2.398 -3.629,-2.74C-3.757,-3.078 -3.822,-3.481 -3.822,-3.949C-3.822,-4.359 -3.763,-4.736 -3.639,-5.078C-3.516,-5.42 -3.337,-5.715 -3.105,-5.961C-2.87,-6.211 -2.585,-6.404 -2.243,-6.545C-1.908,-6.688 -1.524,-6.758 -1.101,-6.758C-0.633,-6.758 -0.222,-6.725 0.126,-6.654C0.472,-6.586 0.766,-6.523 1.005,-6.467L1.005,-1.455C1.005,-0.592 0.78,0.037 0.333,0.426C-0.111,0.812 -0.786,1.006 -1.692,1.006C-2.049,1.006 -2.38,0.98 -2.694,0.92C-3.006,0.863 -3.277,0.795 -3.508,0.715L-3.324,-0.16C-3.123,-0.078 -2.878,-0.01 -2.587,0.053C-2.297,0.113 -1.989,0.143 -1.674,0.143C-1.073,0.143 -0.647,0.025 -0.382,-0.213C-0.121,-0.449 0.011,-0.828 0.011,-1.346L0.011,-1.584Z" style="fill:#bee3f8;fill-rule:nonzero;"/>
        </g>
    </g>
</svg>
